<?xml version="1.0" encoding="UTF-8"?>
<svg xmlns="http://www.w3.org/2000/svg" xmlns:xlink="http://www.w3.org/1999/xlink" width="1920" height="1080" viewBox="0 0 1920 1080">
<defs>
<g>
<g id="glyph-0-0">
<path d="M 24.84375 -1.429688 C 24.890625 -1.085938 24.902344 -0.808594 24.878906 -0.597656 C 24.855469 -0.386719 24.769531 -0.226562 24.621094 -0.117188 C 24.472656 -0.0078125 24.242188 0.0625 23.929688 0.09375 C 23.617188 0.125 23.195312 0.140625 22.664062 0.140625 C 22.320312 0.140625 22.023438 0.128906 21.773438 0.105469 C 21.523438 0.0820312 21.332031 0.0429688 21.199219 -0.0117188 C 21.066406 -0.0664062 20.96875 -0.140625 20.90625 -0.234375 C 20.84375 -0.328125 20.804688 -0.445312 20.789062 -0.585938 L 19.664062 -7.96875 L 7.03125 -7.96875 L 3.070312 -0.65625 C 2.992188 -0.5 2.902344 -0.371094 2.800781 -0.269531 C 2.699219 -0.167969 2.558594 -0.0859375 2.378906 -0.0234375 C 2.199219 0.0390625 1.964844 0.0820312 1.675781 0.105469 C 1.386719 0.128906 1.03125 0.140625 0.609375 0.140625 C 0.140625 0.140625 -0.234375 0.121094 -0.515625 0.0820312 C -0.796875 0.0429688 -0.992188 -0.03125 -1.101562 -0.140625 C -1.210938 -0.25 -1.242188 -0.410156 -1.195312 -0.621094 C -1.148438 -0.832031 -1.039062 -1.109375 -0.867188 -1.453125 L 14.929688 -29.625 C 15.039062 -29.796875 15.15625 -29.9375 15.28125 -30.046875 C 15.40625 -30.15625 15.570312 -30.242188 15.773438 -30.304688 C 15.976562 -30.367188 16.234375 -30.410156 16.546875 -30.433594 C 16.859375 -30.457031 17.242188 -30.46875 17.695312 -30.46875 C 18.210938 -30.46875 18.628906 -30.457031 18.949219 -30.433594 C 19.269531 -30.410156 19.527344 -30.367188 19.722656 -30.304688 C 19.917969 -30.242188 20.054688 -30.152344 20.132812 -30.035156 C 20.210938 -29.917969 20.265625 -29.773438 20.296875 -29.601562 L 24.84375 -1.429688 M 16.945312 -26.296875 L 16.921875 -26.296875 L 8.71875 -11.179688 L 19.21875 -11.179688 Z "/>
</g>
<g id="glyph-0-1">
</g>
<g id="glyph-0-2">
<path d="M 24.632812 -24.421875 C 24.632812 -23.46875 24.503906 -22.566406 24.246094 -21.714844 C 23.988281 -20.863281 23.621094 -20.078125 23.144531 -19.359375 C 22.667969 -18.640625 22.089844 -18.007812 21.410156 -17.460938 C 20.730469 -16.914062 19.960938 -16.460938 19.101562 -16.101562 C 19.757812 -15.976562 20.371094 -15.75 20.941406 -15.421875 C 21.511719 -15.09375 22 -14.683594 22.40625 -14.191406 C 22.8125 -13.699219 23.128906 -13.117188 23.355469 -12.445312 C 23.582031 -11.773438 23.695312 -11.03125 23.695312 -10.21875 C 23.695312 -9.390625 23.585938 -8.558594 23.367188 -7.722656 C 23.148438 -6.886719 22.816406 -6.089844 22.371094 -5.332031 C 21.925781 -4.574219 21.371094 -3.871094 20.707031 -3.222656 C 20.042969 -2.574219 19.265625 -2.007812 18.375 -1.523438 C 17.484375 -1.039062 16.488281 -0.664062 15.386719 -0.398438 C 14.285156 -0.132812 13.007812 0 11.554688 0 L 3.515625 0 C 3 0 2.613281 -0.128906 2.355469 -0.386719 C 2.097656 -0.644531 2.039062 -1.0625 2.179688 -1.640625 L 7.570312 -28.6875 C 7.679688 -29.296875 7.929688 -29.722656 8.320312 -29.964844 C 8.710938 -30.207031 9.117188 -30.328125 9.539062 -30.328125 L 16.054688 -30.328125 C 17.601562 -30.328125 18.898438 -30.199219 19.945312 -29.941406 C 20.992188 -29.683594 21.863281 -29.304688 22.558594 -28.804688 C 23.253906 -28.304688 23.773438 -27.6875 24.117188 -26.953125 C 24.460938 -26.21875 24.632812 -25.375 24.632812 -24.421875 M 20.34375 -23.695312 C 20.34375 -24.210938 20.257812 -24.671875 20.085938 -25.078125 C 19.914062 -25.484375 19.636719 -25.832031 19.253906 -26.121094 C 18.871094 -26.410156 18.386719 -26.636719 17.800781 -26.800781 C 17.214844 -26.964844 16.445312 -27.046875 15.492188 -27.046875 L 11.226562 -27.046875 L 9.28125 -17.226562 L 13.851562 -17.226562 C 15.085938 -17.226562 16.101562 -17.429688 16.898438 -17.835938 C 17.695312 -18.242188 18.347656 -18.761719 18.855469 -19.394531 C 19.363281 -20.027344 19.738281 -20.726562 19.980469 -21.492188 C 20.222656 -22.257812 20.34375 -22.992188 20.34375 -23.695312 M 19.429688 -9.9375 C 19.429688 -11.234375 18.96875 -12.238281 18.046875 -12.949219 C 17.125 -13.660156 15.703125 -14.015625 13.78125 -14.015625 L 8.601562 -14.015625 L 6.492188 -3.328125 L 12.140625 -3.328125 C 13.421875 -3.328125 14.503906 -3.511719 15.386719 -3.878906 C 16.269531 -4.246094 17.007812 -4.730469 17.601562 -5.332031 C 18.195312 -5.933594 18.648438 -6.632812 18.960938 -7.429688 C 19.273438 -8.226562 19.429688 -9.0625 19.429688 -9.9375 Z "/>
</g>
<g id="glyph-0-3">
<path d="M 21.679688 -17.367188 C 21.679688 -16.289062 21.429688 -15.320312 20.929688 -14.460938 C 20.429688 -13.601562 19.648438 -12.867188 18.585938 -12.257812 C 17.523438 -11.648438 16.164062 -11.179688 14.507812 -10.851562 C 12.851562 -10.523438 10.867188 -10.359375 8.554688 -10.359375 L 6.070312 -10.359375 C 5.960938 -9.84375 5.886719 -9.34375 5.847656 -8.859375 C 5.808594 -8.375 5.789062 -7.921875 5.789062 -7.5 C 5.789062 -5.9375 6.175781 -4.742188 6.949219 -3.914062 C 7.722656 -3.085938 8.976562 -2.671875 10.710938 -2.671875 C 11.710938 -2.671875 12.609375 -2.746094 13.40625 -2.894531 C 14.203125 -3.042969 14.894531 -3.203125 15.480469 -3.375 C 16.066406 -3.546875 16.546875 -3.707031 16.921875 -3.855469 C 17.296875 -4.003906 17.554688 -4.078125 17.695312 -4.078125 C 17.835938 -4.078125 17.941406 -4.027344 18.011719 -3.925781 C 18.082031 -3.824219 18.117188 -3.679688 18.117188 -3.492188 C 18.117188 -3.335938 18.101562 -3.148438 18.070312 -2.929688 C 18.039062 -2.710938 17.992188 -2.488281 17.929688 -2.261719 C 17.867188 -2.035156 17.785156 -1.820312 17.683594 -1.617188 C 17.582031 -1.414062 17.46875 -1.242188 17.34375 -1.101562 C 17.15625 -0.914062 16.824219 -0.730469 16.347656 -0.550781 C 15.871094 -0.371094 15.304688 -0.207031 14.648438 -0.0585938 C 13.992188 0.0898438 13.273438 0.210938 12.492188 0.304688 C 11.710938 0.398438 10.929688 0.445312 10.148438 0.445312 C 8.757812 0.445312 7.539062 0.289062 6.492188 -0.0234375 C 5.445312 -0.335938 4.574219 -0.816406 3.878906 -1.464844 C 3.183594 -2.113281 2.664062 -2.921875 2.320312 -3.890625 C 1.976562 -4.859375 1.804688 -6 1.804688 -7.3125 C 1.804688 -8.328125 1.902344 -9.417969 2.097656 -10.582031 C 2.292969 -11.746094 2.601562 -12.898438 3.023438 -14.039062 C 3.445312 -15.179688 3.992188 -16.273438 4.664062 -17.320312 C 5.335938 -18.367188 6.136719 -19.289062 7.066406 -20.085938 C 7.996094 -20.882812 9.070312 -21.523438 10.289062 -22.007812 C 11.507812 -22.492188 12.882812 -22.734375 14.414062 -22.734375 C 15.726562 -22.734375 16.839844 -22.570312 17.753906 -22.242188 C 18.667969 -21.914062 19.417969 -21.492188 20.003906 -20.976562 C 20.589844 -20.460938 21.015625 -19.886719 21.28125 -19.253906 C 21.546875 -18.621094 21.679688 -17.992188 21.679688 -17.367188 M 17.71875 -17.015625 C 17.71875 -17.8125 17.40625 -18.457031 16.78125 -18.949219 C 16.15625 -19.441406 15.265625 -19.6875 14.109375 -19.6875 C 13.09375 -19.6875 12.195312 -19.511719 11.414062 -19.160156 C 10.632812 -18.808594 9.941406 -18.335938 9.339844 -17.742188 C 8.738281 -17.148438 8.222656 -16.457031 7.792969 -15.667969 C 7.363281 -14.878906 7.015625 -14.046875 6.75 -13.171875 L 9.140625 -13.171875 C 10.78125 -13.171875 12.152344 -13.273438 13.253906 -13.476562 C 14.355469 -13.679688 15.238281 -13.957031 15.902344 -14.308594 C 16.566406 -14.660156 17.035156 -15.070312 17.308594 -15.539062 C 17.582031 -16.007812 17.71875 -16.5 17.71875 -17.015625 Z "/>
</g>
<g id="glyph-0-4">
<path d="M 19.03125 -0.585938 C 18.96875 -0.320312 18.796875 -0.132812 18.515625 -0.0234375 C 18.234375 0.0859375 17.765625 0.140625 17.109375 0.140625 C 16.796875 0.140625 16.539062 0.125 16.335938 0.09375 C 16.132812 0.0625 15.96875 0.0195312 15.84375 -0.0351562 C 15.71875 -0.0898438 15.632812 -0.160156 15.585938 -0.246094 C 15.539062 -0.332031 15.539062 -0.445312 15.585938 -0.585938 L 16.359375 -4.570312 C 16.15625 -4.070312 15.789062 -3.523438 15.257812 -2.929688 C 14.726562 -2.335938 14.097656 -1.789062 13.371094 -1.289062 C 12.644531 -0.789062 11.835938 -0.375 10.945312 -0.046875 C 10.054688 0.28125 9.148438 0.445312 8.226562 0.445312 C 6.976562 0.445312 5.941406 0.226562 5.121094 -0.210938 C 4.300781 -0.648438 3.648438 -1.226562 3.164062 -1.945312 C 2.679688 -2.664062 2.347656 -3.476562 2.167969 -4.382812 C 1.988281 -5.289062 1.898438 -6.21875 1.898438 -7.171875 C 1.898438 -8.046875 1.980469 -9.039062 2.144531 -10.148438 C 2.308594 -11.257812 2.574219 -12.390625 2.941406 -13.546875 C 3.308594 -14.703125 3.785156 -15.828125 4.371094 -16.921875 C 4.957031 -18.015625 5.664062 -18.996094 6.492188 -19.863281 C 7.320312 -20.730469 8.28125 -21.425781 9.375 -21.949219 C 10.46875 -22.472656 11.710938 -22.734375 13.101562 -22.734375 C 14.492188 -22.734375 15.683594 -22.453125 16.675781 -21.890625 C 17.667969 -21.328125 18.554688 -20.554688 19.335938 -19.570312 L 19.78125 -21.703125 C 19.84375 -21.953125 20.023438 -22.132812 20.320312 -22.242188 C 20.617188 -22.351562 21.078125 -22.40625 21.703125 -22.40625 C 22.015625 -22.40625 22.277344 -22.394531 22.488281 -22.371094 C 22.699219 -22.347656 22.867188 -22.304688 22.992188 -22.242188 C 23.117188 -22.179688 23.195312 -22.101562 23.226562 -22.007812 C 23.257812 -21.914062 23.265625 -21.8125 23.25 -21.703125 L 19.03125 -0.585938 M 18.304688 -16.171875 C 17.570312 -17.25 16.777344 -18.058594 15.925781 -18.597656 C 15.074219 -19.136719 14.117188 -19.40625 13.054688 -19.40625 C 12.210938 -19.40625 11.449219 -19.207031 10.769531 -18.808594 C 10.089844 -18.410156 9.488281 -17.882812 8.964844 -17.226562 C 8.441406 -16.570312 7.988281 -15.824219 7.605469 -14.988281 C 7.222656 -14.152344 6.910156 -13.289062 6.667969 -12.398438 C 6.425781 -11.507812 6.246094 -10.632812 6.128906 -9.773438 C 6.011719 -8.914062 5.953125 -8.140625 5.953125 -7.453125 C 5.953125 -6.90625 5.996094 -6.363281 6.082031 -5.824219 C 6.167969 -5.285156 6.332031 -4.792969 6.574219 -4.347656 C 6.816406 -3.902344 7.148438 -3.542969 7.570312 -3.269531 C 7.992188 -2.996094 8.539062 -2.859375 9.210938 -2.859375 C 10.070312 -2.859375 10.933594 -3.097656 11.800781 -3.574219 C 12.667969 -4.050781 13.476562 -4.710938 14.226562 -5.554688 C 14.976562 -6.398438 15.640625 -7.390625 16.21875 -8.53125 C 16.796875 -9.671875 17.226562 -10.929688 17.507812 -12.304688 Z "/>
</g>
<g id="glyph-0-5">
<path d="M 19.03125 -0.585938 C 19.015625 -0.460938 18.96875 -0.351562 18.890625 -0.257812 C 18.8125 -0.164062 18.703125 -0.0898438 18.5625 -0.0351562 C 18.421875 0.0195312 18.238281 0.0625 18.011719 0.09375 C 17.785156 0.125 17.507812 0.140625 17.179688 0.140625 C 16.867188 0.140625 16.605469 0.125 16.394531 0.09375 C 16.183594 0.0625 16.019531 0.0195312 15.902344 -0.0351562 C 15.785156 -0.0898438 15.707031 -0.164062 15.667969 -0.257812 C 15.628906 -0.351562 15.625 -0.460938 15.65625 -0.585938 L 16.429688 -4.546875 C 16.179688 -4.015625 15.785156 -3.457031 15.246094 -2.871094 C 14.707031 -2.285156 14.074219 -1.742188 13.347656 -1.242188 C 12.621094 -0.742188 11.824219 -0.335938 10.957031 -0.0234375 C 10.089844 0.289062 9.210938 0.445312 8.320312 0.445312 C 7.257812 0.445312 6.363281 0.300781 5.636719 0.0117188 C 4.910156 -0.277344 4.324219 -0.675781 3.878906 -1.183594 C 3.433594 -1.691406 3.113281 -2.292969 2.917969 -2.988281 C 2.722656 -3.683594 2.625 -4.445312 2.625 -5.273438 C 2.625 -5.789062 2.660156 -6.316406 2.730469 -6.855469 C 2.800781 -7.394531 2.890625 -7.9375 3 -8.484375 L 5.601562 -21.703125 C 5.632812 -21.8125 5.6875 -21.914062 5.765625 -22.007812 C 5.84375 -22.101562 5.964844 -22.179688 6.128906 -22.242188 C 6.292969 -22.304688 6.503906 -22.347656 6.761719 -22.371094 C 7.019531 -22.394531 7.335938 -22.40625 7.710938 -22.40625 C 8.085938 -22.40625 8.394531 -22.394531 8.636719 -22.371094 C 8.878906 -22.347656 9.066406 -22.304688 9.199219 -22.242188 C 9.332031 -22.179688 9.417969 -22.101562 9.457031 -22.007812 C 9.496094 -21.914062 9.507812 -21.8125 9.492188 -21.703125 L 6.914062 -8.625 C 6.820312 -8.21875 6.75 -7.796875 6.703125 -7.359375 C 6.65625 -6.921875 6.632812 -6.476562 6.632812 -6.023438 C 6.632812 -5.554688 6.675781 -5.128906 6.761719 -4.746094 C 6.847656 -4.363281 6.996094 -4.03125 7.207031 -3.75 C 7.417969 -3.46875 7.691406 -3.25 8.027344 -3.09375 C 8.363281 -2.9375 8.773438 -2.859375 9.257812 -2.859375 C 10.085938 -2.859375 10.933594 -3.097656 11.800781 -3.574219 C 12.667969 -4.050781 13.476562 -4.710938 14.226562 -5.554688 C 14.976562 -6.398438 15.644531 -7.402344 16.230469 -8.566406 C 16.816406 -9.730469 17.25 -11 17.53125 -12.375 L 19.382812 -21.703125 C 19.398438 -21.8125 19.449219 -21.914062 19.535156 -22.007812 C 19.621094 -22.101562 19.746094 -22.179688 19.910156 -22.242188 C 20.074219 -22.304688 20.285156 -22.347656 20.542969 -22.371094 C 20.800781 -22.394531 21.117188 -22.40625 21.492188 -22.40625 C 21.867188 -22.40625 22.175781 -22.394531 22.417969 -22.371094 C 22.660156 -22.347656 22.847656 -22.304688 22.980469 -22.242188 C 23.113281 -22.179688 23.199219 -22.101562 23.238281 -22.007812 C 23.277344 -21.914062 23.289062 -21.8125 23.273438 -21.703125 Z "/>
</g>
<g id="glyph-0-6">
<path d="M 21.09375 -0.585938 C 21.0625 -0.460938 21.007812 -0.355469 20.929688 -0.269531 C 20.851562 -0.183594 20.734375 -0.109375 20.578125 -0.046875 C 20.421875 0.015625 20.214844 0.0625 19.957031 0.09375 C 19.699219 0.125 19.382812 0.140625 19.007812 0.140625 C 18.632812 0.140625 18.320312 0.125 18.070312 0.09375 C 17.820312 0.0625 17.628906 0.015625 17.496094 -0.046875 C 17.363281 -0.109375 17.273438 -0.183594 17.226562 -0.269531 C 17.179688 -0.355469 17.171875 -0.460938 17.203125 -0.585938 L 20.90625 -19.078125 L 10.007812 -19.078125 L 7.640625 -7.3125 C 7.578125 -6.984375 7.523438 -6.617188 7.476562 -6.210938 C 7.429688 -5.804688 7.40625 -5.46875 7.40625 -5.203125 C 7.40625 -4.40625 7.574219 -3.824219 7.910156 -3.457031 C 8.246094 -3.089844 8.789062 -2.90625 9.539062 -2.90625 C 9.960938 -2.90625 10.328125 -2.941406 10.640625 -3.011719 C 10.953125 -3.082031 11.222656 -3.15625 11.449219 -3.234375 C 11.675781 -3.3125 11.875 -3.386719 12.046875 -3.457031 C 12.21875 -3.527344 12.367188 -3.5625 12.492188 -3.5625 C 12.617188 -3.5625 12.714844 -3.519531 12.785156 -3.433594 C 12.855469 -3.347656 12.890625 -3.1875 12.890625 -2.953125 C 12.890625 -2.75 12.871094 -2.527344 12.832031 -2.285156 C 12.792969 -2.042969 12.742188 -1.804688 12.679688 -1.570312 C 12.617188 -1.335938 12.539062 -1.125 12.445312 -0.9375 C 12.351562 -0.75 12.25 -0.601562 12.140625 -0.492188 C 12.015625 -0.382812 11.828125 -0.273438 11.578125 -0.164062 C 11.328125 -0.0546875 11.039062 0.0429688 10.710938 0.128906 C 10.382812 0.214844 10.035156 0.28125 9.667969 0.328125 C 9.300781 0.375 8.9375 0.398438 8.578125 0.398438 C 7.703125 0.398438 6.945312 0.304688 6.304688 0.117188 C 5.664062 -0.0703125 5.125 -0.363281 4.6875 -0.761719 C 4.25 -1.160156 3.925781 -1.660156 3.714844 -2.261719 C 3.503906 -2.863281 3.398438 -3.585938 3.398438 -4.429688 C 3.398438 -4.617188 3.40625 -4.824219 3.421875 -5.050781 C 3.4375 -5.277344 3.464844 -5.515625 3.503906 -5.765625 C 3.542969 -6.015625 3.582031 -6.265625 3.621094 -6.515625 C 3.660156 -6.765625 3.703125 -7 3.75 -7.21875 L 6.117188 -19.078125 L 3.1875 -19.078125 C 3.015625 -19.078125 2.882812 -19.128906 2.789062 -19.230469 C 2.695312 -19.332031 2.648438 -19.53125 2.648438 -19.828125 C 2.648438 -20.046875 2.671875 -20.300781 2.71875 -20.589844 C 2.765625 -20.878906 2.835938 -21.148438 2.929688 -21.398438 C 3.023438 -21.648438 3.144531 -21.859375 3.292969 -22.03125 C 3.441406 -22.203125 3.617188 -22.289062 3.820312 -22.289062 L 6.773438 -22.289062 L 7.78125 -27.304688 C 7.796875 -27.414062 7.847656 -27.515625 7.933594 -27.609375 C 8.019531 -27.703125 8.140625 -27.785156 8.296875 -27.855469 C 8.453125 -27.925781 8.660156 -27.976562 8.917969 -28.007812 C 9.175781 -28.039062 9.492188 -28.054688 9.867188 -28.054688 C 10.242188 -28.054688 10.554688 -28.039062 10.804688 -28.007812 C 11.054688 -27.976562 11.246094 -27.925781 11.378906 -27.855469 C 11.511719 -27.785156 11.597656 -27.703125 11.636719 -27.609375 C 11.675781 -27.515625 11.679688 -27.414062 11.648438 -27.304688 L 10.640625 -22.289062 L 24.210938 -22.289062 C 24.679688 -22.289062 24.980469 -22.183594 25.113281 -21.972656 C 25.246094 -21.761719 25.265625 -21.453125 25.171875 -21.046875 L 21.09375 -0.585938 M 27.140625 -28.78125 C 27.0625 -28.34375 26.957031 -27.976562 26.824219 -27.679688 C 26.691406 -27.382812 26.515625 -27.144531 26.296875 -26.964844 C 26.078125 -26.785156 25.808594 -26.65625 25.488281 -26.578125 C 25.167969 -26.5 24.773438 -26.460938 24.304688 -26.460938 C 23.835938 -26.460938 23.457031 -26.5 23.167969 -26.578125 C 22.878906 -26.65625 22.667969 -26.785156 22.535156 -26.964844 C 22.402344 -27.144531 22.328125 -27.382812 22.3125 -27.679688 C 22.296875 -27.976562 22.328125 -28.34375 22.40625 -28.78125 C 22.484375 -29.21875 22.589844 -29.582031 22.722656 -29.871094 C 22.855469 -30.160156 23.035156 -30.402344 23.261719 -30.597656 C 23.488281 -30.792969 23.757812 -30.925781 24.070312 -30.996094 C 24.382812 -31.066406 24.773438 -31.101562 25.242188 -31.101562 C 25.710938 -31.101562 26.089844 -31.066406 26.378906 -30.996094 C 26.667969 -30.925781 26.882812 -30.792969 27.023438 -30.597656 C 27.164062 -30.402344 27.242188 -30.160156 27.257812 -29.871094 C 27.273438 -29.582031 27.234375 -29.21875 27.140625 -28.78125 Z "/>
</g>
<g id="glyph-0-7">
<path d="M 19.148438 -31.289062 C 19.148438 -31.226562 19.140625 -31.128906 19.125 -30.996094 C 19.109375 -30.863281 19.089844 -30.714844 19.066406 -30.550781 C 19.042969 -30.386719 19.007812 -30.214844 18.960938 -30.035156 C 18.914062 -29.855469 18.859375 -29.6875 18.796875 -29.53125 C 18.734375 -29.375 18.664062 -29.25 18.585938 -29.15625 C 18.507812 -29.0625 18.421875 -29.015625 18.328125 -29.015625 C 18.21875 -29.015625 18.082031 -29.046875 17.917969 -29.109375 C 17.753906 -29.171875 17.5625 -29.238281 17.34375 -29.308594 C 17.125 -29.378906 16.867188 -29.445312 16.570312 -29.507812 C 16.273438 -29.570312 15.945312 -29.601562 15.585938 -29.601562 C 14.914062 -29.601562 14.339844 -29.5 13.863281 -29.296875 C 13.386719 -29.09375 12.976562 -28.777344 12.632812 -28.347656 C 12.289062 -27.917969 12 -27.375 11.765625 -26.71875 C 11.53125 -26.0625 11.328125 -25.289062 11.15625 -24.398438 L 10.757812 -22.289062 L 15.46875 -22.289062 C 15.640625 -22.289062 15.777344 -22.230469 15.878906 -22.113281 C 15.980469 -21.996094 16.03125 -21.804688 16.03125 -21.539062 C 16.03125 -21.367188 16.015625 -21.1875 15.984375 -21 C 15.953125 -20.8125 15.914062 -20.628906 15.867188 -20.449219 C 15.820312 -20.269531 15.761719 -20.097656 15.691406 -19.933594 C 15.621094 -19.769531 15.542969 -19.625 15.457031 -19.5 C 15.371094 -19.375 15.273438 -19.273438 15.164062 -19.195312 C 15.054688 -19.117188 14.945312 -19.078125 14.835938 -19.078125 L 10.101562 -19.078125 L 6.09375 0.890625 C 5.828125 2.203125 5.46875 3.339844 5.015625 4.300781 C 4.5625 5.261719 4.007812 6.058594 3.351562 6.691406 C 2.695312 7.324219 1.9375 7.792969 1.078125 8.097656 C 0.21875 8.402344 -0.75 8.554688 -1.828125 8.554688 C -2.53125 8.554688 -3.105469 8.5 -3.550781 8.390625 C -3.996094 8.28125 -4.273438 8.179688 -4.382812 8.085938 C -4.445312 8.007812 -4.492188 7.921875 -4.523438 7.828125 C -4.554688 7.734375 -4.570312 7.609375 -4.570312 7.453125 C -4.570312 7.390625 -4.558594 7.285156 -4.535156 7.136719 C -4.511719 6.988281 -4.484375 6.832031 -4.453125 6.667969 C -4.421875 6.503906 -4.382812 6.332031 -4.335938 6.152344 C -4.289062 5.972656 -4.234375 5.804688 -4.171875 5.648438 C -4.109375 5.492188 -4.039062 5.367188 -3.960938 5.273438 C -3.882812 5.179688 -3.789062 5.132812 -3.679688 5.132812 C -3.570312 5.132812 -3.464844 5.144531 -3.363281 5.167969 C -3.261719 5.191406 -3.152344 5.214844 -3.035156 5.238281 C -2.917969 5.261719 -2.777344 5.285156 -2.613281 5.308594 C -2.449219 5.332031 -2.242188 5.34375 -1.992188 5.34375 C -1.335938 5.34375 -0.769531 5.242188 -0.292969 5.039062 C 0.183594 4.835938 0.589844 4.519531 0.925781 4.089844 C 1.261719 3.660156 1.542969 3.117188 1.769531 2.460938 C 1.996094 1.804688 2.203125 1.015625 2.390625 0.09375 L 6.234375 -19.078125 L 3.234375 -19.078125 C 3.078125 -19.078125 2.957031 -19.128906 2.871094 -19.230469 C 2.785156 -19.332031 2.742188 -19.523438 2.742188 -19.804688 C 2.742188 -19.929688 2.75 -20.082031 2.765625 -20.261719 C 2.78125 -20.441406 2.808594 -20.625 2.847656 -20.8125 C 2.886719 -21 2.9375 -21.179688 3 -21.351562 C 3.0625 -21.523438 3.140625 -21.679688 3.234375 -21.820312 C 3.328125 -21.960938 3.425781 -22.074219 3.527344 -22.160156 C 3.628906 -22.246094 3.757812 -22.289062 3.914062 -22.289062 L 6.867188 -22.289062 L 7.453125 -25.21875 C 7.703125 -26.5 8.0625 -27.621094 8.53125 -28.582031 C 9 -29.542969 9.566406 -30.335938 10.230469 -30.960938 C 10.894531 -31.585938 11.660156 -32.050781 12.527344 -32.355469 C 13.394531 -32.660156 14.351562 -32.8125 15.398438 -32.8125 C 15.742188 -32.8125 16.101562 -32.792969 16.476562 -32.753906 C 16.851562 -32.714844 17.199219 -32.660156 17.519531 -32.589844 C 17.839844 -32.519531 18.121094 -32.4375 18.363281 -32.34375 C 18.605469 -32.25 18.773438 -32.15625 18.867188 -32.0625 C 18.960938 -31.984375 19.03125 -31.875 19.078125 -31.734375 C 19.125 -31.59375 19.148438 -31.445312 19.148438 -31.289062 Z "/>
</g>
<g id="glyph-0-8">
<path d="M 5.390625 -0.585938 C 5.359375 -0.460938 5.304688 -0.355469 5.226562 -0.269531 C 5.148438 -0.183594 5.03125 -0.109375 4.875 -0.046875 C 4.71875 0.015625 4.511719 0.0625 4.253906 0.09375 C 3.996094 0.125 3.679688 0.140625 3.304688 0.140625 C 2.914062 0.140625 2.597656 0.125 2.355469 0.09375 C 2.113281 0.0625 1.925781 0.015625 1.792969 -0.046875 C 1.660156 -0.109375 1.574219 -0.183594 1.535156 -0.269531 C 1.496094 -0.355469 1.492188 -0.460938 1.523438 -0.585938 L 7.757812 -31.898438 C 7.789062 -32.023438 7.839844 -32.132812 7.910156 -32.226562 C 7.980469 -32.320312 8.097656 -32.398438 8.261719 -32.460938 C 8.425781 -32.523438 8.636719 -32.570312 8.894531 -32.601562 C 9.152344 -32.632812 9.476562 -32.648438 9.867188 -32.648438 C 10.242188 -32.648438 10.550781 -32.632812 10.792969 -32.601562 C 11.035156 -32.570312 11.222656 -32.523438 11.355469 -32.460938 C 11.488281 -32.398438 11.570312 -32.320312 11.601562 -32.226562 C 11.632812 -32.132812 11.640625 -32.023438 11.625 -31.898438 Z "/>
</g>
<g id="glyph-0-9">
<path d="M 34.945312 -0.585938 C 34.914062 -0.476562 34.859375 -0.375 34.78125 -0.28125 C 34.703125 -0.1875 34.585938 -0.113281 34.429688 -0.0585938 C 34.273438 -0.00390625 34.066406 0.0429688 33.808594 0.0820312 C 33.550781 0.121094 33.226562 0.140625 32.835938 0.140625 C 32.460938 0.140625 32.148438 0.121094 31.898438 0.0820312 C 31.648438 0.0429688 31.453125 -0.00390625 31.3125 -0.0585938 C 31.171875 -0.113281 31.082031 -0.1875 31.042969 -0.28125 C 31.003906 -0.375 31 -0.476562 31.03125 -0.585938 L 36.304688 -27 L 36.257812 -27 L 20.109375 -0.492188 C 19.984375 -0.273438 19.757812 -0.113281 19.429688 -0.0117188 C 19.101562 0.0898438 18.625 0.140625 18 0.140625 C 17.359375 0.140625 16.90625 0.0820312 16.640625 -0.0351562 C 16.375 -0.152344 16.234375 -0.304688 16.21875 -0.492188 L 11.179688 -27.023438 L 11.132812 -27.023438 L 5.859375 -0.585938 C 5.828125 -0.476562 5.773438 -0.375 5.695312 -0.28125 C 5.617188 -0.1875 5.5 -0.113281 5.34375 -0.0585938 C 5.1875 -0.00390625 4.980469 0.0429688 4.722656 0.0820312 C 4.464844 0.121094 4.140625 0.140625 3.75 0.140625 C 3.375 0.140625 3.0625 0.121094 2.8125 0.0820312 C 2.5625 0.0429688 2.371094 -0.00390625 2.238281 -0.0585938 C 2.105469 -0.113281 2.019531 -0.1875 1.980469 -0.28125 C 1.941406 -0.375 1.9375 -0.476562 1.96875 -0.585938 L 7.523438 -28.5 C 7.585938 -28.8125 7.6875 -29.085938 7.828125 -29.320312 C 7.96875 -29.554688 8.132812 -29.746094 8.320312 -29.894531 C 8.507812 -30.042969 8.707031 -30.152344 8.917969 -30.222656 C 9.128906 -30.292969 9.34375 -30.328125 9.5625 -30.328125 L 11.90625 -30.328125 C 12.40625 -30.328125 12.824219 -30.277344 13.160156 -30.175781 C 13.496094 -30.074219 13.777344 -29.921875 14.003906 -29.71875 C 14.230469 -29.515625 14.40625 -29.257812 14.53125 -28.945312 C 14.65625 -28.632812 14.75 -28.257812 14.8125 -27.820312 L 19.195312 -5.90625 L 19.3125 -5.90625 L 32.859375 -27.820312 C 33.09375 -28.242188 33.328125 -28.605469 33.5625 -28.910156 C 33.796875 -29.214844 34.058594 -29.472656 34.347656 -29.683594 C 34.636719 -29.894531 34.957031 -30.054688 35.308594 -30.164062 C 35.660156 -30.273438 36.054688 -30.328125 36.492188 -30.328125 L 39.164062 -30.328125 C 39.398438 -30.328125 39.609375 -30.292969 39.796875 -30.222656 C 39.984375 -30.152344 40.144531 -30.042969 40.277344 -29.894531 C 40.410156 -29.746094 40.496094 -29.558594 40.535156 -29.332031 C 40.574219 -29.105469 40.5625 -28.828125 40.5 -28.5 Z "/>
</g>
<g id="glyph-0-10">
<path d="M 11.460938 -28.78125 C 11.382812 -28.34375 11.277344 -27.976562 11.144531 -27.679688 C 11.011719 -27.382812 10.835938 -27.144531 10.617188 -26.964844 C 10.398438 -26.785156 10.125 -26.65625 9.796875 -26.578125 C 9.46875 -26.5 9.070312 -26.460938 8.601562 -26.460938 C 8.148438 -26.460938 7.773438 -26.5 7.476562 -26.578125 C 7.179688 -26.65625 6.960938 -26.785156 6.820312 -26.964844 C 6.679688 -27.144531 6.601562 -27.382812 6.585938 -27.679688 C 6.570312 -27.976562 6.601562 -28.34375 6.679688 -28.78125 C 6.773438 -29.21875 6.890625 -29.582031 7.03125 -29.871094 C 7.171875 -30.160156 7.347656 -30.402344 7.558594 -30.597656 C 7.769531 -30.792969 8.039062 -30.925781 8.367188 -30.996094 C 8.695312 -31.066406 9.09375 -31.101562 9.5625 -31.101562 C 10.015625 -31.101562 10.386719 -31.066406 10.675781 -30.996094 C 10.964844 -30.925781 11.183594 -30.792969 11.332031 -30.597656 C 11.480469 -30.402344 11.5625 -30.160156 11.578125 -29.871094 C 11.59375 -29.582031 11.554688 -29.21875 11.460938 -28.78125 M 5.390625 -0.585938 C 5.359375 -0.460938 5.304688 -0.355469 5.226562 -0.269531 C 5.148438 -0.183594 5.03125 -0.109375 4.875 -0.046875 C 4.71875 0.015625 4.511719 0.0625 4.253906 0.09375 C 3.996094 0.125 3.679688 0.140625 3.304688 0.140625 C 2.914062 0.140625 2.597656 0.125 2.355469 0.09375 C 2.113281 0.0625 1.925781 0.015625 1.792969 -0.046875 C 1.660156 -0.109375 1.574219 -0.183594 1.535156 -0.269531 C 1.496094 -0.355469 1.492188 -0.460938 1.523438 -0.585938 L 5.71875 -21.679688 C 5.734375 -21.789062 5.78125 -21.890625 5.859375 -21.984375 C 5.9375 -22.078125 6.054688 -22.15625 6.210938 -22.21875 C 6.367188 -22.28125 6.574219 -22.328125 6.832031 -22.359375 C 7.089844 -22.390625 7.414062 -22.40625 7.804688 -22.40625 C 8.179688 -22.40625 8.488281 -22.390625 8.730469 -22.359375 C 8.972656 -22.328125 9.160156 -22.28125 9.292969 -22.21875 C 9.425781 -22.15625 9.511719 -22.078125 9.550781 -21.984375 C 9.589844 -21.890625 9.601562 -21.789062 9.585938 -21.679688 Z "/>
</g>
<g id="glyph-0-11">
<path d="M 22.125 -17.015625 C 22.125 -16.46875 22.09375 -15.929688 22.03125 -15.398438 C 21.96875 -14.867188 21.882812 -14.320312 21.773438 -13.757812 L 19.125 -0.585938 C 19.09375 -0.460938 19.042969 -0.355469 18.972656 -0.269531 C 18.902344 -0.183594 18.785156 -0.109375 18.621094 -0.046875 C 18.457031 0.015625 18.25 0.0625 18 0.09375 C 17.75 0.125 17.429688 0.140625 17.039062 0.140625 C 16.664062 0.140625 16.355469 0.125 16.113281 0.09375 C 15.871094 0.0625 15.683594 0.015625 15.550781 -0.046875 C 15.417969 -0.109375 15.332031 -0.183594 15.292969 -0.269531 C 15.253906 -0.355469 15.242188 -0.460938 15.257812 -0.585938 L 17.859375 -13.617188 C 17.96875 -14.101562 18.042969 -14.570312 18.082031 -15.023438 C 18.121094 -15.476562 18.140625 -15.875 18.140625 -16.21875 C 18.140625 -17.171875 17.9375 -17.941406 17.53125 -18.527344 C 17.125 -19.113281 16.445312 -19.40625 15.492188 -19.40625 C 14.664062 -19.40625 13.816406 -19.167969 12.949219 -18.691406 C 12.082031 -18.214844 11.277344 -17.558594 10.535156 -16.722656 C 9.792969 -15.886719 9.128906 -14.894531 8.542969 -13.746094 C 7.957031 -12.597656 7.53125 -11.351562 7.265625 -10.007812 L 5.390625 -0.585938 C 5.359375 -0.460938 5.304688 -0.355469 5.226562 -0.269531 C 5.148438 -0.183594 5.03125 -0.109375 4.875 -0.046875 C 4.71875 0.015625 4.511719 0.0625 4.253906 0.09375 C 3.996094 0.125 3.679688 0.140625 3.304688 0.140625 C 2.914062 0.140625 2.597656 0.125 2.355469 0.09375 C 2.113281 0.0625 1.925781 0.015625 1.792969 -0.046875 C 1.660156 -0.109375 1.574219 -0.183594 1.535156 -0.269531 C 1.496094 -0.355469 1.492188 -0.460938 1.523438 -0.585938 L 5.765625 -21.703125 C 5.78125 -21.8125 5.824219 -21.914062 5.894531 -22.007812 C 5.964844 -22.101562 6.074219 -22.179688 6.222656 -22.242188 C 6.371094 -22.304688 6.558594 -22.347656 6.785156 -22.371094 C 7.011719 -22.394531 7.28125 -22.40625 7.59375 -22.40625 C 7.921875 -22.40625 8.191406 -22.394531 8.402344 -22.371094 C 8.613281 -22.347656 8.777344 -22.304688 8.894531 -22.242188 C 9.011719 -22.179688 9.085938 -22.101562 9.117188 -22.007812 C 9.148438 -21.914062 9.15625 -21.8125 9.140625 -21.703125 L 8.34375 -17.671875 C 8.578125 -18.203125 8.960938 -18.765625 9.492188 -19.359375 C 10.023438 -19.953125 10.65625 -20.5 11.390625 -21 C 12.125 -21.5 12.933594 -21.914062 13.816406 -22.242188 C 14.699219 -22.570312 15.617188 -22.734375 16.570312 -22.734375 C 17.617188 -22.734375 18.492188 -22.574219 19.195312 -22.253906 C 19.898438 -21.933594 20.46875 -21.511719 20.90625 -20.988281 C 21.34375 -20.464844 21.65625 -19.859375 21.84375 -19.171875 C 22.03125 -18.484375 22.125 -17.765625 22.125 -17.015625 Z "/>
</g>
<g id="glyph-0-12">
<path d="M 19.054688 -0.585938 C 19.007812 -0.320312 18.84375 -0.132812 18.5625 -0.0234375 C 18.28125 0.0859375 17.8125 0.140625 17.15625 0.140625 C 16.828125 0.140625 16.5625 0.125 16.359375 0.09375 C 16.15625 0.0625 15.992188 0.0195312 15.867188 -0.0351562 C 15.742188 -0.0898438 15.660156 -0.160156 15.621094 -0.246094 C 15.582031 -0.332031 15.578125 -0.445312 15.609375 -0.585938 L 16.359375 -4.523438 C 16.15625 -4.007812 15.789062 -3.457031 15.257812 -2.871094 C 14.726562 -2.285156 14.097656 -1.746094 13.371094 -1.253906 C 12.644531 -0.761719 11.835938 -0.355469 10.945312 -0.0351562 C 10.054688 0.285156 9.148438 0.445312 8.226562 0.445312 C 7.304688 0.445312 6.503906 0.324219 5.824219 0.0820312 C 5.144531 -0.160156 4.574219 -0.484375 4.113281 -0.890625 C 3.652344 -1.296875 3.277344 -1.769531 2.988281 -2.308594 C 2.699219 -2.847656 2.472656 -3.402344 2.308594 -3.972656 C 2.144531 -4.542969 2.035156 -5.117188 1.980469 -5.695312 C 1.925781 -6.273438 1.898438 -6.804688 1.898438 -7.289062 C 1.898438 -8.195312 1.984375 -9.210938 2.15625 -10.335938 C 2.328125 -11.460938 2.601562 -12.589844 2.976562 -13.722656 C 3.351562 -14.855469 3.832031 -15.964844 4.417969 -17.050781 C 5.003906 -18.136719 5.710938 -19.097656 6.539062 -19.933594 C 7.367188 -20.769531 8.324219 -21.445312 9.410156 -21.960938 C 10.496094 -22.476562 11.726562 -22.734375 13.101562 -22.734375 C 13.773438 -22.734375 14.40625 -22.660156 15 -22.511719 C 15.59375 -22.363281 16.132812 -22.160156 16.617188 -21.902344 C 17.101562 -21.644531 17.546875 -21.335938 17.953125 -20.976562 C 18.359375 -20.617188 18.726562 -20.242188 19.054688 -19.851562 L 21.445312 -31.804688 C 21.460938 -31.914062 21.507812 -32.019531 21.585938 -32.121094 C 21.664062 -32.222656 21.78125 -32.300781 21.9375 -32.355469 C 22.09375 -32.410156 22.296875 -32.457031 22.546875 -32.496094 C 22.796875 -32.535156 23.117188 -32.554688 23.507812 -32.554688 C 23.882812 -32.554688 24.191406 -32.535156 24.433594 -32.496094 C 24.675781 -32.457031 24.867188 -32.410156 25.007812 -32.355469 C 25.148438 -32.300781 25.238281 -32.222656 25.277344 -32.121094 C 25.316406 -32.019531 25.320312 -31.914062 25.289062 -31.804688 L 19.054688 -0.585938 M 18.304688 -16.101562 C 17.570312 -17.179688 16.777344 -18 15.925781 -18.5625 C 15.074219 -19.125 14.117188 -19.40625 13.054688 -19.40625 C 12.226562 -19.40625 11.480469 -19.214844 10.816406 -18.832031 C 10.152344 -18.449219 9.554688 -17.9375 9.023438 -17.296875 C 8.492188 -16.65625 8.035156 -15.921875 7.652344 -15.09375 C 7.269531 -14.265625 6.953125 -13.410156 6.703125 -12.527344 C 6.453125 -11.644531 6.265625 -10.773438 6.140625 -9.914062 C 6.015625 -9.054688 5.953125 -8.265625 5.953125 -7.546875 C 5.953125 -6.03125 6.210938 -4.871094 6.726562 -4.066406 C 7.242188 -3.261719 8.070312 -2.859375 9.210938 -2.859375 C 10.070312 -2.859375 10.933594 -3.09375 11.800781 -3.5625 C 12.667969 -4.03125 13.476562 -4.679688 14.226562 -5.507812 C 14.976562 -6.335938 15.640625 -7.320312 16.21875 -8.460938 C 16.796875 -9.601562 17.226562 -10.851562 17.507812 -12.210938 Z "/>
</g>
<g id="glyph-0-13">
<path d="M 15.960938 -32.296875 C 14.257812 -29.71875 12.8125 -27.160156 11.625 -24.621094 C 10.4375 -22.082031 9.472656 -19.601562 8.730469 -17.179688 C 7.988281 -14.757812 7.445312 -12.410156 7.101562 -10.136719 C 6.757812 -7.863281 6.585938 -5.710938 6.585938 -3.679688 C 6.585938 -2.851562 6.613281 -1.980469 6.667969 -1.066406 C 6.722656 -0.152344 6.800781 0.769531 6.902344 1.699219 C 7.003906 2.628906 7.136719 3.550781 7.300781 4.464844 C 7.464844 5.378906 7.65625 6.234375 7.875 7.03125 C 7.921875 7.21875 7.941406 7.378906 7.933594 7.511719 C 7.925781 7.644531 7.867188 7.753906 7.757812 7.839844 C 7.648438 7.925781 7.476562 7.988281 7.242188 8.027344 C 7.007812 8.066406 6.695312 8.085938 6.304688 8.085938 C 6.039062 8.085938 5.808594 8.078125 5.613281 8.0625 C 5.417969 8.046875 5.253906 8.015625 5.121094 7.96875 C 4.988281 7.921875 4.886719 7.867188 4.816406 7.804688 C 4.746094 7.742188 4.695312 7.671875 4.664062 7.59375 C 4.085938 5.796875 3.621094 3.886719 3.269531 1.863281 C 2.917969 -0.160156 2.742188 -2.34375 2.742188 -4.6875 C 2.742188 -6.703125 2.902344 -8.796875 3.222656 -10.96875 C 3.542969 -13.140625 4.078125 -15.390625 4.828125 -17.71875 C 5.578125 -20.046875 6.570312 -22.457031 7.804688 -24.949219 C 9.039062 -27.441406 10.570312 -30 12.398438 -32.625 C 12.460938 -32.734375 12.542969 -32.828125 12.644531 -32.90625 C 12.746094 -32.984375 12.878906 -33.050781 13.042969 -33.105469 C 13.207031 -33.160156 13.414062 -33.199219 13.664062 -33.222656 C 13.914062 -33.246094 14.21875 -33.257812 14.578125 -33.257812 C 14.9375 -33.257812 15.226562 -33.234375 15.445312 -33.1875 C 15.664062 -33.140625 15.832031 -33.078125 15.949219 -33 C 16.066406 -32.921875 16.125 -32.820312 16.125 -32.695312 C 16.125 -32.570312 16.070312 -32.4375 15.960938 -32.296875 Z "/>
</g>
<g id="glyph-0-14">
<path d="M 19.921875 -2.460938 C 19.921875 -2.367188 19.910156 -2.234375 19.886719 -2.0625 C 19.863281 -1.890625 19.828125 -1.714844 19.78125 -1.535156 C 19.734375 -1.355469 19.675781 -1.171875 19.605469 -0.984375 C 19.535156 -0.796875 19.449219 -0.632812 19.347656 -0.492188 C 19.246094 -0.351562 19.132812 -0.234375 19.007812 -0.140625 C 18.882812 -0.046875 18.742188 0 18.585938 0 L 1.828125 0 C 1.625 0 1.453125 -0.0234375 1.3125 -0.0703125 C 1.171875 -0.117188 1.0625 -0.183594 0.984375 -0.269531 C 0.90625 -0.355469 0.847656 -0.457031 0.808594 -0.574219 C 0.769531 -0.691406 0.75 -0.828125 0.75 -0.984375 C 0.75 -1.140625 0.761719 -1.34375 0.785156 -1.59375 C 0.808594 -1.84375 0.867188 -2.117188 0.960938 -2.414062 C 1.054688 -2.710938 1.195312 -3.011719 1.382812 -3.316406 C 1.570312 -3.621094 1.828125 -3.914062 2.15625 -4.195312 L 9.960938 -11.039062 C 11.179688 -12.101562 12.230469 -13.097656 13.113281 -14.027344 C 13.996094 -14.957031 14.738281 -15.824219 15.339844 -16.628906 C 15.941406 -17.433594 16.421875 -18.175781 16.78125 -18.855469 C 17.140625 -19.535156 17.421875 -20.15625 17.625 -20.71875 C 17.828125 -21.28125 17.960938 -21.792969 18.023438 -22.253906 C 18.085938 -22.714844 18.117188 -23.125 18.117188 -23.484375 C 18.117188 -23.859375 18.058594 -24.261719 17.941406 -24.691406 C 17.824219 -25.121094 17.621094 -25.523438 17.332031 -25.898438 C 17.042969 -26.273438 16.632812 -26.585938 16.101562 -26.835938 C 15.570312 -27.085938 14.898438 -27.210938 14.085938 -27.210938 C 13.195312 -27.210938 12.34375 -27.078125 11.53125 -26.8125 C 10.71875 -26.546875 9.984375 -26.253906 9.328125 -25.933594 C 8.671875 -25.613281 8.121094 -25.316406 7.675781 -25.042969 C 7.230469 -24.769531 6.921875 -24.632812 6.75 -24.632812 C 6.59375 -24.632812 6.46875 -24.710938 6.375 -24.867188 C 6.28125 -25.023438 6.234375 -25.25 6.234375 -25.546875 C 6.234375 -25.671875 6.246094 -25.808594 6.269531 -25.957031 C 6.292969 -26.105469 6.316406 -26.265625 6.339844 -26.4375 C 6.363281 -26.609375 6.402344 -26.78125 6.457031 -26.953125 C 6.511719 -27.125 6.574219 -27.289062 6.644531 -27.445312 C 6.714844 -27.601562 6.792969 -27.753906 6.878906 -27.902344 C 6.964844 -28.050781 7.0625 -28.179688 7.171875 -28.289062 C 7.34375 -28.460938 7.683594 -28.6875 8.191406 -28.96875 C 8.699219 -29.25 9.3125 -29.523438 10.03125 -29.789062 C 10.75 -30.054688 11.546875 -30.285156 12.421875 -30.480469 C 13.296875 -30.675781 14.203125 -30.773438 15.140625 -30.773438 C 16.640625 -30.773438 17.882812 -30.5625 18.867188 -30.140625 C 19.851562 -29.71875 20.628906 -29.1875 21.199219 -28.546875 C 21.769531 -27.90625 22.167969 -27.210938 22.394531 -26.460938 C 22.621094 -25.710938 22.734375 -25 22.734375 -24.328125 C 22.734375 -23.6875 22.6875 -23.03125 22.59375 -22.359375 C 22.5 -21.6875 22.316406 -20.980469 22.042969 -20.238281 C 21.769531 -19.496094 21.386719 -18.710938 20.894531 -17.882812 C 20.402344 -17.054688 19.761719 -16.160156 18.972656 -15.199219 C 18.183594 -14.238281 17.230469 -13.199219 16.113281 -12.082031 C 14.996094 -10.964844 13.664062 -9.75 12.117188 -8.4375 L 6.257812 -3.421875 L 19.195312 -3.421875 C 19.460938 -3.421875 19.648438 -3.324219 19.757812 -3.128906 C 19.867188 -2.933594 19.921875 -2.710938 19.921875 -2.460938 Z "/>
</g>
<g id="glyph-0-15">
<path d="M 24.210938 -21.679688 C 24.210938 -20.992188 24.167969 -20.152344 24.082031 -19.160156 C 23.996094 -18.167969 23.855469 -17.097656 23.660156 -15.949219 C 23.464844 -14.800781 23.210938 -13.609375 22.898438 -12.375 C 22.585938 -11.140625 22.203125 -9.9375 21.75 -8.765625 C 21.296875 -7.59375 20.761719 -6.476562 20.144531 -5.414062 C 19.527344 -4.351562 18.820312 -3.429688 18.023438 -2.648438 C 17.101562 -1.710938 15.988281 -0.960938 14.683594 -0.398438 C 13.378906 0.164062 11.851562 0.445312 10.101562 0.445312 C 8.632812 0.445312 7.375 0.246094 6.328125 -0.152344 C 5.28125 -0.550781 4.421875 -1.136719 3.75 -1.910156 C 3.078125 -2.683594 2.585938 -3.636719 2.273438 -4.769531 C 1.960938 -5.902344 1.804688 -7.195312 1.804688 -8.648438 C 1.804688 -9.335938 1.847656 -10.175781 1.933594 -11.167969 C 2.019531 -12.160156 2.160156 -13.230469 2.355469 -14.378906 C 2.550781 -15.527344 2.804688 -16.714844 3.117188 -17.941406 C 3.429688 -19.167969 3.816406 -20.371094 4.277344 -21.550781 C 4.738281 -22.730469 5.273438 -23.847656 5.882812 -24.902344 C 6.492188 -25.957031 7.195312 -26.882812 7.992188 -27.679688 C 8.476562 -28.164062 9.003906 -28.601562 9.574219 -28.992188 C 10.144531 -29.382812 10.761719 -29.707031 11.425781 -29.964844 C 12.089844 -30.222656 12.796875 -30.421875 13.546875 -30.5625 C 14.296875 -30.703125 15.09375 -30.773438 15.9375 -30.773438 C 17.421875 -30.773438 18.6875 -30.570312 19.734375 -30.164062 C 20.78125 -29.757812 21.636719 -29.167969 22.300781 -28.394531 C 22.964844 -27.621094 23.449219 -26.667969 23.753906 -25.535156 C 24.058594 -24.402344 24.210938 -23.117188 24.210938 -21.679688 M 20.109375 -21.632812 C 20.109375 -23.617188 19.738281 -25.085938 18.996094 -26.039062 C 18.253906 -26.992188 17.070312 -27.46875 15.445312 -27.46875 C 14.523438 -27.46875 13.691406 -27.308594 12.949219 -26.988281 C 12.207031 -26.667969 11.523438 -26.203125 10.898438 -25.59375 C 10.273438 -24.96875 9.71875 -24.195312 9.234375 -23.273438 C 8.75 -22.351562 8.320312 -21.355469 7.945312 -20.285156 C 7.570312 -19.214844 7.257812 -18.113281 7.007812 -16.980469 C 6.757812 -15.847656 6.550781 -14.753906 6.386719 -13.699219 C 6.222656 -12.644531 6.101562 -11.683594 6.023438 -10.816406 C 5.945312 -9.949219 5.90625 -9.242188 5.90625 -8.695312 C 5.90625 -6.710938 6.28125 -5.242188 7.03125 -4.289062 C 7.78125 -3.335938 8.960938 -2.859375 10.570312 -2.859375 C 11.507812 -2.859375 12.347656 -3.019531 13.089844 -3.339844 C 13.832031 -3.660156 14.507812 -4.125 15.117188 -4.734375 C 15.726562 -5.34375 16.277344 -6.113281 16.769531 -7.042969 C 17.261719 -7.972656 17.695312 -8.972656 18.070312 -10.042969 C 18.445312 -11.113281 18.761719 -12.214844 19.019531 -13.347656 C 19.277344 -14.480469 19.488281 -15.570312 19.652344 -16.617188 C 19.816406 -17.664062 19.933594 -18.625 20.003906 -19.5 C 20.074219 -20.375 20.109375 -21.085938 20.109375 -21.632812 Z "/>
</g>
<g id="glyph-0-16">
<path d="M 19.945312 -2.390625 C 19.945312 -2.296875 19.933594 -2.167969 19.910156 -2.003906 C 19.886719 -1.839844 19.855469 -1.667969 19.816406 -1.488281 C 19.777344 -1.308594 19.726562 -1.132812 19.664062 -0.960938 C 19.601562 -0.789062 19.523438 -0.628906 19.429688 -0.480469 C 19.335938 -0.332031 19.230469 -0.214844 19.113281 -0.128906 C 18.996094 -0.0429688 18.867188 0 18.726562 0 L 2.859375 0 C 2.671875 0 2.519531 -0.078125 2.402344 -0.234375 C 2.285156 -0.390625 2.226562 -0.601562 2.226562 -0.867188 C 2.226562 -0.945312 2.238281 -1.058594 2.261719 -1.207031 C 2.285156 -1.355469 2.316406 -1.515625 2.355469 -1.6875 C 2.394531 -1.859375 2.449219 -2.039062 2.519531 -2.226562 C 2.589844 -2.414062 2.671875 -2.578125 2.765625 -2.71875 C 2.859375 -2.859375 2.96875 -2.980469 3.09375 -3.082031 C 3.21875 -3.183594 3.359375 -3.234375 3.515625 -3.234375 L 9.84375 -3.234375 L 14.414062 -26.0625 L 7.828125 -22.59375 C 7.578125 -22.46875 7.375 -22.386719 7.21875 -22.347656 C 7.0625 -22.308594 6.933594 -22.3125 6.832031 -22.359375 C 6.730469 -22.40625 6.660156 -22.492188 6.621094 -22.617188 C 6.582031 -22.742188 6.5625 -22.898438 6.5625 -23.085938 C 6.5625 -23.257812 6.582031 -23.472656 6.621094 -23.730469 C 6.660156 -23.988281 6.722656 -24.246094 6.808594 -24.503906 C 6.894531 -24.761719 7.007812 -25.007812 7.148438 -25.242188 C 7.289062 -25.476562 7.46875 -25.65625 7.6875 -25.78125 L 15.585938 -30.257812 C 15.664062 -30.304688 15.753906 -30.34375 15.855469 -30.375 C 15.957031 -30.40625 16.078125 -30.4375 16.21875 -30.46875 C 16.359375 -30.5 16.527344 -30.519531 16.722656 -30.527344 C 16.917969 -30.535156 17.148438 -30.539062 17.414062 -30.539062 C 17.804688 -30.539062 18.121094 -30.523438 18.363281 -30.492188 C 18.605469 -30.460938 18.792969 -30.417969 18.925781 -30.363281 C 19.058594 -30.308594 19.136719 -30.238281 19.160156 -30.152344 C 19.183594 -30.066406 19.1875 -29.976562 19.171875 -29.882812 L 13.875 -3.234375 L 19.359375 -3.234375 C 19.578125 -3.234375 19.730469 -3.160156 19.816406 -3.011719 C 19.902344 -2.863281 19.945312 -2.65625 19.945312 -2.390625 Z "/>
</g>
<g id="glyph-0-17">
<path d="M -0.726562 7.125 C 0.976562 4.5625 2.421875 2.011719 3.609375 -0.527344 C 4.796875 -3.066406 5.761719 -5.554688 6.503906 -7.992188 C 7.246094 -10.429688 7.789062 -12.78125 8.132812 -15.046875 C 8.476562 -17.3125 8.648438 -19.460938 8.648438 -21.492188 C 8.648438 -22.320312 8.621094 -23.191406 8.566406 -24.105469 C 8.511719 -25.019531 8.433594 -25.941406 8.332031 -26.871094 C 8.230469 -27.800781 8.097656 -28.71875 7.933594 -29.625 C 7.769531 -30.53125 7.578125 -31.390625 7.359375 -32.203125 C 7.3125 -32.375 7.296875 -32.527344 7.3125 -32.660156 C 7.328125 -32.792969 7.386719 -32.90625 7.488281 -33 C 7.589844 -33.09375 7.757812 -33.160156 7.992188 -33.199219 C 8.226562 -33.238281 8.539062 -33.257812 8.929688 -33.257812 C 9.210938 -33.257812 9.449219 -33.246094 9.644531 -33.222656 C 9.839844 -33.199219 10.003906 -33.167969 10.136719 -33.128906 C 10.269531 -33.089844 10.367188 -33.039062 10.429688 -32.976562 C 10.492188 -32.914062 10.539062 -32.835938 10.570312 -32.742188 C 11.148438 -30.960938 11.617188 -29.058594 11.976562 -27.035156 C 12.335938 -25.011719 12.515625 -22.820312 12.515625 -20.460938 C 12.515625 -18.445312 12.355469 -16.355469 12.035156 -14.191406 C 11.714844 -12.027344 11.175781 -9.78125 10.417969 -7.453125 C 9.660156 -5.125 8.667969 -2.714844 7.441406 -0.222656 C 6.214844 2.269531 4.6875 4.835938 2.859375 7.476562 C 2.78125 7.570312 2.691406 7.65625 2.589844 7.734375 C 2.488281 7.8125 2.355469 7.878906 2.191406 7.933594 C 2.027344 7.988281 1.820312 8.027344 1.570312 8.050781 C 1.320312 8.074219 1.015625 8.085938 0.65625 8.085938 C 0.296875 8.085938 0.0078125 8.0625 -0.210938 8.015625 C -0.429688 7.96875 -0.59375 7.90625 -0.703125 7.828125 C -0.8125 7.75 -0.867188 7.652344 -0.867188 7.535156 C -0.867188 7.417969 -0.820312 7.28125 -0.726562 7.125 Z "/>
</g>
</g>
</defs>
<g fill="rgb(100%, 100%, 100%)" fill-opacity="1">
<use xlink:href="#glyph-0-0" x="30" y="56"/>
<use xlink:href="#glyph-0-1" x="58" y="56"/>
<use xlink:href="#glyph-0-2" x="69" y="56"/>
<use xlink:href="#glyph-0-3" x="95" y="56"/>
<use xlink:href="#glyph-0-4" x="118" y="56"/>
<use xlink:href="#glyph-0-5" x="143" y="56"/>
<use xlink:href="#glyph-0-6" x="168" y="56"/>
<use xlink:href="#glyph-0-7" x="195" y="56"/>
<use xlink:href="#glyph-0-5" x="210" y="56"/>
<use xlink:href="#glyph-0-8" x="235" y="56"/>
<use xlink:href="#glyph-0-1" x="246" y="56"/>
<use xlink:href="#glyph-0-9" x="257" y="56"/>
<use xlink:href="#glyph-0-10" x="298" y="56"/>
<use xlink:href="#glyph-0-11" x="309" y="56"/>
<use xlink:href="#glyph-0-12" x="334" y="56"/>
<use xlink:href="#glyph-0-13" x="359" y="56"/>
<use xlink:href="#glyph-0-14" x="374" y="56"/>
<use xlink:href="#glyph-0-15" x="398" y="56"/>
<use xlink:href="#glyph-0-15" x="422" y="56"/>
<use xlink:href="#glyph-0-16" x="446" y="56"/>
<use xlink:href="#glyph-0-17" x="470" y="56"/>
</g>
</svg>
