<?xml version="1.0" encoding="UTF-8"?>
<svg xmlns="http://www.w3.org/2000/svg" xmlns:xlink="http://www.w3.org/1999/xlink" width="1920" height="1080" viewBox="0 0 1920 1080">
<defs>
<g>
<g id="glyph-0-0">
<path d="M 23.464844 -1.351562 C 23.507812 -1.027344 23.519531 -0.761719 23.496094 -0.5625 C 23.472656 -0.363281 23.394531 -0.214844 23.253906 -0.109375 C 23.113281 -0.0078125 22.894531 0.0585938 22.601562 0.0898438 C 22.304688 0.117188 21.90625 0.132812 21.40625 0.132812 C 21.082031 0.132812 20.800781 0.121094 20.5625 0.0976562 C 20.328125 0.078125 20.148438 0.0390625 20.019531 -0.0117188 C 19.894531 -0.0625 19.804688 -0.132812 19.746094 -0.222656 C 19.6875 -0.308594 19.648438 -0.421875 19.632812 -0.554688 L 18.570312 -7.527344 L 6.640625 -7.527344 L 2.898438 -0.621094 C 2.824219 -0.472656 2.742188 -0.351562 2.644531 -0.253906 C 2.550781 -0.160156 2.417969 -0.0820312 2.246094 -0.0234375 C 2.078125 0.0351562 1.855469 0.078125 1.582031 0.0976562 C 1.308594 0.121094 0.972656 0.132812 0.574219 0.132812 C 0.132812 0.132812 -0.222656 0.113281 -0.488281 0.078125 C -0.753906 0.0390625 -0.9375 -0.03125 -1.039062 -0.132812 C -1.144531 -0.234375 -1.171875 -0.386719 -1.128906 -0.585938 C -1.085938 -0.785156 -0.980469 -1.046875 -0.820312 -1.371094 L 14.101562 -27.980469 C 14.203125 -28.140625 14.3125 -28.273438 14.433594 -28.378906 C 14.550781 -28.480469 14.707031 -28.5625 14.898438 -28.621094 C 15.089844 -28.679688 15.332031 -28.71875 15.628906 -28.742188 C 15.921875 -28.765625 16.285156 -28.777344 16.710938 -28.777344 C 17.199219 -28.777344 17.59375 -28.765625 17.894531 -28.742188 C 18.199219 -28.71875 18.441406 -28.679688 18.625 -28.621094 C 18.8125 -28.5625 18.941406 -28.476562 19.015625 -28.367188 C 19.089844 -28.253906 19.140625 -28.121094 19.167969 -27.957031 L 23.464844 -1.351562 M 16.003906 -24.835938 L 15.980469 -24.835938 L 8.234375 -10.558594 L 18.152344 -10.558594 Z "/>
</g>
<g id="glyph-0-1">
<path d="M 5.089844 -0.554688 C 5.0625 -0.433594 5.011719 -0.335938 4.9375 -0.253906 C 4.863281 -0.171875 4.75 -0.101562 4.605469 -0.0429688 C 4.457031 0.015625 4.261719 0.0585938 4.015625 0.0898438 C 3.773438 0.117188 3.476562 0.132812 3.121094 0.132812 C 2.753906 0.132812 2.453125 0.117188 2.222656 0.0898438 C 1.996094 0.0585938 1.820312 0.015625 1.691406 -0.0429688 C 1.566406 -0.101562 1.488281 -0.171875 1.449219 -0.253906 C 1.414062 -0.335938 1.410156 -0.433594 1.4375 -0.554688 L 7.328125 -30.125 C 7.355469 -30.246094 7.402344 -30.347656 7.46875 -30.4375 C 7.535156 -30.523438 7.648438 -30.597656 7.800781 -30.65625 C 7.957031 -30.714844 8.15625 -30.761719 8.398438 -30.789062 C 8.644531 -30.820312 8.949219 -30.835938 9.320312 -30.835938 C 9.671875 -30.835938 9.964844 -30.820312 10.191406 -30.789062 C 10.421875 -30.761719 10.597656 -30.714844 10.722656 -30.65625 C 10.851562 -30.597656 10.925781 -30.523438 10.957031 -30.4375 C 10.988281 -30.347656 10.992188 -30.246094 10.980469 -30.125 Z "/>
</g>
<g id="glyph-0-2">
<path d="M 10.824219 -27.183594 C 10.75 -26.769531 10.652344 -26.421875 10.523438 -26.140625 C 10.398438 -25.863281 10.234375 -25.636719 10.027344 -25.464844 C 9.820312 -25.296875 9.5625 -25.175781 9.253906 -25.101562 C 8.941406 -25.027344 8.566406 -24.992188 8.125 -24.992188 C 7.695312 -24.992188 7.339844 -25.027344 7.0625 -25.101562 C 6.78125 -25.175781 6.574219 -25.296875 6.441406 -25.464844 C 6.308594 -25.636719 6.234375 -25.863281 6.21875 -26.140625 C 6.207031 -26.421875 6.234375 -26.769531 6.308594 -27.183594 C 6.398438 -27.59375 6.507812 -27.9375 6.640625 -28.210938 C 6.773438 -28.484375 6.9375 -28.714844 7.136719 -28.898438 C 7.335938 -29.082031 7.59375 -29.207031 7.902344 -29.273438 C 8.210938 -29.339844 8.589844 -29.375 9.03125 -29.375 C 9.460938 -29.375 9.808594 -29.339844 10.082031 -29.273438 C 10.355469 -29.207031 10.5625 -29.082031 10.703125 -28.898438 C 10.84375 -28.714844 10.921875 -28.484375 10.933594 -28.210938 C 10.949219 -27.9375 10.914062 -27.59375 10.824219 -27.183594 M 5.089844 -0.554688 C 5.0625 -0.433594 5.011719 -0.335938 4.9375 -0.253906 C 4.863281 -0.171875 4.75 -0.101562 4.605469 -0.0429688 C 4.457031 0.015625 4.261719 0.0585938 4.015625 0.0898438 C 3.773438 0.117188 3.476562 0.132812 3.121094 0.132812 C 2.753906 0.132812 2.453125 0.117188 2.222656 0.0898438 C 1.996094 0.0585938 1.820312 0.015625 1.691406 -0.0429688 C 1.566406 -0.101562 1.488281 -0.171875 1.449219 -0.253906 C 1.414062 -0.335938 1.410156 -0.433594 1.4375 -0.554688 L 5.402344 -20.476562 C 5.414062 -20.578125 5.460938 -20.675781 5.535156 -20.761719 C 5.609375 -20.851562 5.71875 -20.925781 5.867188 -20.984375 C 6.011719 -21.042969 6.207031 -21.085938 6.453125 -21.117188 C 6.695312 -21.148438 7.003906 -21.160156 7.371094 -21.160156 C 7.726562 -21.160156 8.015625 -21.148438 8.246094 -21.117188 C 8.472656 -21.085938 8.652344 -21.042969 8.777344 -20.984375 C 8.902344 -20.925781 8.984375 -20.851562 9.019531 -20.761719 C 9.058594 -20.675781 9.066406 -20.578125 9.054688 -20.476562 Z "/>
</g>
<g id="glyph-0-3">
<path d="M 18.902344 -18.726562 C 18.902344 -18.460938 18.878906 -18.1875 18.824219 -17.90625 C 18.773438 -17.628906 18.695312 -17.363281 18.59375 -17.121094 C 18.492188 -16.878906 18.367188 -16.675781 18.226562 -16.511719 C 18.089844 -16.351562 17.929688 -16.269531 17.753906 -16.269531 C 17.546875 -16.269531 17.332031 -16.375 17.109375 -16.589844 C 16.890625 -16.804688 16.597656 -17.042969 16.234375 -17.308594 C 15.875 -17.574219 15.417969 -17.820312 14.863281 -18.039062 C 14.308594 -18.261719 13.605469 -18.371094 12.75 -18.371094 C 11.804688 -18.371094 10.96875 -18.175781 10.238281 -17.785156 C 9.507812 -17.394531 8.871094 -16.886719 8.335938 -16.257812 C 7.796875 -15.632812 7.347656 -14.917969 6.996094 -14.121094 C 6.640625 -13.324219 6.351562 -12.519531 6.132812 -11.710938 C 5.910156 -10.898438 5.75 -10.113281 5.65625 -9.351562 C 5.558594 -8.59375 5.511719 -7.933594 5.511719 -7.371094 C 5.511719 -5.851562 5.84375 -4.699219 6.507812 -3.917969 C 7.171875 -3.136719 8.160156 -2.746094 9.472656 -2.746094 C 10.433594 -2.746094 11.253906 -2.863281 11.941406 -3.097656 C 12.628906 -3.335938 13.210938 -3.605469 13.691406 -3.90625 C 14.171875 -4.210938 14.566406 -4.480469 14.875 -4.714844 C 15.183594 -4.949219 15.457031 -5.070312 15.695312 -5.070312 C 15.8125 -5.070312 15.902344 -5.011719 15.96875 -4.902344 C 16.039062 -4.792969 16.070312 -4.632812 16.070312 -4.425781 C 16.070312 -4.25 16.054688 -4.039062 16.027344 -3.796875 C 15.996094 -3.550781 15.949219 -3.300781 15.882812 -3.042969 C 15.816406 -2.785156 15.734375 -2.546875 15.636719 -2.324219 C 15.542969 -2.101562 15.40625 -1.898438 15.230469 -1.714844 C 15.050781 -1.53125 14.742188 -1.304688 14.300781 -1.039062 C 13.855469 -0.773438 13.34375 -0.535156 12.761719 -0.320312 C 12.179688 -0.105469 11.546875 0.0703125 10.867188 0.210938 C 10.191406 0.351562 9.488281 0.421875 8.765625 0.421875 C 6.390625 0.421875 4.613281 -0.183594 3.441406 -1.394531 C 2.269531 -2.605469 1.683594 -4.40625 1.683594 -6.796875 C 1.683594 -7.695312 1.757812 -8.679688 1.914062 -9.75 C 2.070312 -10.820312 2.332031 -11.898438 2.699219 -12.980469 C 3.070312 -14.066406 3.542969 -15.117188 4.117188 -16.136719 C 4.691406 -17.15625 5.402344 -18.058594 6.242188 -18.847656 C 7.082031 -19.636719 8.058594 -20.269531 9.164062 -20.742188 C 10.269531 -21.214844 11.539062 -21.449219 12.972656 -21.449219 C 13.5625 -21.449219 14.128906 -21.402344 14.675781 -21.304688 C 15.222656 -21.210938 15.734375 -21.082031 16.214844 -20.917969 C 16.695312 -20.753906 17.128906 -20.550781 17.519531 -20.308594 C 17.910156 -20.066406 18.214844 -19.847656 18.425781 -19.65625 C 18.640625 -19.464844 18.773438 -19.300781 18.824219 -19.167969 C 18.878906 -19.035156 18.902344 -18.890625 18.902344 -18.726562 Z "/>
</g>
<g id="glyph-0-4">
<path d="M 20.476562 -16.402344 C 20.476562 -15.382812 20.238281 -14.46875 19.765625 -13.65625 C 19.292969 -12.847656 18.558594 -12.152344 17.554688 -11.578125 C 16.550781 -11 15.265625 -10.558594 13.703125 -10.25 C 12.136719 -9.9375 10.261719 -9.785156 8.078125 -9.785156 L 5.734375 -9.785156 C 5.628906 -9.296875 5.558594 -8.824219 5.523438 -8.367188 C 5.484375 -7.910156 5.46875 -7.480469 5.46875 -7.082031 C 5.46875 -5.609375 5.832031 -4.480469 6.5625 -3.695312 C 7.292969 -2.914062 8.476562 -2.523438 10.117188 -2.523438 C 11.058594 -2.523438 11.910156 -2.59375 12.660156 -2.734375 C 13.414062 -2.875 14.066406 -3.023438 14.621094 -3.1875 C 15.171875 -3.351562 15.628906 -3.5 15.980469 -3.640625 C 16.335938 -3.78125 16.578125 -3.851562 16.710938 -3.851562 C 16.84375 -3.851562 16.945312 -3.804688 17.011719 -3.707031 C 17.078125 -3.613281 17.109375 -3.476562 17.109375 -3.296875 C 17.109375 -3.152344 17.097656 -2.972656 17.066406 -2.765625 C 17.035156 -2.558594 16.992188 -2.351562 16.933594 -2.136719 C 16.875 -1.921875 16.796875 -1.71875 16.703125 -1.527344 C 16.605469 -1.335938 16.5 -1.171875 16.378906 -1.039062 C 16.203125 -0.863281 15.890625 -0.691406 15.4375 -0.519531 C 14.988281 -0.351562 14.453125 -0.195312 13.835938 -0.0546875 C 13.214844 0.0859375 12.535156 0.199219 11.796875 0.289062 C 11.058594 0.375 10.324219 0.421875 9.585938 0.421875 C 8.269531 0.421875 7.121094 0.273438 6.132812 -0.0234375 C 5.144531 -0.316406 4.320312 -0.769531 3.664062 -1.382812 C 3.007812 -1.996094 2.515625 -2.757812 2.191406 -3.675781 C 1.867188 -4.589844 1.703125 -5.667969 1.703125 -6.90625 C 1.703125 -7.867188 1.796875 -8.894531 1.980469 -9.992188 C 2.164062 -11.09375 2.457031 -12.183594 2.855469 -13.257812 C 3.253906 -14.335938 3.769531 -15.371094 4.40625 -16.359375 C 5.039062 -17.347656 5.796875 -18.21875 6.671875 -18.96875 C 7.550781 -19.722656 8.566406 -20.328125 9.71875 -20.785156 C 10.867188 -21.242188 12.167969 -21.472656 13.613281 -21.472656 C 14.851562 -21.472656 15.902344 -21.316406 16.765625 -21.007812 C 17.628906 -20.695312 18.339844 -20.296875 18.890625 -19.8125 C 19.445312 -19.324219 19.847656 -18.78125 20.097656 -18.183594 C 20.351562 -17.585938 20.476562 -16.992188 20.476562 -16.402344 M 16.734375 -16.070312 C 16.734375 -16.824219 16.4375 -17.429688 15.847656 -17.894531 C 15.257812 -18.359375 14.417969 -18.59375 13.324219 -18.59375 C 12.367188 -18.59375 11.519531 -18.425781 10.78125 -18.09375 C 10.042969 -17.761719 9.390625 -17.316406 8.820312 -16.757812 C 8.253906 -16.195312 7.765625 -15.542969 7.359375 -14.796875 C 6.953125 -14.050781 6.625 -13.265625 6.375 -12.441406 L 8.632812 -12.441406 C 10.183594 -12.441406 11.476562 -12.535156 12.515625 -12.726562 C 13.558594 -12.917969 14.390625 -13.179688 15.019531 -13.511719 C 15.644531 -13.84375 16.089844 -14.234375 16.347656 -14.675781 C 16.605469 -15.117188 16.734375 -15.582031 16.734375 -16.070312 Z "/>
</g>
</g>
</defs>
<g fill="rgb(98.823529%, 38.431373%, 33.333333%)" fill-opacity="1">
<use xlink:href="#glyph-0-0" x="30" y="54"/>
<use xlink:href="#glyph-0-1" x="56" y="54"/>
<use xlink:href="#glyph-0-2" x="66" y="54"/>
<use xlink:href="#glyph-0-3" x="76" y="54"/>
<use xlink:href="#glyph-0-4" x="95" y="54"/>
</g>
</svg>
