<?xml version="1.0" encoding="UTF-8"?>
<svg xmlns="http://www.w3.org/2000/svg" xmlns:xlink="http://www.w3.org/1999/xlink" width="1920" height="1080" viewBox="0 0 1920 1080">
<defs>
<g>
<g id="glyph-0-0">
<path d="M 5.292969 -4.8125 C 5.511719 -4.550781 5.675781 -4.238281 5.785156 -3.882812 C 5.894531 -3.527344 5.949219 -3.15625 5.949219 -2.769531 C 5.949219 -2.300781 5.882812 -1.882812 5.746094 -1.511719 C 5.613281 -1.144531 5.429688 -0.835938 5.195312 -0.59375 C 4.953125 -0.34375 4.667969 -0.152344 4.339844 -0.0273438 C 4.011719 0.101562 3.640625 0.164062 3.238281 0.164062 C 2.792969 0.164062 2.398438 0.0898438 2.050781 -0.0585938 C 1.703125 -0.203125 1.421875 -0.40625 1.207031 -0.664062 C 0.980469 -0.933594 0.808594 -1.246094 0.699219 -1.605469 C 0.585938 -1.964844 0.53125 -2.351562 0.53125 -2.769531 C 0.53125 -3.175781 0.585938 -3.554688 0.691406 -3.898438 C 0.800781 -4.242188 0.972656 -4.550781 1.199219 -4.828125 C 1.421875 -5.097656 1.703125 -5.308594 2.050781 -5.464844 C 2.398438 -5.617188 2.796875 -5.695312 3.242188 -5.695312 C 3.710938 -5.695312 4.117188 -5.617188 4.453125 -5.457031 C 4.789062 -5.300781 5.070312 -5.085938 5.292969 -4.8125 M 4.808594 -2.769531 C 4.808594 -3.585938 4.667969 -4.21875 4.390625 -4.667969 C 4.109375 -5.121094 3.726562 -5.34375 3.246094 -5.34375 C 2.757812 -5.34375 2.375 -5.121094 2.09375 -4.667969 C 1.8125 -4.21875 1.671875 -3.585938 1.671875 -2.769531 C 1.671875 -1.992188 1.804688 -1.367188 2.074219 -0.894531 C 2.34375 -0.421875 2.730469 -0.1875 3.238281 -0.1875 C 3.742188 -0.1875 4.128906 -0.421875 4.402344 -0.894531 C 4.671875 -1.367188 4.808594 -1.992188 4.808594 -2.769531 Z "/>
</g>
</g>
</defs>
<g fill="rgb(98.823529%, 38.431373%, 33.333333%)" fill-opacity="1">
<use xlink:href="#glyph-0-0" x="30" y="29.679688"/>
</g>
</svg>
