<?xml version="1.0" encoding="UTF-8"?>
<svg xmlns="http://www.w3.org/2000/svg" xmlns:xlink="http://www.w3.org/1999/xlink" width="1920" height="1080" viewBox="0 0 1920 1080">
<defs>
<g>
<g id="glyph-0-0">
<path d="M 34.605469 -2.636719 C 34.605469 -2.195312 34.527344 -1.804688 34.375 -1.460938 C 34.222656 -1.117188 34.015625 -0.832031 33.757812 -0.601562 C 33.5 -0.371094 33.195312 -0.207031 32.84375 -0.101562 C 32.488281 0.00390625 32.132812 0.0585938 31.769531 0.0585938 L 28.558594 0.0585938 C 27.890625 0.0585938 27.3125 -0.0078125 26.828125 -0.144531 C 26.339844 -0.277344 25.890625 -0.519531 25.480469 -0.875 C 25.070312 -1.226562 24.671875 -1.703125 24.292969 -2.304688 C 23.910156 -2.90625 23.480469 -3.6875 23.003906 -4.640625 L 13.777344 -21.972656 C 13.242188 -23.003906 12.699219 -24.113281 12.144531 -25.308594 C 11.59375 -26.503906 11.09375 -27.664062 10.65625 -28.789062 L 10.597656 -28.789062 C 10.675781 -27.414062 10.734375 -26.042969 10.769531 -24.679688 C 10.808594 -23.3125 10.828125 -21.90625 10.828125 -20.453125 L 10.828125 -1.058594 C 10.828125 -0.867188 10.777344 -0.695312 10.671875 -0.542969 C 10.566406 -0.390625 10.382812 -0.261719 10.125 -0.15625 C 9.867188 -0.0507812 9.519531 0.0273438 9.082031 0.0859375 C 8.640625 0.144531 8.078125 0.171875 7.390625 0.171875 C 6.722656 0.171875 6.167969 0.144531 5.730469 0.0859375 C 5.289062 0.0273438 4.945312 -0.0507812 4.699219 -0.15625 C 4.449219 -0.261719 4.277344 -0.390625 4.183594 -0.542969 C 4.085938 -0.695312 4.039062 -0.867188 4.039062 -1.058594 L 4.039062 -34.375 C 4.039062 -35.273438 4.300781 -35.945312 4.828125 -36.394531 C 5.351562 -36.84375 5.996094 -37.066406 6.761719 -37.066406 L 10.800781 -37.066406 C 11.523438 -37.066406 12.136719 -37.003906 12.632812 -36.882812 C 13.128906 -36.757812 13.574219 -36.550781 13.964844 -36.265625 C 14.355469 -35.980469 14.722656 -35.582031 15.066406 -35.078125 C 15.410156 -34.570312 15.765625 -33.945312 16.128906 -33.199219 L 23.347656 -19.652344 C 23.765625 -18.828125 24.183594 -18.023438 24.59375 -17.230469 C 25.003906 -16.4375 25.398438 -15.644531 25.78125 -14.851562 C 26.164062 -14.058594 26.535156 -13.28125 26.898438 -12.519531 C 27.261719 -11.753906 27.613281 -10.992188 27.957031 -10.226562 L 27.988281 -10.226562 C 27.929688 -11.5625 27.886719 -12.957031 27.859375 -14.410156 C 27.828125 -15.859375 27.816406 -17.246094 27.816406 -18.5625 L 27.816406 -35.949219 C 27.816406 -36.140625 27.871094 -36.3125 27.988281 -36.464844 C 28.101562 -36.617188 28.292969 -36.753906 28.558594 -36.867188 C 28.828125 -36.980469 29.179688 -37.0625 29.621094 -37.109375 C 30.058594 -37.160156 30.621094 -37.183594 31.308594 -37.183594 C 31.960938 -37.183594 32.503906 -37.160156 32.941406 -37.109375 C 33.382812 -37.0625 33.722656 -36.980469 33.960938 -36.867188 C 34.199219 -36.753906 34.367188 -36.617188 34.460938 -36.464844 C 34.554688 -36.3125 34.605469 -36.140625 34.605469 -35.949219 Z "/>
</g>
<g id="glyph-0-1">
<path d="M 25.378906 -0.886719 C 25.378906 -0.621094 25.285156 -0.410156 25.09375 -0.257812 C 24.902344 -0.105469 24.601562 0.00390625 24.191406 0.0703125 C 23.78125 0.136719 23.175781 0.171875 22.371094 0.171875 C 21.511719 0.171875 20.886719 0.136719 20.496094 0.0703125 C 20.105469 0.00390625 19.828125 -0.105469 19.664062 -0.257812 C 19.503906 -0.410156 19.421875 -0.621094 19.421875 -0.886719 L 19.421875 -2.921875 C 18.371094 -1.796875 17.171875 -0.917969 15.828125 -0.285156 C 14.480469 0.34375 12.984375 0.660156 11.34375 0.660156 C 9.988281 0.660156 8.742188 0.480469 7.605469 0.128906 C 6.46875 -0.222656 5.484375 -0.75 4.65625 -1.445312 C 3.824219 -2.144531 3.179688 -3.007812 2.722656 -4.039062 C 2.261719 -5.070312 2.035156 -6.273438 2.035156 -7.648438 C 2.035156 -9.136719 2.324219 -10.433594 2.90625 -11.53125 C 3.488281 -12.628906 4.359375 -13.535156 5.515625 -14.25 C 6.667969 -14.96875 8.105469 -15.496094 9.824219 -15.839844 C 11.542969 -16.183594 13.539062 -16.355469 15.8125 -16.355469 L 18.304688 -16.355469 L 18.304688 -17.902344 C 18.304688 -18.707031 18.222656 -19.40625 18.0625 -20.007812 C 17.898438 -20.609375 17.632812 -21.113281 17.257812 -21.511719 C 16.886719 -21.914062 16.390625 -22.210938 15.769531 -22.402344 C 15.148438 -22.59375 14.378906 -22.6875 13.464844 -22.6875 C 12.261719 -22.6875 11.1875 -22.554688 10.242188 -22.285156 C 9.296875 -22.019531 8.460938 -21.722656 7.734375 -21.398438 C 7.007812 -21.074219 6.402344 -20.777344 5.914062 -20.511719 C 5.429688 -20.242188 5.03125 -20.109375 4.726562 -20.109375 C 4.515625 -20.109375 4.332031 -20.175781 4.167969 -20.308594 C 4.003906 -20.445312 3.871094 -20.632812 3.765625 -20.882812 C 3.660156 -21.132812 3.582031 -21.4375 3.523438 -21.800781 C 3.464844 -22.164062 3.4375 -22.5625 3.4375 -23.003906 C 3.4375 -23.59375 3.484375 -24.0625 3.582031 -24.40625 C 3.675781 -24.75 3.859375 -25.058594 4.125 -25.335938 C 4.390625 -25.613281 4.859375 -25.917969 5.527344 -26.253906 C 6.195312 -26.589844 6.980469 -26.898438 7.878906 -27.183594 C 8.773438 -27.472656 9.753906 -27.707031 10.8125 -27.886719 C 11.875 -28.066406 12.96875 -28.160156 14.09375 -28.160156 C 16.097656 -28.160156 17.8125 -27.964844 19.234375 -27.570312 C 20.660156 -27.179688 21.828125 -26.578125 22.746094 -25.765625 C 23.660156 -24.957031 24.328125 -23.910156 24.75 -22.628906 C 25.171875 -21.351562 25.378906 -19.832031 25.378906 -18.074219 L 25.378906 -0.886719 M 18.304688 -11.832031 L 15.554688 -11.832031 C 14.390625 -11.832031 13.398438 -11.746094 12.574219 -11.574219 C 11.753906 -11.402344 11.085938 -11.144531 10.570312 -10.800781 C 10.054688 -10.457031 9.675781 -10.039062 9.4375 -9.554688 C 9.199219 -9.066406 9.082031 -8.507812 9.082031 -7.878906 C 9.082031 -6.808594 9.417969 -5.96875 10.097656 -5.355469 C 10.777344 -4.746094 11.714844 -4.441406 12.917969 -4.441406 C 13.929688 -4.441406 14.863281 -4.699219 15.710938 -5.214844 C 16.5625 -5.730469 17.425781 -6.484375 18.304688 -7.476562 Z "/>
</g>
<g id="glyph-0-2">
<path d="M 21.597656 -8.191406 C 21.597656 -6.742188 21.328125 -5.460938 20.78125 -4.355469 C 20.238281 -3.246094 19.46875 -2.320312 18.476562 -1.574219 C 17.484375 -0.832031 16.308594 -0.273438 14.953125 0.101562 C 13.597656 0.472656 12.125 0.660156 10.542969 0.660156 C 9.585938 0.660156 8.675781 0.585938 7.804688 0.445312 C 6.9375 0.300781 6.160156 0.121094 5.472656 -0.101562 C 4.785156 -0.320312 4.210938 -0.542969 3.753906 -0.773438 C 3.292969 -1.003906 2.960938 -1.21875 2.75 -1.417969 C 2.539062 -1.617188 2.378906 -1.933594 2.261719 -2.363281 C 2.148438 -2.792969 2.089844 -3.429688 2.089844 -4.269531 C 2.089844 -4.820312 2.109375 -5.265625 2.148438 -5.601562 C 2.1875 -5.933594 2.242188 -6.203125 2.320312 -6.402344 C 2.398438 -6.601562 2.492188 -6.738281 2.605469 -6.804688 C 2.722656 -6.871094 2.863281 -6.902344 3.035156 -6.902344 C 3.246094 -6.902344 3.558594 -6.785156 3.96875 -6.546875 C 4.378906 -6.308594 4.890625 -6.042969 5.5 -5.757812 C 6.109375 -5.472656 6.824219 -5.203125 7.632812 -4.957031 C 8.445312 -4.707031 9.367188 -4.582031 10.398438 -4.582031 C 11.046875 -4.582031 11.625 -4.648438 12.132812 -4.785156 C 12.636719 -4.917969 13.078125 -5.109375 13.449219 -5.355469 C 13.820312 -5.605469 14.101562 -5.921875 14.292969 -6.300781 C 14.484375 -6.683594 14.582031 -7.125 14.582031 -7.621094 C 14.582031 -8.191406 14.402344 -8.683594 14.050781 -9.09375 C 13.699219 -9.503906 13.230469 -9.863281 12.648438 -10.167969 C 12.066406 -10.476562 11.40625 -10.761719 10.671875 -11.027344 C 9.933594 -11.296875 9.179688 -11.59375 8.40625 -11.917969 C 7.632812 -12.242188 6.878906 -12.613281 6.144531 -13.035156 C 5.410156 -13.453125 4.75 -13.96875 4.167969 -14.582031 C 3.585938 -15.191406 3.117188 -15.925781 2.765625 -16.785156 C 2.410156 -17.644531 2.234375 -18.675781 2.234375 -19.878906 C 2.234375 -21.101562 2.472656 -22.222656 2.949219 -23.246094 C 3.429688 -24.269531 4.117188 -25.140625 5.011719 -25.867188 C 5.910156 -26.59375 7.003906 -27.15625 8.292969 -27.558594 C 9.582031 -27.957031 11.027344 -28.160156 12.632812 -28.160156 C 13.433594 -28.160156 14.214844 -28.101562 14.96875 -27.988281 C 15.722656 -27.871094 16.40625 -27.730469 17.015625 -27.558594 C 17.625 -27.386719 18.140625 -27.199219 18.5625 -27 C 18.984375 -26.796875 19.285156 -26.625 19.464844 -26.484375 C 19.644531 -26.339844 19.773438 -26.195312 19.851562 -26.054688 C 19.929688 -25.910156 19.984375 -25.738281 20.023438 -25.539062 C 20.0625 -25.335938 20.09375 -25.089844 20.125 -24.792969 C 20.152344 -24.496094 20.167969 -24.128906 20.167969 -23.691406 C 20.167969 -23.175781 20.152344 -22.753906 20.125 -22.429688 C 20.09375 -22.105469 20.046875 -21.847656 19.980469 -21.65625 C 19.914062 -21.464844 19.824219 -21.335938 19.707031 -21.269531 C 19.59375 -21.203125 19.460938 -21.167969 19.308594 -21.167969 C 19.136719 -21.167969 18.867188 -21.269531 18.503906 -21.46875 C 18.140625 -21.671875 17.6875 -21.886719 17.144531 -22.113281 C 16.601562 -22.34375 15.96875 -22.558594 15.253906 -22.757812 C 14.539062 -22.960938 13.722656 -23.058594 12.804688 -23.058594 C 12.15625 -23.058594 11.59375 -22.992188 11.113281 -22.859375 C 10.636719 -22.726562 10.246094 -22.535156 9.941406 -22.285156 C 9.632812 -22.039062 9.40625 -21.746094 9.253906 -21.414062 C 9.101562 -21.078125 9.023438 -20.71875 9.023438 -20.339844 C 9.023438 -19.746094 9.203125 -19.25 9.566406 -18.847656 C 9.929688 -18.449219 10.40625 -18.09375 11 -17.789062 C 11.59375 -17.484375 12.265625 -17.195312 13.019531 -16.929688 C 13.773438 -16.664062 14.539062 -16.371094 15.3125 -16.054688 C 16.085938 -15.742188 16.847656 -15.375 17.601562 -14.953125 C 18.355469 -14.53125 19.03125 -14.015625 19.621094 -13.40625 C 20.214844 -12.796875 20.691406 -12.066406 21.054688 -11.214844 C 21.417969 -10.363281 21.597656 -9.359375 21.597656 -8.191406 Z "/>
</g>
<g id="glyph-0-3">
<path d="M 28.015625 -0.972656 C 28.015625 -0.78125 27.957031 -0.617188 27.84375 -0.472656 C 27.730469 -0.328125 27.539062 -0.210938 27.269531 -0.113281 C 27.003906 -0.0195312 26.636719 0.0507812 26.167969 0.101562 C 25.699219 0.148438 25.121094 0.171875 24.433594 0.171875 C 23.726562 0.171875 23.140625 0.148438 22.671875 0.101562 C 22.207031 0.0507812 21.835938 -0.0195312 21.570312 -0.113281 C 21.304688 -0.210938 21.113281 -0.328125 20.996094 -0.472656 C 20.882812 -0.617188 20.824219 -0.78125 20.824219 -0.972656 L 20.824219 -15.554688 C 20.824219 -16.796875 20.734375 -17.769531 20.554688 -18.476562 C 20.371094 -19.183594 20.109375 -19.789062 19.765625 -20.296875 C 19.421875 -20.800781 18.976562 -21.191406 18.433594 -21.46875 C 17.890625 -21.746094 17.253906 -21.886719 16.527344 -21.886719 C 15.613281 -21.886719 14.6875 -21.550781 13.75 -20.882812 C 12.8125 -20.214844 11.839844 -19.242188 10.828125 -17.960938 L 10.828125 -0.972656 C 10.828125 -0.78125 10.769531 -0.617188 10.65625 -0.472656 C 10.542969 -0.328125 10.347656 -0.210938 10.070312 -0.113281 C 9.792969 -0.0195312 9.425781 0.0507812 8.964844 0.101562 C 8.507812 0.148438 7.925781 0.171875 7.21875 0.171875 C 6.511719 0.171875 5.929688 0.148438 5.472656 0.101562 C 5.011719 0.0507812 4.644531 -0.0195312 4.367188 -0.113281 C 4.089844 -0.210938 3.894531 -0.328125 3.78125 -0.472656 C 3.667969 -0.617188 3.609375 -0.78125 3.609375 -0.972656 L 3.609375 -38.644531 C 3.609375 -38.835938 3.667969 -39.007812 3.78125 -39.160156 C 3.894531 -39.3125 4.089844 -39.441406 4.367188 -39.546875 C 4.644531 -39.652344 5.011719 -39.730469 5.472656 -39.789062 C 5.929688 -39.847656 6.511719 -39.875 7.21875 -39.875 C 7.925781 -39.875 8.507812 -39.847656 8.964844 -39.789062 C 9.425781 -39.730469 9.792969 -39.652344 10.070312 -39.546875 C 10.347656 -39.441406 10.542969 -39.3125 10.65625 -39.160156 C 10.769531 -39.007812 10.828125 -38.835938 10.828125 -38.644531 L 10.828125 -24.519531 C 12.070312 -25.742188 13.335938 -26.65625 14.625 -27.257812 C 15.914062 -27.859375 17.253906 -28.160156 18.648438 -28.160156 C 20.386719 -28.160156 21.851562 -27.871094 23.046875 -27.300781 C 24.238281 -26.726562 25.203125 -25.945312 25.9375 -24.949219 C 26.675781 -23.957031 27.203125 -22.796875 27.527344 -21.46875 C 27.851562 -20.144531 28.015625 -18.535156 28.015625 -16.644531 Z "/>
</g>
<g id="glyph-0-4">
</g>
<g id="glyph-0-5">
<path d="M 26.011719 -2.949219 C 26.011719 -2.398438 25.988281 -1.933594 25.9375 -1.5625 C 25.890625 -1.1875 25.820312 -0.886719 25.722656 -0.660156 C 25.628906 -0.429688 25.507812 -0.261719 25.367188 -0.15625 C 25.222656 -0.0507812 25.066406 0 24.894531 0 L 6.273438 0 C 5.644531 0 5.113281 -0.1875 4.683594 -0.558594 C 4.253906 -0.929688 4.039062 -1.539062 4.039062 -2.378906 L 4.039062 -34.691406 C 4.039062 -35.53125 4.253906 -36.136719 4.683594 -36.507812 C 5.113281 -36.882812 5.644531 -37.066406 6.273438 -37.066406 L 24.777344 -37.066406 C 24.949219 -37.066406 25.101562 -37.019531 25.238281 -36.925781 C 25.371094 -36.828125 25.484375 -36.660156 25.582031 -36.421875 C 25.675781 -36.183594 25.746094 -35.878906 25.796875 -35.507812 C 25.84375 -35.132812 25.867188 -34.660156 25.867188 -34.089844 C 25.867188 -33.554688 25.84375 -33.101562 25.796875 -32.726562 C 25.746094 -32.355469 25.675781 -32.054688 25.582031 -31.824219 C 25.484375 -31.597656 25.371094 -31.429688 25.238281 -31.324219 C 25.101562 -31.21875 24.949219 -31.167969 24.777344 -31.167969 L 11.542969 -31.167969 L 11.542969 -22.113281 L 22.746094 -22.113281 C 22.917969 -22.113281 23.074219 -22.0625 23.21875 -21.957031 C 23.359375 -21.851562 23.480469 -21.691406 23.574219 -21.46875 C 23.671875 -21.25 23.742188 -20.953125 23.789062 -20.582031 C 23.839844 -20.210938 23.863281 -19.757812 23.863281 -19.222656 C 23.863281 -18.667969 23.839844 -18.210938 23.789062 -17.847656 C 23.742188 -17.484375 23.671875 -17.191406 23.574219 -16.972656 C 23.480469 -16.753906 23.359375 -16.59375 23.21875 -16.5 C 23.074219 -16.40625 22.917969 -16.355469 22.746094 -16.355469 L 11.542969 -16.355469 L 11.542969 -5.902344 L 24.894531 -5.902344 C 25.066406 -5.902344 25.222656 -5.847656 25.367188 -5.742188 C 25.507812 -5.636719 25.628906 -5.472656 25.722656 -5.242188 C 25.820312 -5.011719 25.890625 -4.710938 25.9375 -4.339844 C 25.988281 -3.96875 26.011719 -3.503906 26.011719 -2.949219 Z "/>
</g>
<g id="glyph-0-6">
<path d="M 27.84375 9.167969 C 27.84375 9.359375 27.785156 9.53125 27.671875 9.683594 C 27.558594 9.835938 27.367188 9.964844 27.097656 10.070312 C 26.832031 10.175781 26.46875 10.253906 26.011719 10.3125 C 25.550781 10.371094 24.96875 10.398438 24.261719 10.398438 C 23.554688 10.398438 22.972656 10.371094 22.515625 10.3125 C 22.058594 10.253906 21.691406 10.175781 21.414062 10.070312 C 21.136719 9.964844 20.945312 9.835938 20.839844 9.683594 C 20.734375 9.53125 20.683594 9.359375 20.683594 9.167969 L 20.683594 -2.980469 C 19.996094 -2.347656 19.328125 -1.800781 18.675781 -1.332031 C 18.027344 -0.863281 17.378906 -0.480469 16.730469 -0.1875 C 16.078125 0.109375 15.410156 0.324219 14.722656 0.457031 C 14.035156 0.59375 13.3125 0.660156 12.546875 0.660156 C 10.675781 0.660156 9.082031 0.28125 7.761719 -0.472656 C 6.445312 -1.226562 5.371094 -2.242188 4.539062 -3.523438 C 3.710938 -4.804688 3.101562 -6.296875 2.722656 -8.007812 C 2.339844 -9.714844 2.148438 -11.515625 2.148438 -13.40625 C 2.148438 -15.679688 2.398438 -17.722656 2.894531 -19.535156 C 3.390625 -21.351562 4.117188 -22.898438 5.070312 -24.175781 C 6.023438 -25.457031 7.199219 -26.441406 8.59375 -27.128906 C 9.988281 -27.816406 11.601562 -28.160156 13.433594 -28.160156 C 14.140625 -28.160156 14.820312 -28.085938 15.46875 -27.945312 C 16.117188 -27.800781 16.765625 -27.550781 17.417969 -27.199219 C 18.066406 -26.847656 18.738281 -26.386719 19.4375 -25.824219 C 20.132812 -25.261719 20.902344 -24.570312 21.742188 -23.746094 L 21.742188 -26.527344 C 21.742188 -26.71875 21.792969 -26.882812 21.898438 -27.027344 C 22.003906 -27.171875 22.175781 -27.289062 22.414062 -27.386719 C 22.652344 -27.480469 22.964844 -27.550781 23.347656 -27.601562 C 23.726562 -27.648438 24.226562 -27.671875 24.835938 -27.671875 C 25.410156 -27.671875 25.890625 -27.648438 26.28125 -27.601562 C 26.675781 -27.550781 26.984375 -27.480469 27.214844 -27.386719 C 27.441406 -27.289062 27.605469 -27.171875 27.699219 -27.027344 C 27.796875 -26.882812 27.84375 -26.71875 27.84375 -26.527344 L 27.84375 9.167969 M 20.683594 -18.046875 C 19.652344 -19.34375 18.664062 -20.339844 17.71875 -21.027344 C 16.773438 -21.714844 15.785156 -22.058594 14.753906 -22.058594 C 13.816406 -22.058594 13.011719 -21.824219 12.332031 -21.355469 C 11.652344 -20.886719 11.109375 -20.261719 10.699219 -19.480469 C 10.289062 -18.695312 9.984375 -17.824219 9.78125 -16.859375 C 9.582031 -15.894531 9.480469 -14.90625 9.480469 -13.894531 C 9.480469 -12.824219 9.566406 -11.777344 9.738281 -10.757812 C 9.910156 -9.734375 10.191406 -8.832031 10.585938 -8.050781 C 10.976562 -7.265625 11.496094 -6.636719 12.144531 -6.160156 C 12.796875 -5.679688 13.617188 -5.441406 14.609375 -5.441406 C 15.105469 -5.441406 15.589844 -5.515625 16.054688 -5.65625 C 16.523438 -5.800781 17 -6.035156 17.488281 -6.359375 C 17.976562 -6.683594 18.476562 -7.109375 18.992188 -7.632812 C 19.507812 -8.160156 20.070312 -8.804688 20.683594 -9.566406 Z "/>
</g>
<g id="glyph-0-7">
<path d="M 27.84375 -0.972656 C 27.84375 -0.78125 27.796875 -0.617188 27.699219 -0.472656 C 27.605469 -0.328125 27.4375 -0.210938 27.199219 -0.113281 C 26.960938 -0.0195312 26.644531 0.0507812 26.253906 0.101562 C 25.863281 0.148438 25.371094 0.171875 24.777344 0.171875 C 24.148438 0.171875 23.636719 0.148438 23.246094 0.101562 C 22.855469 0.0507812 22.542969 -0.0195312 22.316406 -0.113281 C 22.085938 -0.210938 21.921875 -0.328125 21.828125 -0.472656 C 21.734375 -0.617188 21.683594 -0.78125 21.683594 -0.972656 L 21.683594 -3.925781 C 20.273438 -2.398438 18.835938 -1.25 17.375 -0.488281 C 15.914062 0.277344 14.398438 0.660156 12.832031 0.660156 C 11.078125 0.660156 9.601562 0.371094 8.40625 -0.199219 C 7.214844 -0.773438 6.25 -1.554688 5.515625 -2.550781 C 4.777344 -3.542969 4.253906 -4.691406 3.9375 -6 C 3.625 -7.308594 3.464844 -8.9375 3.464844 -10.886719 L 3.464844 -26.527344 C 3.464844 -26.71875 3.519531 -26.882812 3.625 -27.027344 C 3.730469 -27.171875 3.917969 -27.289062 4.195312 -27.386719 C 4.472656 -27.480469 4.847656 -27.550781 5.3125 -27.601562 C 5.78125 -27.648438 6.359375 -27.671875 7.046875 -27.671875 C 7.753906 -27.671875 8.335938 -27.648438 8.792969 -27.601562 C 9.253906 -27.550781 9.621094 -27.480469 9.898438 -27.386719 C 10.175781 -27.289062 10.371094 -27.171875 10.484375 -27.027344 C 10.597656 -26.882812 10.65625 -26.71875 10.65625 -26.527344 L 10.65625 -12.089844 C 10.65625 -10.75 10.742188 -9.730469 10.914062 -9.023438 C 11.085938 -8.316406 11.347656 -7.710938 11.703125 -7.203125 C 12.054688 -6.699219 12.503906 -6.308594 13.046875 -6.03125 C 13.59375 -5.753906 14.226562 -5.613281 14.953125 -5.613281 C 15.871094 -5.613281 16.792969 -5.949219 17.71875 -6.617188 C 18.644531 -7.285156 19.632812 -8.257812 20.683594 -9.539062 L 20.683594 -26.527344 C 20.683594 -26.71875 20.734375 -26.882812 20.839844 -27.027344 C 20.945312 -27.171875 21.136719 -27.289062 21.414062 -27.386719 C 21.691406 -27.480469 22.058594 -27.550781 22.515625 -27.601562 C 22.972656 -27.648438 23.554688 -27.671875 24.261719 -27.671875 C 24.96875 -27.671875 25.550781 -27.648438 26.011719 -27.601562 C 26.46875 -27.550781 26.832031 -27.480469 27.097656 -27.386719 C 27.367188 -27.289062 27.558594 -27.171875 27.671875 -27.027344 C 27.785156 -26.882812 27.84375 -26.71875 27.84375 -26.527344 Z "/>
</g>
<g id="glyph-0-8">
<path d="M 10.828125 -0.972656 C 10.828125 -0.78125 10.769531 -0.617188 10.65625 -0.472656 C 10.542969 -0.328125 10.347656 -0.210938 10.070312 -0.113281 C 9.792969 -0.0195312 9.425781 0.0507812 8.964844 0.101562 C 8.507812 0.148438 7.925781 0.171875 7.21875 0.171875 C 6.511719 0.171875 5.929688 0.148438 5.472656 0.101562 C 5.011719 0.0507812 4.644531 -0.0195312 4.367188 -0.113281 C 4.089844 -0.210938 3.894531 -0.328125 3.78125 -0.472656 C 3.667969 -0.617188 3.609375 -0.78125 3.609375 -0.972656 L 3.609375 -26.46875 C 3.609375 -26.660156 3.667969 -26.828125 3.78125 -26.96875 C 3.894531 -27.113281 4.089844 -27.238281 4.367188 -27.34375 C 4.644531 -27.449219 5.011719 -27.527344 5.472656 -27.585938 C 5.929688 -27.644531 6.511719 -27.671875 7.21875 -27.671875 C 7.925781 -27.671875 8.507812 -27.644531 8.964844 -27.585938 C 9.425781 -27.527344 9.792969 -27.449219 10.070312 -27.34375 C 10.347656 -27.238281 10.542969 -27.113281 10.65625 -26.96875 C 10.769531 -26.828125 10.828125 -26.660156 10.828125 -26.46875 L 10.828125 -0.972656 M 11.371094 -35.175781 C 11.371094 -33.726562 11.078125 -32.722656 10.484375 -32.167969 C 9.890625 -31.617188 8.792969 -31.339844 7.191406 -31.339844 C 5.566406 -31.339844 4.472656 -31.605469 3.910156 -32.140625 C 3.347656 -32.675781 3.066406 -33.640625 3.066406 -35.035156 C 3.066406 -36.484375 3.355469 -37.492188 3.9375 -38.054688 C 4.519531 -38.621094 5.625 -38.902344 7.246094 -38.902344 C 8.851562 -38.902344 9.941406 -38.628906 10.511719 -38.085938 C 11.085938 -37.539062 11.371094 -36.570312 11.371094 -35.175781 Z "/>
</g>
<g id="glyph-0-9">
<path d="M 10.828125 -0.972656 C 10.828125 -0.78125 10.769531 -0.617188 10.65625 -0.472656 C 10.542969 -0.328125 10.347656 -0.210938 10.070312 -0.113281 C 9.792969 -0.0195312 9.425781 0.0507812 8.964844 0.101562 C 8.507812 0.148438 7.925781 0.171875 7.21875 0.171875 C 6.511719 0.171875 5.929688 0.148438 5.472656 0.101562 C 5.011719 0.0507812 4.644531 -0.0195312 4.367188 -0.113281 C 4.089844 -0.210938 3.894531 -0.328125 3.78125 -0.472656 C 3.667969 -0.617188 3.609375 -0.78125 3.609375 -0.972656 L 3.609375 -38.644531 C 3.609375 -38.835938 3.667969 -39.007812 3.78125 -39.160156 C 3.894531 -39.3125 4.089844 -39.441406 4.367188 -39.546875 C 4.644531 -39.652344 5.011719 -39.730469 5.472656 -39.789062 C 5.929688 -39.847656 6.511719 -39.875 7.21875 -39.875 C 7.925781 -39.875 8.507812 -39.847656 8.964844 -39.789062 C 9.425781 -39.730469 9.792969 -39.652344 10.070312 -39.546875 C 10.347656 -39.441406 10.542969 -39.3125 10.65625 -39.160156 C 10.769531 -39.007812 10.828125 -38.835938 10.828125 -38.644531 Z "/>
</g>
<g id="glyph-0-10">
<path d="M 29.332031 -14.09375 C 29.332031 -11.820312 29.085938 -9.777344 28.589844 -7.964844 C 28.09375 -6.148438 27.375 -4.601562 26.441406 -3.324219 C 25.503906 -2.042969 24.355469 -1.058594 22.988281 -0.371094 C 21.621094 0.316406 20.070312 0.660156 18.332031 0.660156 C 17.472656 0.660156 16.671875 0.578125 15.925781 0.414062 C 15.183594 0.253906 14.472656 -0.0078125 13.792969 -0.371094 C 13.113281 -0.734375 12.445312 -1.195312 11.789062 -1.746094 C 11.128906 -2.300781 10.457031 -2.96875 9.769531 -3.753906 L 9.769531 -0.972656 C 9.769531 -0.765625 9.714844 -0.585938 9.609375 -0.445312 C 9.503906 -0.300781 9.332031 -0.179688 9.09375 -0.0859375 C 8.855469 0.0078125 8.535156 0.078125 8.136719 0.113281 C 7.734375 0.152344 7.246094 0.171875 6.675781 0.171875 C 6.082031 0.171875 5.589844 0.152344 5.199219 0.113281 C 4.808594 0.078125 4.492188 0.0078125 4.253906 -0.0859375 C 4.015625 -0.179688 3.847656 -0.300781 3.753906 -0.445312 C 3.65625 -0.585938 3.609375 -0.765625 3.609375 -0.972656 L 3.609375 -38.644531 C 3.609375 -38.835938 3.667969 -39.007812 3.78125 -39.160156 C 3.894531 -39.3125 4.089844 -39.441406 4.367188 -39.546875 C 4.644531 -39.652344 5.011719 -39.730469 5.472656 -39.789062 C 5.929688 -39.847656 6.511719 -39.875 7.21875 -39.875 C 7.925781 -39.875 8.507812 -39.847656 8.964844 -39.789062 C 9.425781 -39.730469 9.792969 -39.652344 10.070312 -39.546875 C 10.347656 -39.441406 10.542969 -39.3125 10.65625 -39.160156 C 10.769531 -39.007812 10.828125 -38.835938 10.828125 -38.644531 L 10.828125 -24.519531 C 11.476562 -25.171875 12.125 -25.722656 12.777344 -26.183594 C 13.425781 -26.640625 14.074219 -27.019531 14.722656 -27.3125 C 15.375 -27.609375 16.042969 -27.824219 16.730469 -27.957031 C 17.417969 -28.09375 18.140625 -28.160156 18.90625 -28.160156 C 20.796875 -28.160156 22.402344 -27.78125 23.71875 -27.027344 C 25.035156 -26.273438 26.109375 -25.257812 26.941406 -23.976562 C 27.773438 -22.695312 28.378906 -21.203125 28.761719 -19.492188 C 29.140625 -17.785156 29.332031 -15.984375 29.332031 -14.09375 M 21.855469 -13.578125 C 21.855469 -14.667969 21.777344 -15.71875 21.613281 -16.730469 C 21.449219 -17.742188 21.167969 -18.640625 20.769531 -19.421875 C 20.367188 -20.203125 19.847656 -20.832031 19.207031 -21.296875 C 18.566406 -21.765625 17.761719 -22 16.785156 -22 C 16.308594 -22 15.839844 -21.933594 15.382812 -21.800781 C 14.925781 -21.664062 14.453125 -21.4375 13.964844 -21.113281 C 13.476562 -20.789062 12.976562 -20.367188 12.460938 -19.851562 C 11.945312 -19.335938 11.402344 -18.695312 10.828125 -17.933594 L 10.828125 -9.453125 C 11.839844 -8.15625 12.808594 -7.167969 13.734375 -6.488281 C 14.660156 -5.808594 15.632812 -5.472656 16.644531 -5.472656 C 17.578125 -5.472656 18.371094 -5.710938 19.019531 -6.1875 C 19.671875 -6.664062 20.210938 -7.285156 20.640625 -8.050781 C 21.070312 -8.8125 21.378906 -9.683594 21.570312 -10.65625 C 21.761719 -11.628906 21.855469 -12.605469 21.855469 -13.578125 Z "/>
</g>
<g id="glyph-0-11">
<path d="M 20.023438 -24.148438 C 20.023438 -23.460938 20.003906 -22.898438 19.964844 -22.457031 C 19.929688 -22.019531 19.871094 -21.675781 19.792969 -21.425781 C 19.71875 -21.179688 19.617188 -21.007812 19.492188 -20.910156 C 19.371094 -20.816406 19.210938 -20.769531 19.019531 -20.769531 C 18.867188 -20.769531 18.695312 -20.800781 18.503906 -20.867188 C 18.3125 -20.933594 18.097656 -21.007812 17.859375 -21.082031 C 17.621094 -21.160156 17.359375 -21.230469 17.074219 -21.296875 C 16.785156 -21.363281 16.472656 -21.398438 16.128906 -21.398438 C 15.726562 -21.398438 15.324219 -21.316406 14.925781 -21.15625 C 14.523438 -20.992188 14.109375 -20.738281 13.679688 -20.394531 C 13.25 -20.050781 12.800781 -19.59375 12.332031 -19.019531 C 11.863281 -18.449219 11.363281 -17.742188 10.828125 -16.902344 L 10.828125 -0.972656 C 10.828125 -0.78125 10.769531 -0.617188 10.65625 -0.472656 C 10.542969 -0.328125 10.347656 -0.210938 10.070312 -0.113281 C 9.792969 -0.0195312 9.425781 0.0507812 8.964844 0.101562 C 8.507812 0.148438 7.925781 0.171875 7.21875 0.171875 C 6.511719 0.171875 5.929688 0.148438 5.472656 0.101562 C 5.011719 0.0507812 4.644531 -0.0195312 4.367188 -0.113281 C 4.089844 -0.210938 3.894531 -0.328125 3.78125 -0.472656 C 3.667969 -0.617188 3.609375 -0.78125 3.609375 -0.972656 L 3.609375 -26.527344 C 3.609375 -26.71875 3.65625 -26.882812 3.753906 -27.027344 C 3.847656 -27.171875 4.019531 -27.289062 4.269531 -27.386719 C 4.515625 -27.480469 4.835938 -27.550781 5.226562 -27.601562 C 5.621094 -27.648438 6.109375 -27.671875 6.703125 -27.671875 C 7.3125 -27.671875 7.820312 -27.648438 8.222656 -27.601562 C 8.621094 -27.550781 8.933594 -27.480469 9.152344 -27.386719 C 9.371094 -27.289062 9.53125 -27.171875 9.625 -27.027344 C 9.71875 -26.882812 9.769531 -26.71875 9.769531 -26.527344 L 9.769531 -23.347656 C 10.4375 -24.300781 11.066406 -25.089844 11.660156 -25.710938 C 12.25 -26.332031 12.8125 -26.820312 13.347656 -27.183594 C 13.882812 -27.546875 14.417969 -27.800781 14.953125 -27.945312 C 15.488281 -28.085938 16.023438 -28.160156 16.558594 -28.160156 C 16.804688 -28.160156 17.074219 -28.144531 17.359375 -28.117188 C 17.644531 -28.085938 17.941406 -28.039062 18.246094 -27.972656 C 18.554688 -27.90625 18.820312 -27.828125 19.050781 -27.742188 C 19.277344 -27.65625 19.445312 -27.566406 19.550781 -27.472656 C 19.65625 -27.375 19.730469 -27.269531 19.78125 -27.15625 C 19.828125 -27.042969 19.871094 -26.882812 19.910156 -26.683594 C 19.945312 -26.484375 19.976562 -26.183594 19.996094 -25.78125 C 20.015625 -25.378906 20.023438 -24.835938 20.023438 -24.148438 Z "/>
</g>
<g id="glyph-0-12">
<path d="M 44.257812 -0.972656 C 44.257812 -0.78125 44.199219 -0.617188 44.085938 -0.472656 C 43.972656 -0.328125 43.78125 -0.210938 43.511719 -0.113281 C 43.246094 -0.0195312 42.882812 0.0507812 42.425781 0.101562 C 41.964844 0.148438 41.382812 0.171875 40.675781 0.171875 C 39.953125 0.171875 39.359375 0.148438 38.902344 0.101562 C 38.441406 0.0507812 38.074219 -0.0195312 37.796875 -0.113281 C 37.519531 -0.210938 37.332031 -0.328125 37.226562 -0.472656 C 37.121094 -0.617188 37.066406 -0.78125 37.066406 -0.972656 L 37.066406 -16.128906 C 37.066406 -16.988281 36.988281 -17.769531 36.824219 -18.476562 C 36.660156 -19.183594 36.414062 -19.789062 36.078125 -20.296875 C 35.746094 -20.800781 35.324219 -21.191406 34.820312 -21.46875 C 34.3125 -21.746094 33.707031 -21.886719 33 -21.886719 C 32.140625 -21.886719 31.273438 -21.550781 30.394531 -20.882812 C 29.515625 -20.214844 28.558594 -19.242188 27.527344 -17.960938 L 27.527344 -0.972656 C 27.527344 -0.78125 27.472656 -0.617188 27.355469 -0.472656 C 27.242188 -0.328125 27.046875 -0.210938 26.769531 -0.113281 C 26.492188 -0.0195312 26.125 0.0507812 25.667969 0.101562 C 25.207031 0.148438 24.636719 0.171875 23.949219 0.171875 C 23.242188 0.171875 22.660156 0.148438 22.199219 0.101562 C 21.742188 0.0507812 21.375 -0.0195312 21.097656 -0.113281 C 20.820312 -0.210938 20.625 -0.328125 20.511719 -0.472656 C 20.394531 -0.617188 20.339844 -0.78125 20.339844 -0.972656 L 20.339844 -16.128906 C 20.339844 -16.988281 20.257812 -17.769531 20.09375 -18.476562 C 19.933594 -19.183594 19.6875 -19.789062 19.363281 -20.296875 C 19.039062 -20.800781 18.621094 -21.191406 18.105469 -21.46875 C 17.589844 -21.746094 16.988281 -21.886719 16.300781 -21.886719 C 15.421875 -21.886719 14.542969 -21.550781 13.664062 -20.882812 C 12.785156 -20.214844 11.839844 -19.242188 10.828125 -17.960938 L 10.828125 -0.972656 C 10.828125 -0.78125 10.769531 -0.617188 10.65625 -0.472656 C 10.542969 -0.328125 10.347656 -0.210938 10.070312 -0.113281 C 9.792969 -0.0195312 9.425781 0.0507812 8.964844 0.101562 C 8.507812 0.148438 7.925781 0.171875 7.21875 0.171875 C 6.511719 0.171875 5.929688 0.148438 5.472656 0.101562 C 5.011719 0.0507812 4.644531 -0.0195312 4.367188 -0.113281 C 4.089844 -0.210938 3.894531 -0.328125 3.78125 -0.472656 C 3.667969 -0.617188 3.609375 -0.78125 3.609375 -0.972656 L 3.609375 -26.527344 C 3.609375 -26.71875 3.65625 -26.882812 3.753906 -27.027344 C 3.847656 -27.171875 4.019531 -27.289062 4.269531 -27.386719 C 4.515625 -27.480469 4.835938 -27.550781 5.226562 -27.601562 C 5.621094 -27.648438 6.109375 -27.671875 6.703125 -27.671875 C 7.3125 -27.671875 7.820312 -27.648438 8.222656 -27.601562 C 8.621094 -27.550781 8.933594 -27.480469 9.152344 -27.386719 C 9.371094 -27.289062 9.53125 -27.171875 9.625 -27.027344 C 9.71875 -26.882812 9.769531 -26.71875 9.769531 -26.527344 L 9.769531 -23.574219 C 11.179688 -25.101562 12.589844 -26.25 13.992188 -27.011719 C 15.398438 -27.777344 16.863281 -28.160156 18.390625 -28.160156 C 19.441406 -28.160156 20.386719 -28.050781 21.226562 -27.828125 C 22.066406 -27.609375 22.816406 -27.292969 23.476562 -26.882812 C 24.132812 -26.472656 24.703125 -25.980469 25.179688 -25.410156 C 25.65625 -24.835938 26.058594 -24.195312 26.382812 -23.488281 C 27.148438 -24.3125 27.894531 -25.015625 28.632812 -25.609375 C 29.367188 -26.203125 30.09375 -26.683594 30.808594 -27.054688 C 31.523438 -27.429688 32.242188 -27.707031 32.957031 -27.886719 C 33.671875 -28.066406 34.402344 -28.160156 35.148438 -28.160156 C 36.847656 -28.160156 38.28125 -27.871094 39.445312 -27.300781 C 40.609375 -26.726562 41.550781 -25.949219 42.265625 -24.964844 C 42.984375 -23.980469 43.492188 -22.832031 43.800781 -21.511719 C 44.105469 -20.195312 44.257812 -18.800781 44.257812 -17.332031 Z "/>
</g>
</g>
</defs>
<g fill="rgb(100%, 100%, 0%)" fill-opacity="1">
<use xlink:href="#glyph-0-0" x="30" y="64"/>
<use xlink:href="#glyph-0-1" x="69" y="64"/>
<use xlink:href="#glyph-0-2" x="98" y="64"/>
<use xlink:href="#glyph-0-3" x="121" y="64"/>
<use xlink:href="#glyph-0-4" x="152" y="64"/>
<use xlink:href="#glyph-0-5" x="165" y="64"/>
<use xlink:href="#glyph-0-6" x="193" y="64"/>
<use xlink:href="#glyph-0-7" x="224" y="64"/>
<use xlink:href="#glyph-0-8" x="255" y="64"/>
<use xlink:href="#glyph-0-9" x="269" y="64"/>
<use xlink:href="#glyph-0-8" x="283" y="64"/>
<use xlink:href="#glyph-0-10" x="297" y="64"/>
<use xlink:href="#glyph-0-11" x="328" y="64"/>
<use xlink:href="#glyph-0-8" x="349" y="64"/>
<use xlink:href="#glyph-0-7" x="363" y="64"/>
<use xlink:href="#glyph-0-12" x="394" y="64"/>
</g>
</svg>
