<?xml version="1.0" encoding="UTF-8"?>
<svg xmlns="http://www.w3.org/2000/svg" xmlns:xlink="http://www.w3.org/1999/xlink" width="1920" height="1080" viewBox="0 0 1920 1080">
<defs>
<g>
<g id="glyph-0-0">
<path d="M 37.773438 -25.390625 C 37.773438 -21.511719 37.46875 -17.96875 36.855469 -14.765625 C 36.242188 -11.5625 35.226562 -8.808594 33.808594 -6.503906 C 32.390625 -4.199219 30.535156 -2.414062 28.242188 -1.152344 C 25.949219 0.109375 23.125 0.742188 19.765625 0.742188 C 16.589844 0.742188 13.914062 0.175781 11.738281 -0.957031 C 9.5625 -2.089844 7.8125 -3.757812 6.484375 -5.957031 C 5.15625 -8.15625 4.210938 -10.867188 3.652344 -14.082031 C 3.09375 -17.296875 2.8125 -20.988281 2.8125 -25.15625 C 2.8125 -29.011719 3.125 -32.546875 3.75 -35.761719 C 4.375 -38.976562 5.390625 -41.738281 6.796875 -44.042969 C 8.203125 -46.347656 10.050781 -48.132812 12.34375 -49.394531 C 14.636719 -50.65625 17.449219 -51.289062 20.78125 -51.289062 C 23.984375 -51.289062 26.671875 -50.722656 28.847656 -49.589844 C 31.023438 -48.457031 32.773438 -46.789062 34.101562 -44.589844 C 35.429688 -42.390625 36.375 -39.679688 36.933594 -36.464844 C 37.492188 -33.25 37.773438 -29.558594 37.773438 -25.390625 M 30.898438 -24.921875 C 30.898438 -27.449219 30.808594 -29.714844 30.625 -31.71875 C 30.441406 -33.722656 30.175781 -35.496094 29.824219 -37.03125 C 29.472656 -38.566406 29.015625 -39.890625 28.457031 -40.996094 C 27.898438 -42.101562 27.226562 -43.015625 26.445312 -43.730469 C 25.664062 -44.445312 24.773438 -44.96875 23.769531 -45.292969 C 22.765625 -45.617188 21.640625 -45.78125 20.390625 -45.78125 C 18.175781 -45.78125 16.378906 -45.261719 15 -44.21875 C 13.621094 -43.175781 12.53125 -41.746094 11.738281 -39.921875 C 10.945312 -38.097656 10.402344 -35.964844 10.117188 -33.515625 C 9.832031 -31.066406 9.6875 -28.4375 9.6875 -25.625 C 9.6875 -21.847656 9.882812 -18.640625 10.273438 -15.996094 C 10.664062 -13.351562 11.28125 -11.199219 12.128906 -9.53125 C 12.976562 -7.863281 14.054688 -6.652344 15.371094 -5.898438 C 16.6875 -5.144531 18.28125 -4.765625 20.15625 -4.765625 C 21.613281 -4.765625 22.898438 -5 24.003906 -5.46875 C 25.109375 -5.9375 26.0625 -6.609375 26.855469 -7.480469 C 27.648438 -8.351562 28.308594 -9.402344 28.828125 -10.625 C 29.347656 -11.847656 29.765625 -13.203125 30.078125 -14.6875 C 30.390625 -16.171875 30.605469 -17.78125 30.722656 -19.511719 C 30.839844 -21.242188 30.898438 -23.046875 30.898438 -24.921875 Z "/>
</g>
</g>
</defs>
<g fill="rgb(34.509804%, 76.862745%, 86.666667%)" fill-opacity="1">
<use xlink:href="#glyph-0-0" x="30" y="80"/>
</g>
</svg>
