<?xml version="1.0" encoding="UTF-8"?>
<svg xmlns="http://www.w3.org/2000/svg" xmlns:xlink="http://www.w3.org/1999/xlink" width="1920" height="1080" viewBox="0 0 1920 1080">
<defs>
<g>
<g id="glyph-0-0">
<path d="M 2.210938 -0.179688 C 2.210938 0.0664062 2.15625 0.300781 2.042969 0.519531 C 1.933594 0.742188 1.804688 0.929688 1.660156 1.085938 C 1.511719 1.253906 1.355469 1.398438 1.191406 1.527344 C 1.027344 1.652344 0.875 1.753906 0.738281 1.824219 L 0.5 1.480469 C 0.664062 1.375 0.8125 1.273438 0.941406 1.171875 C 1.074219 1.066406 1.179688 0.964844 1.261719 0.859375 C 1.367188 0.742188 1.453125 0.609375 1.527344 0.46875 C 1.597656 0.328125 1.644531 0.167969 1.664062 -0.0117188 L 1.402344 -0.0117188 C 1.171875 -0.0117188 0.992188 -0.0703125 0.863281 -0.191406 C 0.734375 -0.3125 0.671875 -0.472656 0.671875 -0.675781 C 0.671875 -0.820312 0.726562 -0.960938 0.84375 -1.09375 C 0.960938 -1.230469 1.121094 -1.300781 1.324219 -1.300781 C 1.621094 -1.300781 1.84375 -1.199219 1.988281 -1.003906 C 2.136719 -0.804688 2.210938 -0.53125 2.210938 -0.179688 Z "/>
</g>
</g>
</defs>
<g fill="rgb(100%, 100%, 100%)" fill-opacity="1">
<use xlink:href="#glyph-0-0" x="30" y="29.679688"/>
</g>
</svg>
