<?xml version="1.0" encoding="UTF-8"?>
<svg xmlns="http://www.w3.org/2000/svg" xmlns:xlink="http://www.w3.org/1999/xlink" width="1920" height="1080" viewBox="0 0 1920 1080">
<defs>
<g>
<g id="glyph-0-0">
<path d="M 17 -16.085938 C 17 -14.945312 16.808594 -13.921875 16.4375 -13.007812 C 16.058594 -12.09375 15.523438 -11.3125 14.828125 -10.671875 C 14.128906 -10.023438 13.273438 -9.527344 12.261719 -9.175781 C 11.246094 -8.824219 10.039062 -8.648438 8.632812 -8.648438 L 6.046875 -8.648438 L 6.046875 -0.457031 C 6.046875 -0.363281 6.019531 -0.28125 5.96875 -0.210938 C 5.914062 -0.140625 5.832031 -0.0859375 5.722656 -0.0429688 C 5.609375 -0.00390625 5.457031 0.03125 5.265625 0.0625 C 5.070312 0.0898438 4.828125 0.105469 4.535156 0.105469 C 4.242188 0.105469 4 0.0898438 3.804688 0.0625 C 3.613281 0.03125 3.457031 -0.00390625 3.339844 -0.0429688 C 3.222656 -0.0859375 3.140625 -0.140625 3.09375 -0.210938 C 3.046875 -0.28125 3.023438 -0.363281 3.023438 -0.457031 L 3.023438 -21.445312 C 3.023438 -21.914062 3.148438 -22.246094 3.390625 -22.445312 C 3.640625 -22.644531 3.914062 -22.746094 4.21875 -22.746094 L 9.085938 -22.746094 C 9.578125 -22.746094 10.050781 -22.726562 10.503906 -22.683594 C 10.953125 -22.644531 11.488281 -22.554688 12.101562 -22.421875 C 12.71875 -22.285156 13.34375 -22.035156 13.984375 -21.664062 C 14.621094 -21.296875 15.164062 -20.839844 15.609375 -20.304688 C 16.054688 -19.761719 16.398438 -19.140625 16.636719 -18.429688 C 16.878906 -17.722656 17 -16.9375 17 -16.085938 M 13.816406 -15.835938 C 13.816406 -16.761719 13.644531 -17.535156 13.296875 -18.15625 C 12.953125 -18.777344 12.523438 -19.242188 12.015625 -19.546875 C 11.503906 -19.851562 10.976562 -20.042969 10.433594 -20.125 C 9.886719 -20.207031 9.355469 -20.25 8.84375 -20.25 L 6.046875 -20.25 L 6.046875 -11.125 L 8.773438 -11.125 C 9.6875 -11.125 10.445312 -11.242188 11.046875 -11.476562 C 11.652344 -11.710938 12.15625 -12.039062 12.570312 -12.453125 C 12.976562 -12.871094 13.289062 -13.367188 13.5 -13.949219 C 13.710938 -14.527344 13.816406 -15.15625 13.816406 -15.835938 Z "/>
</g>
<g id="glyph-0-1">
<path d="M 5.589844 -0.4375 C 5.589844 -0.347656 5.566406 -0.265625 5.519531 -0.203125 C 5.472656 -0.136719 5.398438 -0.0820312 5.289062 -0.0351562 C 5.1875 0.0117188 5.039062 0.046875 4.851562 0.0703125 C 4.664062 0.09375 4.421875 0.105469 4.132812 0.105469 C 3.851562 0.105469 3.613281 0.09375 3.429688 0.0703125 C 3.238281 0.046875 3.089844 0.0117188 2.980469 -0.0351562 C 2.867188 -0.0820312 2.792969 -0.136719 2.75 -0.203125 C 2.710938 -0.265625 2.6875 -0.347656 2.6875 -0.4375 L 2.6875 -23.921875 C 2.6875 -24.015625 2.710938 -24.101562 2.75 -24.171875 C 2.792969 -24.242188 2.867188 -24.296875 2.980469 -24.34375 C 3.089844 -24.390625 3.238281 -24.425781 3.429688 -24.453125 C 3.613281 -24.472656 3.851562 -24.484375 4.132812 -24.484375 C 4.421875 -24.484375 4.664062 -24.472656 4.851562 -24.453125 C 5.039062 -24.425781 5.1875 -24.390625 5.289062 -24.34375 C 5.398438 -24.296875 5.472656 -24.242188 5.519531 -24.171875 C 5.566406 -24.101562 5.589844 -24.015625 5.589844 -23.921875 Z "/>
</g>
<g id="glyph-0-2">
<path d="M 14.609375 -0.421875 C 14.605469 -0.28125 14.558594 -0.175781 14.46875 -0.105469 C 14.371094 -0.0351562 14.242188 0.015625 14.078125 0.0546875 C 13.914062 0.0859375 13.675781 0.105469 13.359375 0.105469 C 13.054688 0.105469 12.8125 0.0859375 12.628906 0.0546875 C 12.449219 0.015625 12.316406 -0.0351562 12.234375 -0.105469 C 12.152344 -0.175781 12.109375 -0.28125 12.109375 -0.421875 L 12.109375 -2.003906 C 11.417969 -1.265625 10.648438 -0.691406 9.800781 -0.28125 C 8.949219 0.128906 8.050781 0.335938 7.101562 0.335938 C 6.269531 0.335938 5.515625 0.226562 4.84375 0.0078125 C 4.167969 -0.207031 3.59375 -0.523438 3.121094 -0.929688 C 2.644531 -1.339844 2.277344 -1.84375 2.011719 -2.445312 C 1.75 -3.039062 1.617188 -3.71875 1.617188 -4.484375 C 1.617188 -5.371094 1.796875 -6.144531 2.164062 -6.804688 C 2.523438 -7.457031 3.046875 -8.003906 3.726562 -8.4375 C 4.40625 -8.871094 5.238281 -9.195312 6.222656 -9.414062 C 7.207031 -9.628906 8.3125 -9.738281 9.546875 -9.738281 L 11.726562 -9.738281 L 11.726562 -10.96875 C 11.726562 -11.578125 11.660156 -12.117188 11.53125 -12.585938 C 11.402344 -13.054688 11.195312 -13.445312 10.90625 -13.753906 C 10.621094 -14.066406 10.25 -14.300781 9.789062 -14.457031 C 9.335938 -14.617188 8.773438 -14.695312 8.101562 -14.695312 C 7.386719 -14.695312 6.746094 -14.609375 6.179688 -14.441406 C 5.609375 -14.269531 5.113281 -14.082031 4.683594 -13.878906 C 4.257812 -13.671875 3.898438 -13.484375 3.613281 -13.316406 C 3.324219 -13.144531 3.109375 -13.0625 2.96875 -13.0625 C 2.875 -13.0625 2.796875 -13.082031 2.726562 -13.132812 C 2.65625 -13.175781 2.59375 -13.246094 2.539062 -13.34375 C 2.488281 -13.433594 2.449219 -13.554688 2.425781 -13.703125 C 2.402344 -13.847656 2.390625 -14.007812 2.390625 -14.1875 C 2.390625 -14.476562 2.410156 -14.710938 2.453125 -14.878906 C 2.492188 -15.050781 2.59375 -15.210938 2.75 -15.363281 C 2.910156 -15.515625 3.179688 -15.695312 3.570312 -15.898438 C 3.953125 -16.105469 4.398438 -16.292969 4.90625 -16.460938 C 5.40625 -16.632812 5.960938 -16.773438 6.554688 -16.882812 C 7.15625 -16.996094 7.757812 -17.050781 8.367188 -17.050781 C 9.503906 -17.050781 10.46875 -16.921875 11.265625 -16.664062 C 12.0625 -16.40625 12.710938 -16.027344 13.203125 -15.53125 C 13.695312 -15.03125 14.050781 -14.414062 14.273438 -13.675781 C 14.496094 -12.9375 14.605469 -12.078125 14.609375 -11.09375 L 14.609375 -0.421875 M 11.726562 -7.648438 L 9.246094 -7.648438 C 8.449219 -7.644531 7.757812 -7.578125 7.171875 -7.445312 C 6.585938 -7.308594 6.101562 -7.109375 5.710938 -6.847656 C 5.328125 -6.582031 5.042969 -6.265625 4.859375 -5.898438 C 4.679688 -5.527344 4.585938 -5.101562 4.585938 -4.625 C 4.585938 -3.800781 4.847656 -3.148438 5.371094 -2.664062 C 5.890625 -2.175781 6.621094 -1.933594 7.558594 -1.933594 C 8.320312 -1.933594 9.027344 -2.125 9.675781 -2.515625 C 10.328125 -2.898438 11.007812 -3.492188 11.726562 -4.289062 Z "/>
</g>
<g id="glyph-0-3">
<path d="M 9.898438 0 L 7.789062 5.820312 C 7.71875 6.003906 7.539062 6.148438 7.25 6.25 C 6.964844 6.347656 6.527344 6.398438 5.941406 6.398438 C 5.636719 6.398438 5.390625 6.382812 5.203125 6.355469 C 5.015625 6.324219 4.871094 6.273438 4.773438 6.203125 C 4.671875 6.132812 4.617188 6.039062 4.605469 5.921875 C 4.59375 5.804688 4.625 5.664062 4.695312 5.5 L 6.875 0 C 6.765625 -0.046875 6.667969 -0.125 6.574219 -0.226562 C 6.480469 -0.335938 6.414062 -0.445312 6.382812 -0.5625 L 0.738281 -15.679688 C 0.644531 -15.925781 0.597656 -16.117188 0.597656 -16.257812 C 0.597656 -16.398438 0.644531 -16.511719 0.738281 -16.59375 C 0.832031 -16.675781 0.984375 -16.730469 1.195312 -16.761719 C 1.40625 -16.789062 1.6875 -16.804688 2.039062 -16.804688 C 2.390625 -16.804688 2.664062 -16.796875 2.867188 -16.777344 C 3.0625 -16.761719 3.222656 -16.726562 3.339844 -16.679688 C 3.457031 -16.632812 3.542969 -16.566406 3.59375 -16.480469 C 3.648438 -16.390625 3.703125 -16.269531 3.761719 -16.117188 L 8.28125 -3.429688 L 8.332031 -3.429688 L 12.691406 -16.1875 C 12.761719 -16.410156 12.847656 -16.554688 12.945312 -16.621094 C 13.046875 -16.683594 13.195312 -16.730469 13.394531 -16.761719 C 13.59375 -16.789062 13.878906 -16.804688 14.257812 -16.804688 C 14.582031 -16.804688 14.851562 -16.789062 15.0625 -16.761719 C 15.273438 -16.730469 15.429688 -16.675781 15.53125 -16.59375 C 15.628906 -16.511719 15.679688 -16.398438 15.679688 -16.257812 C 15.679688 -16.117188 15.644531 -15.945312 15.574219 -15.734375 Z "/>
</g>
<g id="glyph-0-4">
<path d="M 16.1875 -9.035156 C 16.1875 -8.578125 16.074219 -8.253906 15.84375 -8.058594 C 15.617188 -7.867188 15.355469 -7.769531 15.058594 -7.769531 L 4.640625 -7.769531 C 4.640625 -6.890625 4.730469 -6.101562 4.90625 -5.398438 C 5.082031 -4.695312 5.375 -4.089844 5.789062 -3.585938 C 6.199219 -3.082031 6.738281 -2.695312 7.394531 -2.425781 C 8.054688 -2.15625 8.863281 -2.023438 9.816406 -2.023438 C 10.570312 -2.023438 11.242188 -2.082031 11.828125 -2.207031 C 12.417969 -2.328125 12.929688 -2.464844 13.359375 -2.617188 C 13.789062 -2.769531 14.140625 -2.910156 14.417969 -3.03125 C 14.695312 -3.15625 14.902344 -3.21875 15.042969 -3.21875 C 15.128906 -3.21875 15.199219 -3.195312 15.265625 -3.15625 C 15.332031 -3.113281 15.378906 -3.050781 15.414062 -2.96875 C 15.449219 -2.886719 15.476562 -2.773438 15.496094 -2.628906 C 15.511719 -2.480469 15.523438 -2.304688 15.523438 -2.09375 C 15.523438 -1.9375 15.515625 -1.808594 15.503906 -1.695312 C 15.492188 -1.585938 15.476562 -1.484375 15.460938 -1.398438 C 15.441406 -1.308594 15.414062 -1.230469 15.371094 -1.160156 C 15.332031 -1.089844 15.277344 -1.023438 15.214844 -0.957031 C 15.148438 -0.894531 14.960938 -0.789062 14.640625 -0.640625 C 14.328125 -0.496094 13.914062 -0.351562 13.414062 -0.210938 C 12.90625 -0.0703125 12.324219 0.0546875 11.664062 0.167969 C 11 0.277344 10.292969 0.335938 9.546875 0.335938 C 8.242188 0.335938 7.105469 0.152344 6.125 -0.210938 C 5.148438 -0.574219 4.324219 -1.113281 3.65625 -1.828125 C 2.988281 -2.542969 2.484375 -3.4375 2.144531 -4.515625 C 1.804688 -5.59375 1.632812 -6.847656 1.632812 -8.28125 C 1.632812 -9.636719 1.8125 -10.859375 2.164062 -11.945312 C 2.515625 -13.027344 3.019531 -13.949219 3.683594 -14.703125 C 4.34375 -15.460938 5.144531 -16.039062 6.082031 -16.445312 C 7.019531 -16.847656 8.066406 -17.050781 9.226562 -17.050781 C 10.46875 -17.050781 11.527344 -16.851562 12.402344 -16.453125 C 13.273438 -16.054688 13.992188 -15.519531 14.554688 -14.84375 C 15.117188 -14.171875 15.53125 -13.378906 15.792969 -12.472656 C 16.058594 -11.5625 16.1875 -10.59375 16.1875 -9.5625 L 16.1875 -9.035156 M 13.273438 -9.898438 C 13.304688 -11.417969 12.96875 -12.613281 12.253906 -13.484375 C 11.542969 -14.347656 10.484375 -14.78125 9.078125 -14.78125 C 8.359375 -14.78125 7.730469 -14.648438 7.1875 -14.378906 C 6.644531 -14.109375 6.191406 -13.75 5.824219 -13.304688 C 5.460938 -12.859375 5.175781 -12.34375 4.976562 -11.75 C 4.777344 -11.160156 4.664062 -10.539062 4.640625 -9.898438 Z "/>
</g>
<g id="glyph-0-5">
<path d="M 11.9375 -15.222656 C 11.9375 -14.964844 11.929688 -14.75 11.917969 -14.570312 C 11.90625 -14.398438 11.882812 -14.257812 11.847656 -14.160156 C 11.8125 -14.058594 11.769531 -13.984375 11.714844 -13.929688 C 11.664062 -13.878906 11.589844 -13.851562 11.496094 -13.851562 C 11.402344 -13.851562 11.289062 -13.878906 11.152344 -13.929688 C 11.019531 -13.984375 10.867188 -14.035156 10.695312 -14.089844 C 10.527344 -14.140625 10.335938 -14.191406 10.125 -14.238281 C 9.914062 -14.285156 9.6875 -14.308594 9.4375 -14.308594 C 9.144531 -14.308594 8.859375 -14.25 8.578125 -14.132812 C 8.296875 -14.015625 8 -13.820312 7.691406 -13.554688 C 7.378906 -13.28125 7.054688 -12.925781 6.714844 -12.480469 C 6.375 -12.035156 6 -11.488281 5.589844 -10.84375 L 5.589844 -0.4375 C 5.589844 -0.347656 5.566406 -0.265625 5.519531 -0.203125 C 5.472656 -0.136719 5.398438 -0.0820312 5.289062 -0.0351562 C 5.1875 0.0117188 5.039062 0.046875 4.851562 0.0703125 C 4.664062 0.09375 4.421875 0.105469 4.132812 0.105469 C 3.851562 0.105469 3.613281 0.09375 3.429688 0.0703125 C 3.238281 0.046875 3.089844 0.0117188 2.980469 -0.0351562 C 2.867188 -0.0820312 2.792969 -0.136719 2.75 -0.203125 C 2.710938 -0.265625 2.6875 -0.347656 2.6875 -0.4375 L 2.6875 -16.257812 C 2.6875 -16.351562 2.707031 -16.433594 2.742188 -16.496094 C 2.777344 -16.5625 2.847656 -16.621094 2.953125 -16.671875 C 3.058594 -16.726562 3.191406 -16.761719 3.359375 -16.777344 C 3.519531 -16.796875 3.738281 -16.804688 4.007812 -16.804688 C 4.265625 -16.804688 4.480469 -16.796875 4.648438 -16.777344 C 4.820312 -16.761719 4.949219 -16.726562 5.046875 -16.671875 C 5.136719 -16.621094 5.207031 -16.5625 5.246094 -16.496094 C 5.289062 -16.433594 5.308594 -16.351562 5.308594 -16.257812 L 5.308594 -13.957031 C 5.742188 -14.589844 6.148438 -15.105469 6.53125 -15.503906 C 6.910156 -15.902344 7.269531 -16.214844 7.609375 -16.445312 C 7.949219 -16.671875 8.289062 -16.832031 8.621094 -16.917969 C 8.957031 -17.007812 9.292969 -17.050781 9.632812 -17.050781 C 9.785156 -17.050781 9.957031 -17.042969 10.152344 -17.023438 C 10.34375 -17.007812 10.546875 -16.972656 10.757812 -16.929688 C 10.96875 -16.878906 11.160156 -16.828125 11.328125 -16.769531 C 11.5 -16.710938 11.617188 -16.652344 11.6875 -16.59375 C 11.757812 -16.535156 11.804688 -16.480469 11.828125 -16.425781 C 11.851562 -16.375 11.875 -16.304688 11.890625 -16.226562 C 11.910156 -16.140625 11.921875 -16.023438 11.925781 -15.863281 C 11.933594 -15.707031 11.9375 -15.492188 11.9375 -15.222656 Z "/>
</g>
<g id="glyph-0-6">
</g>
<g id="glyph-0-7">
<path d="M 16.242188 -1.300781 C 16.242188 -1.089844 16.226562 -0.902344 16.199219 -0.738281 C 16.167969 -0.574219 16.128906 -0.4375 16.074219 -0.324219 C 16.023438 -0.214844 15.953125 -0.132812 15.863281 -0.078125 C 15.777344 -0.0273438 15.679688 0 15.574219 0 L 3.007812 0 C 2.839844 0 2.699219 -0.0195312 2.574219 -0.0625 C 2.453125 -0.101562 2.347656 -0.167969 2.257812 -0.265625 C 2.171875 -0.355469 2.105469 -0.492188 2.066406 -0.667969 C 2.023438 -0.84375 2.003906 -1.058594 2.003906 -1.320312 C 2.003906 -1.550781 2.011719 -1.757812 2.03125 -1.933594 C 2.050781 -2.109375 2.089844 -2.265625 2.148438 -2.398438 C 2.210938 -2.535156 2.285156 -2.667969 2.375 -2.804688 C 2.464844 -2.9375 2.582031 -3.082031 2.726562 -3.234375 L 7.273438 -7.910156 C 8.324219 -8.988281 9.167969 -9.953125 9.800781 -10.8125 C 10.4375 -11.664062 10.925781 -12.445312 11.269531 -13.148438 C 11.613281 -13.851562 11.839844 -14.488281 11.949219 -15.0625 C 12.058594 -15.636719 12.109375 -16.175781 12.109375 -16.679688 C 12.109375 -17.183594 12.027344 -17.664062 11.855469 -18.113281 C 11.6875 -18.566406 11.441406 -18.960938 11.121094 -19.300781 C 10.800781 -19.640625 10.398438 -19.910156 9.917969 -20.109375 C 9.433594 -20.308594 8.875 -20.40625 8.246094 -20.40625 C 7.511719 -20.40625 6.847656 -20.308594 6.261719 -20.109375 C 5.675781 -19.910156 5.160156 -19.691406 4.71875 -19.460938 C 4.277344 -19.222656 3.910156 -19.007812 3.613281 -18.808594 C 3.316406 -18.609375 3.097656 -18.507812 2.953125 -18.507812 C 2.867188 -18.507812 2.792969 -18.53125 2.726562 -18.578125 C 2.660156 -18.625 2.605469 -18.703125 2.5625 -18.808594 C 2.519531 -18.914062 2.484375 -19.054688 2.460938 -19.230469 C 2.4375 -19.40625 2.425781 -19.617188 2.425781 -19.863281 C 2.425781 -20.039062 2.429688 -20.191406 2.445312 -20.320312 C 2.453125 -20.449219 2.476562 -20.558594 2.503906 -20.65625 C 2.535156 -20.746094 2.570312 -20.835938 2.617188 -20.917969 C 2.664062 -21 2.757812 -21.101562 2.898438 -21.226562 C 3.039062 -21.347656 3.285156 -21.515625 3.628906 -21.726562 C 3.976562 -21.9375 4.410156 -22.144531 4.929688 -22.351562 C 5.453125 -22.554688 6.027344 -22.726562 6.652344 -22.867188 C 7.28125 -23.007812 7.9375 -23.078125 8.632812 -23.078125 C 9.730469 -23.078125 10.695312 -22.925781 11.523438 -22.613281 C 12.347656 -22.304688 13.035156 -21.878906 13.578125 -21.339844 C 14.125 -20.800781 14.53125 -20.171875 14.800781 -19.460938 C 15.070312 -18.742188 15.203125 -17.984375 15.203125 -17.171875 C 15.203125 -16.445312 15.140625 -15.722656 15.011719 -15.003906 C 14.882812 -14.28125 14.609375 -13.503906 14.195312 -12.664062 C 13.777344 -11.828125 13.175781 -10.894531 12.390625 -9.871094 C 11.605469 -8.84375 10.5625 -7.664062 9.265625 -6.328125 L 5.660156 -2.566406 L 15.554688 -2.566406 C 15.648438 -2.566406 15.742188 -2.539062 15.828125 -2.488281 C 15.917969 -2.433594 15.992188 -2.355469 16.058594 -2.25 C 16.121094 -2.144531 16.167969 -2.011719 16.199219 -1.855469 C 16.226562 -1.695312 16.242188 -1.511719 16.242188 -1.300781 Z "/>
</g>
</g>
</defs>
<g fill="rgb(100%, 100%, 100%)" fill-opacity="1">
<use xlink:href="#glyph-0-0" x="30" y="47"/>
<use xlink:href="#glyph-0-1" x="49" y="47"/>
<use xlink:href="#glyph-0-2" x="57" y="47"/>
<use xlink:href="#glyph-0-3" x="74" y="47"/>
<use xlink:href="#glyph-0-4" x="90" y="47"/>
<use xlink:href="#glyph-0-5" x="108" y="47"/>
<use xlink:href="#glyph-0-6" x="121" y="47"/>
<use xlink:href="#glyph-0-7" x="129" y="47"/>
</g>
</svg>
