<?xml version="1.0" encoding="UTF-8"?>
<svg xmlns="http://www.w3.org/2000/svg" xmlns:xlink="http://www.w3.org/1999/xlink" width="1920" height="1080" viewBox="0 0 1920 1080">
<defs>
<g>
<g id="glyph-0-0">
<path d="M 17.828125 -0.953125 C 17.910156 -0.722656 17.957031 -0.539062 17.960938 -0.398438 C 17.964844 -0.257812 17.925781 -0.152344 17.84375 -0.078125 C 17.761719 -0.00390625 17.621094 0.0429688 17.429688 0.0625 C 17.238281 0.0820312 16.980469 0.09375 16.65625 0.09375 C 16.332031 0.09375 16.074219 0.0859375 15.882812 0.0703125 C 15.691406 0.0546875 15.542969 0.0273438 15.445312 -0.0078125 C 15.347656 -0.0429688 15.273438 -0.09375 15.226562 -0.15625 C 15.179688 -0.21875 15.136719 -0.296875 15.09375 -0.390625 L 13.359375 -5.3125 L 4.953125 -5.3125 L 3.296875 -0.453125 C 3.265625 -0.359375 3.222656 -0.277344 3.171875 -0.210938 C 3.121094 -0.144531 3.042969 -0.0859375 2.945312 -0.0390625 C 2.847656 0.0078125 2.707031 0.0429688 2.523438 0.0625 C 2.339844 0.0820312 2.105469 0.09375 1.8125 0.09375 C 1.511719 0.09375 1.261719 0.0820312 1.070312 0.0546875 C 0.878906 0.0273438 0.742188 -0.0195312 0.664062 -0.09375 C 0.585938 -0.167969 0.550781 -0.273438 0.554688 -0.414062 C 0.558594 -0.554688 0.605469 -0.738281 0.6875 -0.96875 L 7.46875 -19.75 C 7.511719 -19.863281 7.566406 -19.957031 7.632812 -20.03125 C 7.699219 -20.105469 7.800781 -20.160156 7.929688 -20.203125 C 8.058594 -20.246094 8.226562 -20.273438 8.429688 -20.289062 C 8.632812 -20.304688 8.890625 -20.3125 9.203125 -20.3125 C 9.535156 -20.3125 9.8125 -20.304688 10.03125 -20.289062 C 10.25 -20.273438 10.425781 -20.246094 10.5625 -20.203125 C 10.699219 -20.160156 10.800781 -20.101562 10.875 -20.023438 C 10.949219 -19.945312 11.003906 -19.847656 11.046875 -19.734375 L 17.828125 -0.953125 M 9.125 -17.53125 L 9.109375 -17.53125 L 5.625 -7.453125 L 12.65625 -7.453125 Z "/>
</g>
<g id="glyph-0-1">
<path d="M 4.96875 -0.390625 C 4.96875 -0.308594 4.949219 -0.238281 4.90625 -0.179688 C 4.863281 -0.121094 4.796875 -0.0742188 4.703125 -0.03125 C 4.609375 0.0117188 4.480469 0.0429688 4.3125 0.0625 C 4.144531 0.0820312 3.933594 0.09375 3.671875 0.09375 C 3.421875 0.09375 3.214844 0.0820312 3.046875 0.0625 C 2.878906 0.0429688 2.746094 0.0117188 2.648438 -0.03125 C 2.550781 -0.0742188 2.480469 -0.121094 2.445312 -0.179688 C 2.410156 -0.238281 2.390625 -0.308594 2.390625 -0.390625 L 2.390625 -21.265625 C 2.390625 -21.347656 2.410156 -21.421875 2.445312 -21.484375 C 2.480469 -21.546875 2.550781 -21.597656 2.648438 -21.640625 C 2.746094 -21.683594 2.878906 -21.714844 3.046875 -21.734375 C 3.214844 -21.753906 3.421875 -21.765625 3.671875 -21.765625 C 3.933594 -21.765625 4.144531 -21.753906 4.3125 -21.734375 C 4.480469 -21.714844 4.609375 -21.683594 4.703125 -21.640625 C 4.796875 -21.597656 4.863281 -21.546875 4.90625 -21.484375 C 4.949219 -21.421875 4.96875 -21.347656 4.96875 -21.265625 Z "/>
</g>
<g id="glyph-0-2">
<path d="M 4.96875 -0.390625 C 4.96875 -0.308594 4.949219 -0.238281 4.90625 -0.179688 C 4.863281 -0.121094 4.796875 -0.0742188 4.703125 -0.03125 C 4.609375 0.0117188 4.480469 0.0429688 4.3125 0.0625 C 4.144531 0.0820312 3.933594 0.09375 3.671875 0.09375 C 3.421875 0.09375 3.214844 0.0820312 3.046875 0.0625 C 2.878906 0.0429688 2.746094 0.0117188 2.648438 -0.03125 C 2.550781 -0.0742188 2.480469 -0.121094 2.445312 -0.179688 C 2.410156 -0.238281 2.390625 -0.308594 2.390625 -0.390625 L 2.390625 -14.453125 C 2.390625 -14.527344 2.410156 -14.59375 2.445312 -14.65625 C 2.480469 -14.71875 2.550781 -14.769531 2.648438 -14.8125 C 2.746094 -14.855469 2.878906 -14.886719 3.046875 -14.90625 C 3.214844 -14.925781 3.421875 -14.9375 3.671875 -14.9375 C 3.933594 -14.9375 4.144531 -14.925781 4.3125 -14.90625 C 4.480469 -14.886719 4.609375 -14.855469 4.703125 -14.8125 C 4.796875 -14.769531 4.863281 -14.71875 4.90625 -14.65625 C 4.949219 -14.59375 4.96875 -14.527344 4.96875 -14.453125 L 4.96875 -0.390625 M 5.265625 -19.203125 C 5.265625 -18.597656 5.152344 -18.1875 4.921875 -17.96875 C 4.691406 -17.75 4.269531 -17.640625 3.65625 -17.640625 C 3.050781 -17.640625 2.636719 -17.746094 2.414062 -17.960938 C 2.191406 -18.175781 2.078125 -18.578125 2.078125 -19.171875 C 2.078125 -19.777344 2.191406 -20.1875 2.421875 -20.40625 C 2.652344 -20.625 3.074219 -20.734375 3.6875 -20.734375 C 4.292969 -20.734375 4.707031 -20.628906 4.929688 -20.414062 C 5.152344 -20.199219 5.265625 -19.796875 5.265625 -19.203125 Z "/>
</g>
<g id="glyph-0-3">
<path d="M 12.5 -2.53125 C 12.5 -2.355469 12.496094 -2.199219 12.484375 -2.070312 C 12.472656 -1.941406 12.457031 -1.832031 12.429688 -1.742188 C 12.402344 -1.652344 12.371094 -1.574219 12.335938 -1.507812 C 12.300781 -1.441406 12.214844 -1.339844 12.085938 -1.210938 C 11.957031 -1.082031 11.734375 -0.917969 11.421875 -0.726562 C 11.109375 -0.535156 10.757812 -0.363281 10.367188 -0.210938 C 9.976562 -0.0585938 9.550781 0.0625 9.09375 0.15625 C 8.636719 0.25 8.160156 0.296875 7.671875 0.296875 C 6.660156 0.296875 5.765625 0.128906 4.984375 -0.203125 C 4.203125 -0.535156 3.550781 -1.023438 3.023438 -1.664062 C 2.496094 -2.304688 2.097656 -3.089844 1.820312 -4.023438 C 1.542969 -4.957031 1.40625 -6.03125 1.40625 -7.25 C 1.40625 -8.636719 1.574219 -9.824219 1.914062 -10.820312 C 2.253906 -11.816406 2.714844 -12.628906 3.304688 -13.265625 C 3.894531 -13.902344 4.585938 -14.371094 5.382812 -14.679688 C 6.179688 -14.988281 7.042969 -15.140625 7.96875 -15.140625 C 8.417969 -15.140625 8.851562 -15.097656 9.273438 -15.015625 C 9.695312 -14.933594 10.082031 -14.824219 10.4375 -14.6875 C 10.792969 -14.550781 11.105469 -14.394531 11.382812 -14.21875 C 11.660156 -14.042969 11.859375 -13.890625 11.984375 -13.765625 C 12.109375 -13.640625 12.195312 -13.542969 12.242188 -13.46875 C 12.289062 -13.394531 12.328125 -13.308594 12.359375 -13.210938 C 12.390625 -13.113281 12.410156 -13 12.421875 -12.875 C 12.433594 -12.75 12.4375 -12.59375 12.4375 -12.40625 C 12.4375 -12 12.390625 -11.714844 12.296875 -11.554688 C 12.203125 -11.394531 12.089844 -11.3125 11.953125 -11.3125 C 11.796875 -11.3125 11.617188 -11.398438 11.414062 -11.570312 C 11.210938 -11.742188 10.953125 -11.933594 10.640625 -12.140625 C 10.328125 -12.347656 9.949219 -12.539062 9.507812 -12.710938 C 9.066406 -12.882812 8.542969 -12.96875 7.9375 -12.96875 C 6.699219 -12.96875 5.746094 -12.492188 5.085938 -11.539062 C 4.425781 -10.585938 4.09375 -9.203125 4.09375 -7.390625 C 4.09375 -6.484375 4.179688 -5.691406 4.351562 -5.007812 C 4.523438 -4.324219 4.777344 -3.753906 5.109375 -3.296875 C 5.441406 -2.839844 5.851562 -2.496094 6.335938 -2.273438 C 6.820312 -2.050781 7.375 -1.9375 8 -1.9375 C 8.59375 -1.9375 9.113281 -2.03125 9.5625 -2.21875 C 10.011719 -2.40625 10.398438 -2.613281 10.726562 -2.835938 C 11.054688 -3.058594 11.332031 -3.261719 11.554688 -3.445312 C 11.777344 -3.628906 11.953125 -3.71875 12.078125 -3.71875 C 12.152344 -3.71875 12.214844 -3.699219 12.265625 -3.65625 C 12.316406 -3.613281 12.363281 -3.542969 12.398438 -3.445312 C 12.433594 -3.347656 12.460938 -3.222656 12.476562 -3.070312 C 12.492188 -2.917969 12.5 -2.738281 12.5 -2.53125 Z "/>
</g>
<g id="glyph-0-4">
<path d="M 14.390625 -8.03125 C 14.390625 -7.625 14.289062 -7.335938 14.085938 -7.164062 C 13.878906 -6.992188 13.648438 -6.90625 13.386719 -6.90625 L 4.125 -6.90625 C 4.125 -6.125 4.203125 -5.421875 4.359375 -4.796875 C 4.515625 -4.171875 4.777344 -3.636719 5.144531 -3.1875 C 5.511719 -2.738281 5.988281 -2.394531 6.574219 -2.15625 C 7.160156 -1.917969 7.878906 -1.796875 8.726562 -1.796875 C 9.394531 -1.796875 9.992188 -1.851562 10.515625 -1.960938 C 11.039062 -2.070312 11.492188 -2.191406 11.875 -2.328125 C 12.253906 -2.464844 12.570312 -2.585938 12.816406 -2.695312 C 13.0625 -2.804688 13.246094 -2.859375 13.375 -2.859375 C 13.445312 -2.859375 13.511719 -2.839844 13.570312 -2.804688 C 13.625 -2.769531 13.671875 -2.714844 13.703125 -2.640625 C 13.734375 -2.566406 13.757812 -2.464844 13.773438 -2.335938 C 13.789062 -2.207031 13.796875 -2.046875 13.796875 -1.859375 C 13.796875 -1.722656 13.792969 -1.605469 13.78125 -1.507812 C 13.769531 -1.410156 13.757812 -1.320312 13.742188 -1.242188 C 13.726562 -1.164062 13.699219 -1.09375 13.664062 -1.03125 C 13.628906 -0.96875 13.582031 -0.910156 13.523438 -0.851562 C 13.464844 -0.792969 13.296875 -0.699219 13.015625 -0.570312 C 12.734375 -0.441406 12.371094 -0.3125 11.921875 -0.1875 C 11.472656 -0.0625 10.957031 0.0507812 10.367188 0.148438 C 9.777344 0.246094 9.152344 0.296875 8.484375 0.296875 C 7.328125 0.296875 6.316406 0.136719 5.445312 -0.1875 C 4.574219 -0.511719 3.84375 -0.988281 3.25 -1.625 C 2.65625 -2.261719 2.207031 -3.058594 1.90625 -4.015625 C 1.605469 -4.972656 1.453125 -6.089844 1.453125 -7.359375 C 1.453125 -8.566406 1.609375 -9.652344 1.921875 -10.617188 C 2.234375 -11.582031 2.683594 -12.398438 3.273438 -13.070312 C 3.863281 -13.742188 4.574219 -14.257812 5.40625 -14.617188 C 6.238281 -14.976562 7.171875 -15.15625 8.203125 -15.15625 C 9.308594 -15.15625 10.246094 -14.980469 11.023438 -14.625 C 11.800781 -14.269531 12.4375 -13.792969 12.9375 -13.195312 C 13.4375 -12.597656 13.804688 -11.894531 14.039062 -11.085938 C 14.273438 -10.277344 14.390625 -9.417969 14.390625 -8.5 L 14.390625 -8.03125 M 11.796875 -8.796875 C 11.828125 -10.152344 11.527344 -11.214844 10.894531 -11.984375 C 10.257812 -12.753906 9.316406 -13.140625 8.070312 -13.140625 C 7.433594 -13.140625 6.871094 -13.019531 6.390625 -12.78125 C 5.90625 -12.542969 5.503906 -12.222656 5.179688 -11.828125 C 4.851562 -11.433594 4.601562 -10.972656 4.421875 -10.445312 C 4.246094 -9.917969 4.144531 -9.371094 4.125 -8.796875 Z "/>
</g>
</g>
</defs>
<g fill="rgb(98.823529%, 38.431373%, 33.333333%)" fill-opacity="1">
<use xlink:href="#glyph-0-0" x="30" y="44"/>
<use xlink:href="#glyph-0-1" x="49" y="44"/>
<use xlink:href="#glyph-0-2" x="56" y="44"/>
<use xlink:href="#glyph-0-3" x="63" y="44"/>
<use xlink:href="#glyph-0-4" x="77" y="44"/>
</g>
</svg>
