<?xml version="1.0" encoding="UTF-8"?>
<svg xmlns="http://www.w3.org/2000/svg" xmlns:xlink="http://www.w3.org/1999/xlink" width="1920" height="1080" viewBox="0 0 1920 1080">
<defs>
<g>
<g id="glyph-0-0">
<path d="M 19.335938 -53.828125 C 16.863281 -48.59375 15.019531 -43.222656 13.808594 -37.714844 C 12.597656 -32.207031 11.992188 -26.667969 11.992188 -21.09375 C 11.992188 -15.496094 12.609375 -9.949219 13.847656 -4.453125 C 15.085938 1.042969 16.886719 6.433594 19.257812 11.71875 C 19.386719 12.03125 19.460938 12.296875 19.472656 12.519531 C 19.484375 12.742188 19.402344 12.921875 19.21875 13.066406 C 19.035156 13.210938 18.757812 13.3125 18.378906 13.378906 C 18 13.445312 17.488281 13.476562 16.835938 13.476562 C 16.367188 13.476562 15.964844 13.464844 15.625 13.4375 C 15.285156 13.410156 14.992188 13.359375 14.746094 13.28125 C 14.5 13.203125 14.296875 13.113281 14.140625 13.007812 C 13.984375 12.902344 13.867188 12.785156 13.789062 12.65625 C 12.382812 10 11.144531 7.3125 10.078125 4.589844 C 9.011719 1.867188 8.113281 -0.898438 7.382812 -3.710938 C 6.652344 -6.523438 6.105469 -9.367188 5.742188 -12.246094 C 5.378906 -15.125 5.195312 -18.035156 5.195312 -20.976562 C 5.195312 -23.917969 5.398438 -26.824219 5.800781 -29.6875 C 6.203125 -32.550781 6.777344 -35.398438 7.519531 -38.222656 C 8.261719 -41.046875 9.167969 -43.828125 10.234375 -46.5625 C 11.300781 -49.296875 12.5 -52.003906 13.828125 -54.6875 C 13.855469 -54.792969 13.925781 -54.882812 14.042969 -54.960938 C 14.160156 -55.039062 14.324219 -55.117188 14.53125 -55.195312 C 14.738281 -55.273438 15.027344 -55.332031 15.390625 -55.371094 C 15.753906 -55.410156 16.222656 -55.429688 16.796875 -55.429688 C 17.394531 -55.429688 17.878906 -55.390625 18.242188 -55.3125 C 18.605469 -55.234375 18.894531 -55.128906 19.101562 -55 C 19.308594 -54.871094 19.425781 -54.699219 19.453125 -54.492188 C 19.480469 -54.285156 19.441406 -54.0625 19.335938 -53.828125 Z "/>
</g>
</g>
</defs>
<g fill="rgb(100%, 100%, 100%)" fill-opacity="1">
<use xlink:href="#glyph-0-0" x="30" y="80"/>
</g>
</svg>
