<?xml version="1.0" encoding="UTF-8"?>
<svg xmlns="http://www.w3.org/2000/svg" xmlns:xlink="http://www.w3.org/1999/xlink" width="1920" height="1080" viewBox="0 0 1920 1080">
<defs>
<g>
<g id="glyph-0-0">
<path d="M 20.019531 -7.246094 C 20.019531 -6.453125 19.917969 -5.71875 19.71875 -5.046875 C 19.515625 -4.378906 19.230469 -3.777344 18.867188 -3.242188 C 18.503906 -2.707031 18.0625 -2.238281 17.546875 -1.835938 C 17.035156 -1.433594 16.453125 -1.09375 15.8125 -0.820312 C 15.164062 -0.546875 14.476562 -0.34375 13.742188 -0.203125 C 13.003906 -0.0703125 12.160156 0 11.210938 0 L 4.609375 0 C 4.308594 0 4.027344 -0.101562 3.757812 -0.304688 C 3.492188 -0.503906 3.359375 -0.859375 3.359375 -1.367188 L 3.359375 -23.90625 C 3.359375 -24.414062 3.492188 -24.769531 3.757812 -24.96875 C 4.027344 -25.171875 4.308594 -25.273438 4.609375 -25.273438 L 10.351562 -25.273438 C 11.863281 -25.273438 13.097656 -25.128906 14.0625 -24.84375 C 15.027344 -24.558594 15.828125 -24.140625 16.476562 -23.59375 C 17.117188 -23.046875 17.605469 -22.375 17.929688 -21.582031 C 18.253906 -20.789062 18.417969 -19.890625 18.417969 -18.886719 C 18.417969 -18.289062 18.347656 -17.714844 18.203125 -17.167969 C 18.058594 -16.621094 17.847656 -16.117188 17.570312 -15.65625 C 17.289062 -15.191406 16.9375 -14.777344 16.515625 -14.414062 C 16.089844 -14.050781 15.605469 -13.75 15.058594 -13.515625 C 15.75 -13.386719 16.394531 -13.148438 16.992188 -12.804688 C 17.589844 -12.457031 18.117188 -12.019531 18.5625 -11.484375 C 19.015625 -10.949219 19.367188 -10.324219 19.628906 -9.609375 C 19.890625 -8.894531 20.019531 -8.105469 20.019531 -7.246094 M 14.960938 -18.554688 C 14.960938 -19.167969 14.875 -19.71875 14.707031 -20.214844 C 14.539062 -20.710938 14.273438 -21.128906 13.910156 -21.476562 C 13.546875 -21.820312 13.070312 -22.082031 12.484375 -22.265625 C 11.902344 -22.449219 11.128906 -22.539062 10.167969 -22.539062 L 6.699219 -22.539062 L 6.699219 -14.355469 L 10.519531 -14.355469 C 11.386719 -14.355469 12.089844 -14.46875 12.621094 -14.695312 C 13.15625 -14.925781 13.597656 -15.230469 13.949219 -15.617188 C 14.296875 -16 14.554688 -16.449219 14.71875 -16.960938 C 14.878906 -17.476562 14.960938 -18.007812 14.960938 -18.554688 M 16.484375 -7.050781 C 16.484375 -7.804688 16.363281 -8.46875 16.125 -9.042969 C 15.882812 -9.617188 15.53125 -10.097656 15.070312 -10.488281 C 14.609375 -10.878906 14.03125 -11.175781 13.335938 -11.375 C 12.640625 -11.578125 11.765625 -11.679688 10.714844 -11.679688 L 6.699219 -11.679688 L 6.699219 -2.773438 L 11.570312 -2.773438 C 12.339844 -2.773438 13.007812 -2.863281 13.578125 -3.046875 C 14.152344 -3.230469 14.65625 -3.5 15.089844 -3.859375 C 15.527344 -4.214844 15.867188 -4.660156 16.113281 -5.195312 C 16.359375 -5.730469 16.484375 -6.347656 16.484375 -7.050781 Z "/>
</g>
<g id="glyph-0-1">
<path d="M 19.335938 -9.472656 C 19.335938 -8.039062 19.148438 -6.722656 18.769531 -5.515625 C 18.390625 -4.3125 17.828125 -3.273438 17.078125 -2.402344 C 16.332031 -1.53125 15.394531 -0.851562 14.265625 -0.359375 C 13.140625 0.125 11.835938 0.371094 10.351562 0.371094 C 8.90625 0.371094 7.648438 0.15625 6.570312 -0.273438 C 5.5 -0.703125 4.601562 -1.328125 3.886719 -2.148438 C 3.171875 -2.96875 2.636719 -3.964844 2.285156 -5.136719 C 1.933594 -6.308594 1.757812 -7.636719 1.757812 -9.121094 C 1.757812 -10.554688 1.945312 -11.871094 2.3125 -13.078125 C 2.6875 -14.28125 3.246094 -15.320312 3.992188 -16.191406 C 4.742188 -17.0625 5.675781 -17.742188 6.796875 -18.222656 C 7.917969 -18.703125 9.226562 -18.945312 10.722656 -18.945312 C 12.167969 -18.945312 13.429688 -18.730469 14.5 -18.300781 C 15.574219 -17.871094 16.472656 -17.246094 17.1875 -16.425781 C 17.902344 -15.605469 18.441406 -14.609375 18.796875 -13.4375 C 19.15625 -12.265625 19.335938 -10.945312 19.335938 -9.472656 M 15.996094 -9.257812 C 15.996094 -10.207031 15.90625 -11.105469 15.730469 -11.953125 C 15.550781 -12.800781 15.261719 -13.542969 14.851562 -14.179688 C 14.445312 -14.816406 13.894531 -15.320312 13.199219 -15.695312 C 12.5 -16.0625 11.632812 -16.25 10.597656 -16.25 C 9.636719 -16.25 8.8125 -16.082031 8.121094 -15.742188 C 7.433594 -15.402344 6.863281 -14.925781 6.417969 -14.304688 C 5.972656 -13.6875 5.640625 -12.957031 5.421875 -12.109375 C 5.207031 -11.261719 5.097656 -10.339844 5.097656 -9.335938 C 5.097656 -8.371094 5.1875 -7.46875 5.363281 -6.621094 C 5.542969 -5.773438 5.835938 -5.035156 6.25 -4.40625 C 6.664062 -3.773438 7.21875 -3.273438 7.914062 -2.898438 C 8.613281 -2.53125 9.480469 -2.34375 10.515625 -2.34375 C 11.464844 -2.34375 12.285156 -2.511719 12.980469 -2.851562 C 13.675781 -3.191406 14.25 -3.664062 14.695312 -4.277344 C 15.140625 -4.890625 15.46875 -5.617188 15.679688 -6.464844 C 15.890625 -7.3125 15.996094 -8.242188 15.996094 -9.257812 Z "/>
</g>
<g id="glyph-0-2">
<path d="M 19.160156 -9.511719 C 19.160156 -7.988281 18.992188 -6.617188 18.664062 -5.398438 C 18.328125 -4.183594 17.839844 -3.144531 17.195312 -2.285156 C 16.550781 -1.425781 15.761719 -0.769531 14.824219 -0.3125 C 13.886719 0.144531 12.8125 0.371094 11.601562 0.371094 C 11.042969 0.371094 10.523438 0.316406 10.046875 0.203125 C 9.574219 0.09375 9.109375 -0.0859375 8.652344 -0.332031 C 8.195312 -0.578125 7.742188 -0.890625 7.285156 -1.269531 C 6.828125 -1.648438 6.347656 -2.101562 5.839844 -2.636719 L 5.839844 -0.488281 C 5.839844 -0.382812 5.8125 -0.292969 5.761719 -0.214844 C 5.710938 -0.136719 5.625 -0.0742188 5.507812 -0.03125 C 5.390625 0.015625 5.242188 0.0507812 5.070312 0.078125 C 4.890625 0.105469 4.667969 0.117188 4.394531 0.117188 C 4.132812 0.117188 3.914062 0.105469 3.730469 0.078125 C 3.546875 0.0507812 3.398438 0.015625 3.28125 -0.03125 C 3.164062 -0.0742188 3.085938 -0.136719 3.046875 -0.214844 C 3.007812 -0.292969 2.988281 -0.382812 2.988281 -0.488281 L 2.988281 -26.582031 C 2.988281 -26.6875 3.011719 -26.777344 3.054688 -26.855469 C 3.101562 -26.933594 3.1875 -27 3.3125 -27.050781 C 3.433594 -27.101562 3.601562 -27.140625 3.808594 -27.167969 C 4.015625 -27.195312 4.277344 -27.207031 4.589844 -27.207031 C 4.914062 -27.207031 5.183594 -27.195312 5.390625 -27.167969 C 5.597656 -27.140625 5.761719 -27.101562 5.878906 -27.050781 C 5.996094 -27 6.082031 -26.933594 6.132812 -26.855469 C 6.183594 -26.777344 6.210938 -26.6875 6.210938 -26.582031 L 6.210938 -16.054688 C 6.730469 -16.589844 7.234375 -17.039062 7.726562 -17.402344 C 8.210938 -17.765625 8.691406 -18.0625 9.160156 -18.289062 C 9.628906 -18.519531 10.097656 -18.683594 10.566406 -18.789062 C 11.035156 -18.894531 11.53125 -18.945312 12.050781 -18.945312 C 13.328125 -18.945312 14.417969 -18.691406 15.320312 -18.183594 C 16.226562 -17.675781 16.960938 -16.996094 17.53125 -16.140625 C 18.09375 -15.289062 18.507812 -14.289062 18.769531 -13.144531 C 19.03125 -12 19.160156 -10.789062 19.160156 -9.511719 M 15.820312 -9.140625 C 15.820312 -10.039062 15.75 -10.910156 15.613281 -11.757812 C 15.476562 -12.605469 15.238281 -13.351562 14.898438 -14.003906 C 14.554688 -14.65625 14.105469 -15.179688 13.539062 -15.578125 C 12.976562 -15.972656 12.277344 -16.171875 11.4375 -16.171875 C 11.019531 -16.171875 10.605469 -16.113281 10.199219 -15.996094 C 9.792969 -15.878906 9.382812 -15.683594 8.960938 -15.410156 C 8.542969 -15.136719 8.105469 -14.785156 7.65625 -14.355469 C 7.203125 -13.925781 6.722656 -13.386719 6.210938 -12.734375 L 6.210938 -5.722656 C 7.101562 -4.640625 7.953125 -3.816406 8.765625 -3.25 C 9.578125 -2.6875 10.421875 -2.402344 11.300781 -2.402344 C 12.113281 -2.402344 12.808594 -2.597656 13.382812 -2.988281 C 13.960938 -3.378906 14.429688 -3.898438 14.789062 -4.539062 C 15.148438 -5.1875 15.410156 -5.90625 15.574219 -6.710938 C 15.738281 -7.507812 15.820312 -8.320312 15.820312 -9.140625 Z "/>
</g>
<g id="glyph-0-3">
<path d="M 7.753906 -15.625 C 7.753906 -15.207031 7.726562 -14.855469 7.664062 -14.570312 C 7.609375 -14.285156 7.496094 -14.054688 7.335938 -13.875 C 7.171875 -13.703125 6.960938 -13.578125 6.699219 -13.507812 C 6.4375 -13.433594 6.105469 -13.398438 5.703125 -13.398438 C 5.285156 -13.398438 4.949219 -13.433594 4.6875 -13.507812 C 4.425781 -13.578125 4.21875 -13.703125 4.0625 -13.875 C 3.90625 -14.054688 3.796875 -14.285156 3.742188 -14.570312 C 3.679688 -14.855469 3.652344 -15.207031 3.652344 -15.625 C 3.652344 -16.066406 3.679688 -16.433594 3.742188 -16.726562 C 3.796875 -17.019531 3.90625 -17.253906 4.0625 -17.429688 C 4.21875 -17.605469 4.425781 -17.730469 4.6875 -17.804688 C 4.949219 -17.875 5.285156 -17.910156 5.703125 -17.910156 C 6.105469 -17.910156 6.4375 -17.875 6.699219 -17.804688 C 6.960938 -17.730469 7.171875 -17.605469 7.335938 -17.429688 C 7.496094 -17.253906 7.609375 -17.019531 7.664062 -16.726562 C 7.726562 -16.433594 7.753906 -16.066406 7.753906 -15.625 M 7.753906 -2.070312 C 7.753906 -1.640625 7.726562 -1.28125 7.664062 -0.996094 C 7.609375 -0.710938 7.496094 -0.476562 7.335938 -0.304688 C 7.171875 -0.125 6.960938 -0.00390625 6.699219 0.0703125 C 6.4375 0.140625 6.105469 0.175781 5.703125 0.175781 C 5.285156 0.175781 4.949219 0.140625 4.6875 0.0703125 C 4.425781 -0.00390625 4.21875 -0.125 4.0625 -0.304688 C 3.90625 -0.476562 3.796875 -0.710938 3.742188 -0.996094 C 3.679688 -1.28125 3.652344 -1.640625 3.652344 -2.070312 C 3.652344 -2.5 3.679688 -2.859375 3.742188 -3.15625 C 3.796875 -3.445312 3.90625 -3.679688 4.0625 -3.847656 C 4.21875 -4.015625 4.425781 -4.140625 4.6875 -4.21875 C 4.949219 -4.296875 5.285156 -4.335938 5.703125 -4.335938 C 6.105469 -4.335938 6.4375 -4.296875 6.699219 -4.21875 C 6.960938 -4.140625 7.171875 -4.015625 7.335938 -3.847656 C 7.496094 -3.679688 7.609375 -3.445312 7.664062 -3.15625 C 7.726562 -2.859375 7.753906 -2.5 7.753906 -2.070312 Z "/>
</g>
</g>
</defs>
<g fill="rgb(34.509804%, 76.862745%, 86.666667%)" fill-opacity="1">
<use xlink:href="#glyph-0-0" x="30" y="50"/>
<use xlink:href="#glyph-0-1" x="52" y="50"/>
<use xlink:href="#glyph-0-2" x="73" y="50"/>
<use xlink:href="#glyph-0-3" x="94" y="50"/>
</g>
</svg>
