<?xml version="1.0" encoding="UTF-8"?>
<svg xmlns="http://www.w3.org/2000/svg" xmlns:xlink="http://www.w3.org/1999/xlink" width="1920" height="1080" viewBox="0 0 1920 1080">
<defs>
<g>
<g id="glyph-0-0">
<path d="M 28.074219 -10.105469 C 28.074219 -8.90625 27.90625 -7.820312 27.578125 -6.847656 C 27.25 -5.875 26.792969 -5.015625 26.210938 -4.269531 C 25.628906 -3.523438 24.933594 -2.882812 24.128906 -2.34375 C 23.320312 -1.804688 22.429688 -1.363281 21.457031 -1.015625 C 20.484375 -0.667969 19.449219 -0.414062 18.347656 -0.246094 C 17.242188 -0.0820312 16.015625 0 14.660156 0 L 5.703125 0 C 5.128906 0 4.648438 -0.167969 4.257812 -0.507812 C 3.867188 -0.847656 3.671875 -1.398438 3.671875 -2.160156 L 3.671875 -31.535156 C 3.671875 -32.300781 3.867188 -32.851562 4.257812 -33.191406 C 4.648438 -33.527344 5.128906 -33.699219 5.703125 -33.699219 L 14.167969 -33.699219 C 16.234375 -33.699219 17.980469 -33.523438 19.414062 -33.175781 C 20.847656 -32.828125 22.054688 -32.304688 23.035156 -31.601562 C 24.015625 -30.898438 24.765625 -30.007812 25.285156 -28.933594 C 25.808594 -27.855469 26.066406 -26.589844 26.066406 -25.128906 C 26.066406 -24.3125 25.964844 -23.546875 25.753906 -22.824219 C 25.546875 -22.105469 25.242188 -21.449219 24.84375 -20.859375 C 24.445312 -20.269531 23.953125 -19.75 23.371094 -19.296875 C 22.789062 -18.84375 22.125 -18.480469 21.378906 -18.203125 C 22.335938 -18.03125 23.214844 -17.726562 24.023438 -17.292969 C 24.832031 -16.859375 25.535156 -16.296875 26.132812 -15.613281 C 26.730469 -14.925781 27.203125 -14.125 27.550781 -13.203125 C 27.898438 -12.28125 28.074219 -11.25 28.074219 -10.105469 M 19.21875 -24.296875 C 19.21875 -24.972656 19.113281 -25.582031 18.90625 -26.121094 C 18.699219 -26.65625 18.386719 -27.105469 17.96875 -27.460938 C 17.550781 -27.816406 17.027344 -28.089844 16.394531 -28.28125 C 15.757812 -28.472656 14.914062 -28.566406 13.855469 -28.566406 L 10.390625 -28.566406 L 10.390625 -19.816406 L 14.21875 -19.816406 C 15.207031 -19.816406 16 -19.933594 16.589844 -20.167969 C 17.179688 -20.402344 17.667969 -20.726562 18.058594 -21.132812 C 18.449219 -21.539062 18.742188 -22.019531 18.933594 -22.566406 C 19.125 -23.113281 19.21875 -23.6875 19.21875 -24.296875 M 20.964844 -9.871094 C 20.964844 -10.652344 20.832031 -11.351562 20.574219 -11.964844 C 20.3125 -12.582031 19.929688 -13.097656 19.425781 -13.515625 C 18.921875 -13.933594 18.28125 -14.253906 17.5 -14.480469 C 16.71875 -14.703125 15.703125 -14.816406 14.453125 -14.816406 L 10.390625 -14.816406 L 10.390625 -5.234375 L 15.339844 -5.234375 C 16.292969 -5.234375 17.097656 -5.335938 17.746094 -5.535156 C 18.398438 -5.734375 18.960938 -6.027344 19.441406 -6.417969 C 19.917969 -6.808594 20.289062 -7.296875 20.558594 -7.878906 C 20.828125 -8.460938 20.964844 -9.125 20.964844 -9.871094 Z "/>
</g>
<g id="glyph-0-1">
<path d="M 26.769531 -12.734375 C 26.769531 -10.753906 26.511719 -8.949219 25.988281 -7.316406 C 25.46875 -5.6875 24.679688 -4.28125 23.621094 -3.097656 C 22.5625 -1.917969 21.234375 -1.007812 19.636719 -0.363281 C 18.039062 0.277344 16.171875 0.597656 14.035156 0.597656 C 11.96875 0.597656 10.171875 0.3125 8.644531 -0.261719 C 7.117188 -0.832031 5.851562 -1.667969 4.84375 -2.761719 C 3.835938 -3.855469 3.089844 -5.199219 2.605469 -6.796875 C 2.117188 -8.394531 1.875 -10.21875 1.875 -12.265625 C 1.875 -14.246094 2.140625 -16.054688 2.667969 -17.695312 C 3.199219 -19.335938 3.992188 -20.742188 5.050781 -21.914062 C 6.109375 -23.085938 7.433594 -23.992188 9.023438 -24.636719 C 10.613281 -25.277344 12.472656 -25.597656 14.609375 -25.597656 C 16.691406 -25.597656 18.5 -25.316406 20.027344 -24.753906 C 21.554688 -24.1875 22.816406 -23.359375 23.816406 -22.265625 C 24.8125 -21.171875 25.554688 -19.828125 26.042969 -18.230469 C 26.527344 -16.632812 26.769531 -14.800781 26.769531 -12.734375 M 20.027344 -12.472656 C 20.027344 -13.621094 19.933594 -14.675781 19.753906 -15.636719 C 19.570312 -16.601562 19.261719 -17.4375 18.828125 -18.152344 C 18.394531 -18.863281 17.816406 -19.417969 17.097656 -19.816406 C 16.375 -20.21875 15.46875 -20.417969 14.375 -20.417969 C 13.402344 -20.417969 12.550781 -20.238281 11.824219 -19.882812 C 11.09375 -19.527344 10.496094 -19.007812 10.027344 -18.320312 C 9.558594 -17.632812 9.207031 -16.808594 8.972656 -15.847656 C 8.738281 -14.882812 8.621094 -13.785156 8.621094 -12.550781 C 8.621094 -11.40625 8.714844 -10.351562 8.90625 -9.386719 C 9.097656 -8.425781 9.40625 -7.585938 9.832031 -6.875 C 10.257812 -6.164062 10.832031 -5.613281 11.5625 -5.222656 C 12.292969 -4.832031 13.195312 -4.636719 14.269531 -4.636719 C 15.261719 -4.636719 16.121094 -4.8125 16.847656 -5.167969 C 17.578125 -5.523438 18.175781 -6.042969 18.644531 -6.71875 C 19.113281 -7.394531 19.460938 -8.214844 19.6875 -9.179688 C 19.914062 -10.144531 20.027344 -11.242188 20.027344 -12.472656 Z "/>
</g>
<g id="glyph-0-2">
<path d="M 26.667969 -12.8125 C 26.667969 -10.746094 26.441406 -8.890625 25.988281 -7.238281 C 25.539062 -5.589844 24.886719 -4.183594 24.035156 -3.019531 C 23.1875 -1.859375 22.140625 -0.964844 20.898438 -0.339844 C 19.65625 0.285156 18.246094 0.597656 16.667969 0.597656 C 15.886719 0.597656 15.15625 0.523438 14.480469 0.378906 C 13.800781 0.230469 13.15625 -0.0078125 12.539062 -0.339844 C 11.921875 -0.667969 11.316406 -1.085938 10.714844 -1.589844 C 10.117188 -2.09375 9.503906 -2.699219 8.878906 -3.410156 L 8.878906 -0.886719 C 8.878906 -0.695312 8.832031 -0.535156 8.738281 -0.402344 C 8.640625 -0.273438 8.484375 -0.164062 8.269531 -0.078125 C 8.050781 0.0078125 7.761719 0.0703125 7.394531 0.105469 C 7.03125 0.140625 6.589844 0.15625 6.066406 0.15625 C 5.53125 0.15625 5.082031 0.140625 4.726562 0.105469 C 4.371094 0.0703125 4.085938 0.0078125 3.867188 -0.078125 C 3.648438 -0.164062 3.5 -0.273438 3.410156 -0.402344 C 3.324219 -0.535156 3.28125 -0.695312 3.28125 -0.886719 L 3.28125 -35.128906 C 3.28125 -35.304688 3.332031 -35.460938 3.4375 -35.597656 C 3.542969 -35.738281 3.71875 -35.855469 3.972656 -35.949219 C 4.222656 -36.046875 4.558594 -36.121094 4.972656 -36.171875 C 5.390625 -36.222656 5.921875 -36.25 6.5625 -36.25 C 7.203125 -36.25 7.734375 -36.222656 8.152344 -36.171875 C 8.566406 -36.121094 8.902344 -36.046875 9.152344 -35.949219 C 9.40625 -35.855469 9.582031 -35.738281 9.6875 -35.597656 C 9.792969 -35.460938 9.84375 -35.304688 9.84375 -35.128906 L 9.84375 -22.292969 C 10.433594 -22.882812 11.023438 -23.386719 11.613281 -23.800781 C 12.203125 -24.21875 12.796875 -24.5625 13.386719 -24.832031 C 13.976562 -25.101562 14.582031 -25.296875 15.207031 -25.417969 C 15.832031 -25.539062 16.492188 -25.597656 17.1875 -25.597656 C 18.90625 -25.597656 20.363281 -25.257812 21.5625 -24.570312 C 22.761719 -23.882812 23.738281 -22.960938 24.492188 -21.796875 C 25.246094 -20.632812 25.796875 -19.273438 26.144531 -17.722656 C 26.492188 -16.167969 26.667969 -14.53125 26.667969 -12.8125 M 19.871094 -12.34375 C 19.871094 -13.332031 19.796875 -14.289062 19.648438 -15.207031 C 19.5 -16.128906 19.246094 -16.945312 18.878906 -17.65625 C 18.515625 -18.367188 18.042969 -18.9375 17.460938 -19.363281 C 16.878906 -19.789062 16.144531 -20 15.261719 -20 C 14.828125 -20 14.402344 -19.9375 13.984375 -19.816406 C 13.566406 -19.695312 13.136719 -19.488281 12.695312 -19.191406 C 12.253906 -18.898438 11.796875 -18.515625 11.328125 -18.046875 C 10.859375 -17.578125 10.363281 -16.996094 9.84375 -16.300781 L 9.84375 -8.59375 C 10.765625 -7.414062 11.644531 -6.515625 12.488281 -5.898438 C 13.328125 -5.28125 14.210938 -4.972656 15.128906 -4.972656 C 15.980469 -4.972656 16.703125 -5.191406 17.292969 -5.625 C 17.882812 -6.058594 18.371094 -6.625 18.761719 -7.316406 C 19.152344 -8.011719 19.4375 -8.800781 19.609375 -9.6875 C 19.78125 -10.574219 19.871094 -11.457031 19.871094 -12.34375 Z "/>
</g>
</g>
</defs>
<g fill="rgb(34.509804%, 76.862745%, 86.666667%)" fill-opacity="1">
<use xlink:href="#glyph-0-0" x="30" y="60"/>
<use xlink:href="#glyph-0-1" x="60" y="60"/>
<use xlink:href="#glyph-0-2" x="89" y="60"/>
</g>
</svg>
