<?xml version="1.0" encoding="UTF-8"?>
<svg xmlns="http://www.w3.org/2000/svg" xmlns:xlink="http://www.w3.org/1999/xlink" width="1920" height="1080" viewBox="0 0 1920 1080">
<defs>
<g>
<g id="glyph-0-0">
<path d="M 4.96875 -1.730469 C 4.96875 -1.4375 4.917969 -1.179688 4.8125 -0.949219 C 4.707031 -0.722656 4.558594 -0.53125 4.363281 -0.375 C 4.164062 -0.21875 3.921875 -0.101562 3.636719 -0.0195312 C 3.347656 0.0585938 3.015625 0.0976562 2.644531 0.0976562 C 2.296875 0.0976562 1.988281 0.0625 1.714844 -0.0117188 C 1.4375 -0.0820312 1.207031 -0.191406 1.015625 -0.332031 C 0.824219 -0.476562 0.679688 -0.652344 0.578125 -0.859375 C 0.476562 -1.066406 0.425781 -1.304688 0.425781 -1.574219 C 0.425781 -1.785156 0.460938 -1.980469 0.53125 -2.15625 C 0.601562 -2.332031 0.699219 -2.496094 0.832031 -2.644531 C 0.960938 -2.796875 1.121094 -2.933594 1.3125 -3.066406 C 1.503906 -3.195312 1.71875 -3.320312 1.957031 -3.4375 C 1.75 -3.546875 1.566406 -3.660156 1.40625 -3.777344 C 1.246094 -3.898438 1.109375 -4.027344 1 -4.167969 C 0.890625 -4.308594 0.804688 -4.460938 0.746094 -4.621094 C 0.691406 -4.78125 0.660156 -4.953125 0.660156 -5.140625 C 0.660156 -5.375 0.703125 -5.597656 0.789062 -5.804688 C 0.875 -6.011719 1.003906 -6.191406 1.175781 -6.34375 C 1.347656 -6.496094 1.566406 -6.617188 1.832031 -6.707031 C 2.097656 -6.792969 2.40625 -6.839844 2.761719 -6.839844 C 3.101562 -6.839844 3.394531 -6.796875 3.644531 -6.714844 C 3.890625 -6.632812 4.097656 -6.523438 4.257812 -6.382812 C 4.417969 -6.242188 4.539062 -6.078125 4.613281 -5.886719 C 4.691406 -5.695312 4.730469 -5.488281 4.730469 -5.269531 C 4.730469 -5.09375 4.699219 -4.921875 4.644531 -4.761719 C 4.585938 -4.597656 4.5 -4.441406 4.390625 -4.296875 C 4.28125 -4.152344 4.144531 -4.015625 3.980469 -3.886719 C 3.820312 -3.761719 3.636719 -3.640625 3.425781 -3.53125 C 3.671875 -3.410156 3.894531 -3.285156 4.085938 -3.15625 C 4.277344 -3.027344 4.441406 -2.890625 4.570312 -2.742188 C 4.699219 -2.59375 4.800781 -2.4375 4.867188 -2.273438 C 4.933594 -2.109375 4.96875 -1.925781 4.96875 -1.730469 M 3.84375 -5.1875 C 3.84375 -5.332031 3.820312 -5.464844 3.769531 -5.582031 C 3.71875 -5.703125 3.644531 -5.800781 3.546875 -5.886719 C 3.449219 -5.96875 3.328125 -6.03125 3.183594 -6.074219 C 3.039062 -6.117188 2.875 -6.140625 2.691406 -6.140625 C 2.316406 -6.140625 2.035156 -6.054688 1.839844 -5.886719 C 1.648438 -5.714844 1.550781 -5.484375 1.550781 -5.1875 C 1.550781 -5.050781 1.574219 -4.925781 1.621094 -4.808594 C 1.667969 -4.695312 1.742188 -4.582031 1.839844 -4.480469 C 1.941406 -4.375 2.066406 -4.273438 2.214844 -4.175781 C 2.367188 -4.074219 2.546875 -3.972656 2.753906 -3.863281 C 3.105469 -4.046875 3.375 -4.246094 3.5625 -4.464844 C 3.75 -4.683594 3.84375 -4.921875 3.84375 -5.1875 M 4.0625 -1.636719 C 4.0625 -1.796875 4.03125 -1.941406 3.972656 -2.070312 C 3.914062 -2.199219 3.824219 -2.320312 3.707031 -2.433594 C 3.585938 -2.546875 3.4375 -2.65625 3.257812 -2.761719 C 3.078125 -2.867188 2.871094 -2.980469 2.636719 -3.09375 C 2.417969 -2.984375 2.226562 -2.878906 2.058594 -2.769531 C 1.894531 -2.664062 1.757812 -2.550781 1.652344 -2.4375 C 1.546875 -2.324219 1.46875 -2.203125 1.414062 -2.074219 C 1.359375 -1.949219 1.332031 -1.808594 1.332031 -1.65625 C 1.332031 -1.320312 1.449219 -1.058594 1.679688 -0.875 C 1.910156 -0.691406 2.253906 -0.597656 2.714844 -0.597656 C 3.15625 -0.597656 3.492188 -0.691406 3.722656 -0.878906 C 3.949219 -1.0625 4.0625 -1.316406 4.0625 -1.636719 Z "/>
</g>
</g>
</defs>
<g fill="rgb(100%, 100%, 100%)" fill-opacity="1">
<use xlink:href="#glyph-0-0" x="30" y="28"/>
</g>
</svg>
