<?xml version="1.0" encoding="UTF-8"?>
<svg xmlns="http://www.w3.org/2000/svg" xmlns:xlink="http://www.w3.org/1999/xlink" width="1920" height="1080" viewBox="0 0 1920 1080">
<defs>
<g>
<g id="glyph-0-0">
<path d="M 37.75 -2.875 C 37.75 -2.394531 37.667969 -1.96875 37.5 -1.59375 C 37.332031 -1.21875 37.109375 -0.90625 36.828125 -0.65625 C 36.546875 -0.40625 36.214844 -0.222656 35.828125 -0.109375 C 35.441406 0.00390625 35.050781 0.0625 34.65625 0.0625 L 31.15625 0.0625 C 30.425781 0.0625 29.796875 -0.0117188 29.265625 -0.15625 C 28.734375 -0.300781 28.246094 -0.566406 27.796875 -0.953125 C 27.347656 -1.339844 26.917969 -1.859375 26.5 -2.515625 C 26.082031 -3.171875 25.613281 -4.019531 25.09375 -5.0625 L 15.03125 -23.96875 C 14.449219 -25.09375 13.855469 -26.308594 13.25 -27.609375 C 12.644531 -28.910156 12.105469 -30.175781 11.625 -31.40625 L 11.5625 -31.40625 C 11.644531 -29.90625 11.707031 -28.410156 11.75 -26.921875 C 11.792969 -25.433594 11.8125 -23.894531 11.8125 -22.3125 L 11.8125 -1.15625 C 11.8125 -0.949219 11.753906 -0.761719 11.640625 -0.59375 C 11.527344 -0.425781 11.328125 -0.285156 11.046875 -0.171875 C 10.765625 -0.0585938 10.386719 0.03125 9.90625 0.09375 C 9.425781 0.15625 8.8125 0.1875 8.0625 0.1875 C 7.332031 0.1875 6.730469 0.15625 6.25 0.09375 C 5.769531 0.03125 5.394531 -0.0585938 5.125 -0.171875 C 4.855469 -0.285156 4.667969 -0.425781 4.5625 -0.59375 C 4.457031 -0.761719 4.40625 -0.949219 4.40625 -1.15625 L 4.40625 -37.5 C 4.40625 -38.480469 4.691406 -39.214844 5.265625 -39.703125 C 5.839844 -40.191406 6.542969 -40.4375 7.375 -40.4375 L 11.78125 -40.4375 C 12.574219 -40.4375 13.238281 -40.371094 13.78125 -40.234375 C 14.324219 -40.097656 14.808594 -39.875 15.234375 -39.5625 C 15.660156 -39.25 16.0625 -38.816406 16.4375 -38.265625 C 16.8125 -37.714844 17.199219 -37.03125 17.59375 -36.21875 L 25.46875 -21.4375 C 25.925781 -20.542969 26.378906 -19.660156 26.828125 -18.796875 C 27.277344 -17.933594 27.707031 -17.066406 28.125 -16.203125 C 28.542969 -15.339844 28.949219 -14.488281 29.34375 -13.65625 C 29.738281 -12.824219 30.125 -11.988281 30.5 -11.15625 L 30.53125 -11.15625 C 30.46875 -12.613281 30.421875 -14.136719 30.390625 -15.71875 C 30.359375 -17.300781 30.34375 -18.8125 30.34375 -20.25 L 30.34375 -39.21875 C 30.34375 -39.425781 30.40625 -39.613281 30.53125 -39.78125 C 30.65625 -39.949219 30.863281 -40.09375 31.15625 -40.21875 C 31.449219 -40.34375 31.832031 -40.433594 32.3125 -40.484375 C 32.792969 -40.535156 33.40625 -40.5625 34.15625 -40.5625 C 34.863281 -40.5625 35.457031 -40.535156 35.9375 -40.484375 C 36.417969 -40.433594 36.785156 -40.34375 37.046875 -40.21875 C 37.308594 -40.09375 37.488281 -39.949219 37.59375 -39.78125 C 37.699219 -39.613281 37.75 -39.425781 37.75 -39.21875 Z "/>
</g>
<g id="glyph-0-1">
<path d="M 27.6875 -0.96875 C 27.6875 -0.675781 27.582031 -0.449219 27.375 -0.28125 C 27.167969 -0.113281 26.839844 0.00390625 26.390625 0.078125 C 25.941406 0.152344 25.28125 0.1875 24.40625 0.1875 C 23.46875 0.1875 22.785156 0.152344 22.359375 0.078125 C 21.933594 0.00390625 21.628906 -0.113281 21.453125 -0.28125 C 21.277344 -0.449219 21.1875 -0.675781 21.1875 -0.96875 L 21.1875 -3.1875 C 20.042969 -1.957031 18.734375 -1 17.265625 -0.3125 C 15.796875 0.375 14.167969 0.71875 12.375 0.71875 C 10.894531 0.71875 9.535156 0.527344 8.296875 0.140625 C 7.058594 -0.246094 5.984375 -0.816406 5.078125 -1.578125 C 4.171875 -2.339844 3.46875 -3.28125 2.96875 -4.40625 C 2.46875 -5.53125 2.21875 -6.84375 2.21875 -8.34375 C 2.21875 -9.96875 2.535156 -11.378906 3.171875 -12.578125 C 3.808594 -13.777344 4.753906 -14.765625 6.015625 -15.546875 C 7.277344 -16.328125 8.84375 -16.90625 10.71875 -17.28125 C 12.59375 -17.65625 14.769531 -17.84375 17.25 -17.84375 L 19.96875 -17.84375 L 19.96875 -19.53125 C 19.96875 -20.40625 19.878906 -21.171875 19.703125 -21.828125 C 19.527344 -22.484375 19.234375 -23.03125 18.828125 -23.46875 C 18.421875 -23.90625 17.878906 -24.230469 17.203125 -24.4375 C 16.527344 -24.644531 15.6875 -24.75 14.6875 -24.75 C 13.375 -24.75 12.203125 -24.605469 11.171875 -24.3125 C 10.140625 -24.019531 9.230469 -23.699219 8.4375 -23.34375 C 7.644531 -22.988281 6.984375 -22.667969 6.453125 -22.375 C 5.921875 -22.082031 5.488281 -21.9375 5.15625 -21.9375 C 4.925781 -21.9375 4.722656 -22.011719 4.546875 -22.15625 C 4.371094 -22.300781 4.222656 -22.511719 4.109375 -22.78125 C 3.996094 -23.050781 3.90625 -23.386719 3.84375 -23.78125 C 3.78125 -24.175781 3.75 -24.613281 3.75 -25.09375 C 3.75 -25.738281 3.800781 -26.25 3.90625 -26.625 C 4.011719 -27 4.207031 -27.339844 4.5 -27.640625 C 4.792969 -27.941406 5.300781 -28.277344 6.03125 -28.640625 C 6.761719 -29.003906 7.613281 -29.34375 8.59375 -29.65625 C 9.574219 -29.96875 10.640625 -30.222656 11.796875 -30.421875 C 12.953125 -30.621094 14.144531 -30.71875 15.375 -30.71875 C 17.5625 -30.71875 19.433594 -30.503906 20.984375 -30.078125 C 22.535156 -29.652344 23.8125 -28.996094 24.8125 -28.109375 C 25.8125 -27.222656 26.542969 -26.082031 27 -24.6875 C 27.457031 -23.292969 27.6875 -21.636719 27.6875 -19.71875 L 27.6875 -0.96875 M 19.96875 -12.90625 L 16.96875 -12.90625 C 15.699219 -12.90625 14.613281 -12.8125 13.71875 -12.625 C 12.824219 -12.4375 12.09375 -12.15625 11.53125 -11.78125 C 10.96875 -11.40625 10.558594 -10.953125 10.296875 -10.421875 C 10.035156 -9.890625 9.90625 -9.28125 9.90625 -8.59375 C 9.90625 -7.425781 10.277344 -6.511719 11.015625 -5.84375 C 11.753906 -5.175781 12.78125 -4.84375 14.09375 -4.84375 C 15.199219 -4.84375 16.214844 -5.125 17.140625 -5.6875 C 18.066406 -6.25 19.011719 -7.074219 19.96875 -8.15625 Z "/>
</g>
<g id="glyph-0-2">
<path d="M 23.5625 -8.9375 C 23.5625 -7.355469 23.265625 -5.957031 22.671875 -4.75 C 22.078125 -3.542969 21.238281 -2.53125 20.15625 -1.71875 C 19.074219 -0.90625 17.792969 -0.296875 16.3125 0.109375 C 14.832031 0.515625 13.230469 0.71875 11.5 0.71875 C 10.457031 0.71875 9.464844 0.640625 8.515625 0.484375 C 7.566406 0.328125 6.71875 0.128906 5.96875 -0.109375 C 5.21875 -0.347656 4.59375 -0.59375 4.09375 -0.84375 C 3.59375 -1.09375 3.230469 -1.328125 3 -1.546875 C 2.769531 -1.765625 2.59375 -2.109375 2.46875 -2.578125 C 2.34375 -3.046875 2.28125 -3.738281 2.28125 -4.65625 C 2.28125 -5.261719 2.300781 -5.746094 2.34375 -6.109375 C 2.386719 -6.472656 2.449219 -6.765625 2.53125 -6.984375 C 2.613281 -7.203125 2.71875 -7.347656 2.84375 -7.421875 C 2.96875 -7.496094 3.125 -7.53125 3.3125 -7.53125 C 3.542969 -7.53125 3.878906 -7.402344 4.328125 -7.140625 C 4.777344 -6.878906 5.332031 -6.59375 6 -6.28125 C 6.667969 -5.96875 7.441406 -5.675781 8.328125 -5.40625 C 9.214844 -5.136719 10.21875 -5 11.34375 -5 C 12.050781 -5 12.683594 -5.074219 13.234375 -5.21875 C 13.785156 -5.363281 14.265625 -5.574219 14.671875 -5.84375 C 15.078125 -6.113281 15.386719 -6.457031 15.59375 -6.875 C 15.800781 -7.292969 15.90625 -7.769531 15.90625 -8.3125 C 15.90625 -8.9375 15.714844 -9.472656 15.328125 -9.921875 C 14.941406 -10.371094 14.433594 -10.761719 13.796875 -11.09375 C 13.160156 -11.425781 12.441406 -11.738281 11.640625 -12.03125 C 10.839844 -12.324219 10.015625 -12.644531 9.171875 -13 C 8.328125 -13.355469 7.503906 -13.761719 6.703125 -14.21875 C 5.902344 -14.675781 5.183594 -15.238281 4.546875 -15.90625 C 3.910156 -16.574219 3.402344 -17.375 3.015625 -18.3125 C 2.628906 -19.25 2.4375 -20.375 2.4375 -21.6875 C 2.4375 -23.019531 2.699219 -24.246094 3.21875 -25.359375 C 3.738281 -26.472656 4.488281 -27.425781 5.46875 -28.21875 C 6.449219 -29.011719 7.640625 -29.625 9.046875 -30.0625 C 10.453125 -30.5 12.03125 -30.71875 13.78125 -30.71875 C 14.65625 -30.71875 15.503906 -30.65625 16.328125 -30.53125 C 17.152344 -30.40625 17.894531 -30.25 18.5625 -30.0625 C 19.230469 -29.875 19.792969 -29.671875 20.25 -29.453125 C 20.707031 -29.234375 21.035156 -29.046875 21.234375 -28.890625 C 21.433594 -28.734375 21.574219 -28.578125 21.65625 -28.421875 C 21.738281 -28.265625 21.800781 -28.078125 21.84375 -27.859375 C 21.886719 -27.640625 21.921875 -27.371094 21.953125 -27.046875 C 21.984375 -26.722656 22 -26.324219 22 -25.84375 C 22 -25.28125 21.984375 -24.824219 21.953125 -24.46875 C 21.921875 -24.113281 21.871094 -23.832031 21.796875 -23.625 C 21.722656 -23.417969 21.625 -23.277344 21.5 -23.203125 C 21.375 -23.128906 21.230469 -23.09375 21.0625 -23.09375 C 20.875 -23.09375 20.582031 -23.203125 20.1875 -23.421875 C 19.792969 -23.640625 19.296875 -23.875 18.703125 -24.125 C 18.109375 -24.375 17.421875 -24.609375 16.640625 -24.828125 C 15.859375 -25.046875 14.96875 -25.15625 13.96875 -25.15625 C 13.261719 -25.15625 12.644531 -25.082031 12.125 -24.9375 C 11.605469 -24.792969 11.175781 -24.582031 10.84375 -24.3125 C 10.511719 -24.042969 10.261719 -23.722656 10.09375 -23.359375 C 9.925781 -22.996094 9.84375 -22.605469 9.84375 -22.1875 C 9.84375 -21.542969 10.042969 -21 10.4375 -20.5625 C 10.832031 -20.125 11.355469 -19.738281 12 -19.40625 C 12.644531 -19.074219 13.378906 -18.761719 14.203125 -18.46875 C 15.027344 -18.175781 15.859375 -17.859375 16.703125 -17.515625 C 17.546875 -17.171875 18.378906 -16.769531 19.203125 -16.3125 C 20.027344 -15.855469 20.761719 -15.292969 21.40625 -14.625 C 22.050781 -13.957031 22.574219 -13.160156 22.96875 -12.234375 C 23.363281 -11.308594 23.5625 -10.207031 23.5625 -8.9375 Z "/>
</g>
<g id="glyph-0-3">
<path d="M 30.5625 -1.0625 C 30.5625 -0.855469 30.5 -0.671875 30.375 -0.515625 C 30.25 -0.359375 30.042969 -0.230469 29.75 -0.125 C 29.457031 -0.0195312 29.058594 0.0585938 28.546875 0.109375 C 28.035156 0.160156 27.40625 0.1875 26.65625 0.1875 C 25.886719 0.1875 25.246094 0.160156 24.734375 0.109375 C 24.222656 0.0585938 23.824219 -0.0195312 23.53125 -0.125 C 23.238281 -0.230469 23.03125 -0.359375 22.90625 -0.515625 C 22.78125 -0.671875 22.71875 -0.855469 22.71875 -1.0625 L 22.71875 -16.96875 C 22.71875 -18.324219 22.621094 -19.386719 22.421875 -20.15625 C 22.222656 -20.925781 21.9375 -21.589844 21.5625 -22.140625 C 21.1875 -22.691406 20.703125 -23.121094 20.109375 -23.421875 C 19.515625 -23.722656 18.824219 -23.875 18.03125 -23.875 C 17.03125 -23.875 16.019531 -23.511719 15 -22.78125 C 13.980469 -22.050781 12.917969 -20.988281 11.8125 -19.59375 L 11.8125 -1.0625 C 11.8125 -0.855469 11.75 -0.671875 11.625 -0.515625 C 11.5 -0.359375 11.285156 -0.230469 10.984375 -0.125 C 10.683594 -0.0195312 10.28125 0.0585938 9.78125 0.109375 C 9.28125 0.160156 8.644531 0.1875 7.875 0.1875 C 7.105469 0.1875 6.46875 0.160156 5.96875 0.109375 C 5.46875 0.0585938 5.066406 -0.0195312 4.765625 -0.125 C 4.464844 -0.230469 4.25 -0.359375 4.125 -0.515625 C 4 -0.671875 3.9375 -0.855469 3.9375 -1.0625 L 3.9375 -42.15625 C 3.9375 -42.363281 4 -42.550781 4.125 -42.71875 C 4.25 -42.886719 4.464844 -43.027344 4.765625 -43.140625 C 5.066406 -43.253906 5.46875 -43.34375 5.96875 -43.40625 C 6.46875 -43.46875 7.105469 -43.5 7.875 -43.5 C 8.644531 -43.5 9.28125 -43.46875 9.78125 -43.40625 C 10.28125 -43.34375 10.683594 -43.253906 10.984375 -43.140625 C 11.285156 -43.027344 11.5 -42.886719 11.625 -42.71875 C 11.75 -42.550781 11.8125 -42.363281 11.8125 -42.15625 L 11.8125 -26.75 C 13.167969 -28.082031 14.546875 -29.078125 15.953125 -29.734375 C 17.359375 -30.390625 18.824219 -30.71875 20.34375 -30.71875 C 22.238281 -30.71875 23.839844 -30.40625 25.140625 -29.78125 C 26.441406 -29.15625 27.496094 -28.300781 28.296875 -27.21875 C 29.097656 -26.136719 29.675781 -24.871094 30.03125 -23.421875 C 30.386719 -21.972656 30.5625 -20.21875 30.5625 -18.15625 Z "/>
</g>
<g id="glyph-0-4">
</g>
<g id="glyph-0-5">
<path d="M 28.375 -3.21875 C 28.375 -2.613281 28.347656 -2.109375 28.296875 -1.703125 C 28.246094 -1.296875 28.167969 -0.96875 28.0625 -0.71875 C 27.957031 -0.46875 27.828125 -0.285156 27.671875 -0.171875 C 27.515625 -0.0585938 27.34375 0 27.15625 0 L 6.84375 0 C 6.15625 0 5.578125 -0.203125 5.109375 -0.609375 C 4.640625 -1.015625 4.40625 -1.675781 4.40625 -2.59375 L 4.40625 -37.84375 C 4.40625 -38.761719 4.640625 -39.421875 5.109375 -39.828125 C 5.578125 -40.234375 6.15625 -40.4375 6.84375 -40.4375 L 27.03125 -40.4375 C 27.21875 -40.4375 27.386719 -40.386719 27.53125 -40.28125 C 27.675781 -40.175781 27.800781 -39.996094 27.90625 -39.734375 C 28.011719 -39.472656 28.089844 -39.140625 28.140625 -38.734375 C 28.191406 -38.328125 28.21875 -37.8125 28.21875 -37.1875 C 28.21875 -36.605469 28.191406 -36.109375 28.140625 -35.703125 C 28.089844 -35.296875 28.011719 -34.96875 27.90625 -34.71875 C 27.800781 -34.46875 27.675781 -34.285156 27.53125 -34.171875 C 27.386719 -34.058594 27.21875 -34 27.03125 -34 L 12.59375 -34 L 12.59375 -24.125 L 24.8125 -24.125 C 25 -24.125 25.171875 -24.066406 25.328125 -23.953125 C 25.484375 -23.839844 25.613281 -23.660156 25.71875 -23.421875 C 25.824219 -23.183594 25.902344 -22.859375 25.953125 -22.453125 C 26.003906 -22.046875 26.03125 -21.550781 26.03125 -20.96875 C 26.03125 -20.363281 26.003906 -19.863281 25.953125 -19.46875 C 25.902344 -19.074219 25.824219 -18.753906 25.71875 -18.515625 C 25.613281 -18.277344 25.484375 -18.105469 25.328125 -18 C 25.171875 -17.894531 25 -17.84375 24.8125 -17.84375 L 12.59375 -17.84375 L 12.59375 -6.4375 L 27.15625 -6.4375 C 27.34375 -6.4375 27.515625 -6.378906 27.671875 -6.265625 C 27.828125 -6.152344 27.957031 -5.96875 28.0625 -5.71875 C 28.167969 -5.46875 28.246094 -5.140625 28.296875 -4.734375 C 28.347656 -4.328125 28.375 -3.824219 28.375 -3.21875 Z "/>
</g>
<g id="glyph-0-6">
<path d="M 30.375 10 C 30.375 10.207031 30.3125 10.394531 30.1875 10.5625 C 30.0625 10.730469 29.855469 10.871094 29.5625 10.984375 C 29.269531 11.097656 28.875 11.1875 28.375 11.25 C 27.875 11.3125 27.238281 11.34375 26.46875 11.34375 C 25.699219 11.34375 25.0625 11.3125 24.5625 11.25 C 24.0625 11.1875 23.660156 11.097656 23.359375 10.984375 C 23.058594 10.871094 22.847656 10.730469 22.734375 10.5625 C 22.621094 10.394531 22.5625 10.207031 22.5625 10 L 22.5625 -3.25 C 21.8125 -2.5625 21.082031 -1.964844 20.375 -1.453125 C 19.667969 -0.941406 18.957031 -0.527344 18.25 -0.203125 C 17.542969 0.121094 16.8125 0.355469 16.0625 0.5 C 15.3125 0.644531 14.519531 0.71875 13.6875 0.71875 C 11.644531 0.71875 9.90625 0.308594 8.46875 -0.515625 C 7.03125 -1.339844 5.859375 -2.449219 4.953125 -3.84375 C 4.046875 -5.238281 3.386719 -6.871094 2.96875 -8.734375 C 2.550781 -10.597656 2.34375 -12.5625 2.34375 -14.625 C 2.34375 -17.105469 2.613281 -19.332031 3.15625 -21.3125 C 3.699219 -23.292969 4.488281 -24.980469 5.53125 -26.375 C 6.574219 -27.769531 7.855469 -28.84375 9.375 -29.59375 C 10.894531 -30.34375 12.65625 -30.71875 14.65625 -30.71875 C 15.425781 -30.71875 16.167969 -30.640625 16.875 -30.484375 C 17.582031 -30.328125 18.292969 -30.058594 19 -29.671875 C 19.707031 -29.285156 20.441406 -28.785156 21.203125 -28.171875 C 21.964844 -27.558594 22.800781 -26.800781 23.71875 -25.90625 L 23.71875 -28.9375 C 23.71875 -29.144531 23.777344 -29.328125 23.890625 -29.484375 C 24.003906 -29.640625 24.191406 -29.769531 24.453125 -29.875 C 24.714844 -29.980469 25.050781 -30.058594 25.46875 -30.109375 C 25.886719 -30.160156 26.425781 -30.1875 27.09375 -30.1875 C 27.71875 -30.1875 28.246094 -30.160156 28.671875 -30.109375 C 29.097656 -30.058594 29.4375 -29.980469 29.6875 -29.875 C 29.9375 -29.769531 30.113281 -29.640625 30.21875 -29.484375 C 30.324219 -29.328125 30.375 -29.144531 30.375 -28.9375 L 30.375 10 M 22.5625 -19.6875 C 21.4375 -21.105469 20.359375 -22.1875 19.328125 -22.9375 C 18.296875 -23.6875 17.21875 -24.0625 16.09375 -24.0625 C 15.074219 -24.0625 14.191406 -23.808594 13.453125 -23.296875 C 12.714844 -22.785156 12.121094 -22.105469 11.671875 -21.25 C 11.222656 -20.394531 10.890625 -19.441406 10.671875 -18.390625 C 10.453125 -17.339844 10.34375 -16.261719 10.34375 -15.15625 C 10.34375 -13.988281 10.4375 -12.847656 10.625 -11.734375 C 10.8125 -10.621094 11.121094 -9.636719 11.546875 -8.78125 C 11.972656 -7.925781 12.542969 -7.238281 13.25 -6.71875 C 13.957031 -6.199219 14.855469 -5.9375 15.9375 -5.9375 C 16.480469 -5.9375 17.003906 -6.015625 17.515625 -6.171875 C 18.027344 -6.328125 18.546875 -6.582031 19.078125 -6.9375 C 19.609375 -7.292969 20.15625 -7.753906 20.71875 -8.328125 C 21.28125 -8.902344 21.894531 -9.605469 22.5625 -10.4375 Z "/>
</g>
<g id="glyph-0-7">
<path d="M 30.375 -1.0625 C 30.375 -0.855469 30.324219 -0.671875 30.21875 -0.515625 C 30.113281 -0.359375 29.933594 -0.230469 29.671875 -0.125 C 29.410156 -0.0195312 29.066406 0.0585938 28.640625 0.109375 C 28.214844 0.160156 27.675781 0.1875 27.03125 0.1875 C 26.34375 0.1875 25.785156 0.160156 25.359375 0.109375 C 24.933594 0.0585938 24.59375 -0.0195312 24.34375 -0.125 C 24.09375 -0.230469 23.917969 -0.359375 23.8125 -0.515625 C 23.707031 -0.671875 23.65625 -0.855469 23.65625 -1.0625 L 23.65625 -4.28125 C 22.113281 -2.613281 20.546875 -1.363281 18.953125 -0.53125 C 17.359375 0.300781 15.707031 0.71875 14 0.71875 C 12.082031 0.71875 10.472656 0.40625 9.171875 -0.21875 C 7.871094 -0.84375 6.816406 -1.699219 6.015625 -2.78125 C 5.214844 -3.863281 4.640625 -5.121094 4.296875 -6.546875 C 3.953125 -7.972656 3.78125 -9.75 3.78125 -11.875 L 3.78125 -28.9375 C 3.78125 -29.144531 3.839844 -29.328125 3.953125 -29.484375 C 4.066406 -29.640625 4.277344 -29.769531 4.578125 -29.875 C 4.878906 -29.980469 5.285156 -30.058594 5.796875 -30.109375 C 6.308594 -30.160156 6.9375 -30.1875 7.6875 -30.1875 C 8.457031 -30.1875 9.09375 -30.160156 9.59375 -30.109375 C 10.09375 -30.058594 10.496094 -29.980469 10.796875 -29.875 C 11.097656 -29.769531 11.3125 -29.640625 11.4375 -29.484375 C 11.5625 -29.328125 11.625 -29.144531 11.625 -28.9375 L 11.625 -13.1875 C 11.625 -11.730469 11.71875 -10.613281 11.90625 -9.84375 C 12.09375 -9.074219 12.378906 -8.410156 12.765625 -7.859375 C 13.152344 -7.308594 13.640625 -6.878906 14.234375 -6.578125 C 14.828125 -6.277344 15.519531 -6.125 16.3125 -6.125 C 17.3125 -6.125 18.316406 -6.488281 19.328125 -7.21875 C 20.339844 -7.949219 21.417969 -9.011719 22.5625 -10.40625 L 22.5625 -28.9375 C 22.5625 -29.144531 22.621094 -29.328125 22.734375 -29.484375 C 22.847656 -29.640625 23.058594 -29.769531 23.359375 -29.875 C 23.660156 -29.980469 24.0625 -30.058594 24.5625 -30.109375 C 25.0625 -30.160156 25.699219 -30.1875 26.46875 -30.1875 C 27.238281 -30.1875 27.875 -30.160156 28.375 -30.109375 C 28.875 -30.058594 29.269531 -29.980469 29.5625 -29.875 C 29.855469 -29.769531 30.0625 -29.640625 30.1875 -29.484375 C 30.3125 -29.328125 30.375 -29.144531 30.375 -28.9375 Z "/>
</g>
<g id="glyph-0-8">
<path d="M 11.8125 -1.0625 C 11.8125 -0.855469 11.75 -0.671875 11.625 -0.515625 C 11.5 -0.359375 11.285156 -0.230469 10.984375 -0.125 C 10.683594 -0.0195312 10.28125 0.0585938 9.78125 0.109375 C 9.28125 0.160156 8.644531 0.1875 7.875 0.1875 C 7.105469 0.1875 6.46875 0.160156 5.96875 0.109375 C 5.46875 0.0585938 5.066406 -0.0195312 4.765625 -0.125 C 4.464844 -0.230469 4.25 -0.359375 4.125 -0.515625 C 4 -0.671875 3.9375 -0.855469 3.9375 -1.0625 L 3.9375 -28.875 C 3.9375 -29.082031 4 -29.265625 4.125 -29.421875 C 4.25 -29.578125 4.464844 -29.714844 4.765625 -29.828125 C 5.066406 -29.941406 5.46875 -30.03125 5.96875 -30.09375 C 6.46875 -30.15625 7.105469 -30.1875 7.875 -30.1875 C 8.644531 -30.1875 9.28125 -30.15625 9.78125 -30.09375 C 10.28125 -30.03125 10.683594 -29.941406 10.984375 -29.828125 C 11.285156 -29.714844 11.5 -29.578125 11.625 -29.421875 C 11.75 -29.265625 11.8125 -29.082031 11.8125 -28.875 L 11.8125 -1.0625 M 12.40625 -38.375 C 12.40625 -36.792969 12.082031 -35.699219 11.4375 -35.09375 C 10.792969 -34.488281 9.59375 -34.1875 7.84375 -34.1875 C 6.074219 -34.1875 4.878906 -34.480469 4.265625 -35.0625 C 3.652344 -35.644531 3.34375 -36.699219 3.34375 -38.21875 C 3.34375 -39.800781 3.660156 -40.902344 4.296875 -41.515625 C 4.933594 -42.128906 6.136719 -42.4375 7.90625 -42.4375 C 9.65625 -42.4375 10.84375 -42.140625 11.46875 -41.546875 C 12.09375 -40.953125 12.40625 -39.894531 12.40625 -38.375 Z "/>
</g>
<g id="glyph-0-9">
<path d="M 11.8125 -1.0625 C 11.8125 -0.855469 11.75 -0.671875 11.625 -0.515625 C 11.5 -0.359375 11.285156 -0.230469 10.984375 -0.125 C 10.683594 -0.0195312 10.28125 0.0585938 9.78125 0.109375 C 9.28125 0.160156 8.644531 0.1875 7.875 0.1875 C 7.105469 0.1875 6.46875 0.160156 5.96875 0.109375 C 5.46875 0.0585938 5.066406 -0.0195312 4.765625 -0.125 C 4.464844 -0.230469 4.25 -0.359375 4.125 -0.515625 C 4 -0.671875 3.9375 -0.855469 3.9375 -1.0625 L 3.9375 -42.15625 C 3.9375 -42.363281 4 -42.550781 4.125 -42.71875 C 4.25 -42.886719 4.464844 -43.027344 4.765625 -43.140625 C 5.066406 -43.253906 5.46875 -43.34375 5.96875 -43.40625 C 6.46875 -43.46875 7.105469 -43.5 7.875 -43.5 C 8.644531 -43.5 9.28125 -43.46875 9.78125 -43.40625 C 10.28125 -43.34375 10.683594 -43.253906 10.984375 -43.140625 C 11.285156 -43.027344 11.5 -42.886719 11.625 -42.71875 C 11.75 -42.550781 11.8125 -42.363281 11.8125 -42.15625 Z "/>
</g>
<g id="glyph-0-10">
<path d="M 32 -15.375 C 32 -12.894531 31.730469 -10.667969 31.1875 -8.6875 C 30.644531 -6.707031 29.863281 -5.019531 28.84375 -3.625 C 27.824219 -2.230469 26.566406 -1.15625 25.078125 -0.40625 C 23.589844 0.34375 21.894531 0.71875 20 0.71875 C 19.0625 0.71875 18.1875 0.628906 17.375 0.453125 C 16.5625 0.277344 15.785156 -0.0117188 15.046875 -0.40625 C 14.308594 -0.800781 13.578125 -1.300781 12.859375 -1.90625 C 12.140625 -2.511719 11.40625 -3.238281 10.65625 -4.09375 L 10.65625 -1.0625 C 10.65625 -0.832031 10.597656 -0.640625 10.484375 -0.484375 C 10.371094 -0.328125 10.183594 -0.199219 9.921875 -0.09375 C 9.660156 0.0117188 9.3125 0.0820312 8.875 0.125 C 8.4375 0.167969 7.90625 0.1875 7.28125 0.1875 C 6.636719 0.1875 6.097656 0.167969 5.671875 0.125 C 5.246094 0.0820312 4.902344 0.0117188 4.640625 -0.09375 C 4.378906 -0.199219 4.199219 -0.328125 4.09375 -0.484375 C 3.988281 -0.640625 3.9375 -0.832031 3.9375 -1.0625 L 3.9375 -42.15625 C 3.9375 -42.363281 4 -42.550781 4.125 -42.71875 C 4.25 -42.886719 4.464844 -43.027344 4.765625 -43.140625 C 5.066406 -43.253906 5.46875 -43.34375 5.96875 -43.40625 C 6.46875 -43.46875 7.105469 -43.5 7.875 -43.5 C 8.644531 -43.5 9.28125 -43.46875 9.78125 -43.40625 C 10.28125 -43.34375 10.683594 -43.253906 10.984375 -43.140625 C 11.285156 -43.027344 11.5 -42.886719 11.625 -42.71875 C 11.75 -42.550781 11.8125 -42.363281 11.8125 -42.15625 L 11.8125 -26.75 C 12.519531 -27.457031 13.230469 -28.0625 13.9375 -28.5625 C 14.644531 -29.0625 15.355469 -29.472656 16.0625 -29.796875 C 16.769531 -30.121094 17.5 -30.355469 18.25 -30.5 C 19 -30.644531 19.792969 -30.71875 20.625 -30.71875 C 22.6875 -30.71875 24.4375 -30.308594 25.875 -29.484375 C 27.3125 -28.660156 28.484375 -27.550781 29.390625 -26.15625 C 30.296875 -24.761719 30.957031 -23.128906 31.375 -21.265625 C 31.792969 -19.402344 32 -17.4375 32 -15.375 M 23.84375 -14.8125 C 23.84375 -16 23.753906 -17.144531 23.578125 -18.25 C 23.402344 -19.355469 23.09375 -20.332031 22.65625 -21.1875 C 22.21875 -22.042969 21.652344 -22.722656 20.953125 -23.234375 C 20.253906 -23.746094 19.375 -24 18.3125 -24 C 17.792969 -24 17.28125 -23.925781 16.78125 -23.78125 C 16.28125 -23.636719 15.765625 -23.386719 15.234375 -23.03125 C 14.703125 -22.675781 14.15625 -22.21875 13.59375 -21.65625 C 13.03125 -21.09375 12.4375 -20.394531 11.8125 -19.5625 L 11.8125 -10.3125 C 12.917969 -8.894531 13.972656 -7.816406 14.984375 -7.078125 C 15.996094 -6.339844 17.050781 -5.96875 18.15625 -5.96875 C 19.175781 -5.96875 20.042969 -6.230469 20.75 -6.75 C 21.457031 -7.269531 22.046875 -7.949219 22.515625 -8.78125 C 22.984375 -9.613281 23.324219 -10.5625 23.53125 -11.625 C 23.738281 -12.6875 23.84375 -13.75 23.84375 -14.8125 Z "/>
</g>
<g id="glyph-0-11">
<path d="M 21.84375 -26.34375 C 21.84375 -25.59375 21.824219 -24.980469 21.78125 -24.5 C 21.738281 -24.019531 21.675781 -23.644531 21.59375 -23.375 C 21.511719 -23.105469 21.402344 -22.917969 21.265625 -22.8125 C 21.128906 -22.707031 20.957031 -22.65625 20.75 -22.65625 C 20.582031 -22.65625 20.394531 -22.691406 20.1875 -22.765625 C 19.980469 -22.839844 19.746094 -22.917969 19.484375 -23 C 19.222656 -23.082031 18.9375 -23.160156 18.625 -23.234375 C 18.3125 -23.308594 17.96875 -23.34375 17.59375 -23.34375 C 17.15625 -23.34375 16.71875 -23.253906 16.28125 -23.078125 C 15.84375 -22.902344 15.390625 -22.625 14.921875 -22.25 C 14.453125 -21.875 13.964844 -21.375 13.453125 -20.75 C 12.941406 -20.125 12.394531 -19.355469 11.8125 -18.4375 L 11.8125 -1.0625 C 11.8125 -0.855469 11.75 -0.671875 11.625 -0.515625 C 11.5 -0.359375 11.285156 -0.230469 10.984375 -0.125 C 10.683594 -0.0195312 10.28125 0.0585938 9.78125 0.109375 C 9.28125 0.160156 8.644531 0.1875 7.875 0.1875 C 7.105469 0.1875 6.46875 0.160156 5.96875 0.109375 C 5.46875 0.0585938 5.066406 -0.0195312 4.765625 -0.125 C 4.464844 -0.230469 4.25 -0.359375 4.125 -0.515625 C 4 -0.671875 3.9375 -0.855469 3.9375 -1.0625 L 3.9375 -28.9375 C 3.9375 -29.144531 3.988281 -29.328125 4.09375 -29.484375 C 4.199219 -29.640625 4.386719 -29.769531 4.65625 -29.875 C 4.925781 -29.980469 5.277344 -30.058594 5.703125 -30.109375 C 6.128906 -30.160156 6.667969 -30.1875 7.3125 -30.1875 C 7.980469 -30.1875 8.53125 -30.160156 8.96875 -30.109375 C 9.40625 -30.058594 9.746094 -29.980469 9.984375 -29.875 C 10.222656 -29.769531 10.394531 -29.640625 10.5 -29.484375 C 10.605469 -29.328125 10.65625 -29.144531 10.65625 -28.9375 L 10.65625 -25.46875 C 11.386719 -26.511719 12.074219 -27.371094 12.71875 -28.046875 C 13.363281 -28.722656 13.980469 -29.261719 14.5625 -29.65625 C 15.144531 -30.050781 15.730469 -30.328125 16.3125 -30.484375 C 16.894531 -30.640625 17.480469 -30.71875 18.0625 -30.71875 C 18.332031 -30.71875 18.625 -30.703125 18.9375 -30.671875 C 19.25 -30.640625 19.574219 -30.589844 19.90625 -30.515625 C 20.238281 -30.441406 20.53125 -30.359375 20.78125 -30.265625 C 21.03125 -30.171875 21.214844 -30.074219 21.328125 -29.96875 C 21.441406 -29.863281 21.527344 -29.75 21.578125 -29.625 C 21.628906 -29.5 21.675781 -29.328125 21.71875 -29.109375 C 21.761719 -28.890625 21.792969 -28.5625 21.8125 -28.125 C 21.832031 -27.6875 21.84375 -27.09375 21.84375 -26.34375 Z "/>
</g>
<g id="glyph-0-12">
<path d="M 48.28125 -1.0625 C 48.28125 -0.855469 48.21875 -0.671875 48.09375 -0.515625 C 47.96875 -0.359375 47.761719 -0.230469 47.46875 -0.125 C 47.175781 -0.0195312 46.78125 0.0585938 46.28125 0.109375 C 45.78125 0.160156 45.144531 0.1875 44.375 0.1875 C 43.582031 0.1875 42.9375 0.160156 42.4375 0.109375 C 41.9375 0.0585938 41.535156 -0.0195312 41.234375 -0.125 C 40.933594 -0.230469 40.722656 -0.359375 40.609375 -0.515625 C 40.496094 -0.671875 40.4375 -0.855469 40.4375 -1.0625 L 40.4375 -17.59375 C 40.4375 -18.53125 40.347656 -19.386719 40.171875 -20.15625 C 39.996094 -20.925781 39.722656 -21.589844 39.359375 -22.140625 C 38.996094 -22.691406 38.535156 -23.121094 37.984375 -23.421875 C 37.433594 -23.722656 36.769531 -23.875 36 -23.875 C 35.0625 -23.875 34.113281 -23.511719 33.15625 -22.78125 C 32.199219 -22.050781 31.15625 -20.988281 30.03125 -19.59375 L 30.03125 -1.0625 C 30.03125 -0.855469 29.96875 -0.671875 29.84375 -0.515625 C 29.71875 -0.359375 29.503906 -0.230469 29.203125 -0.125 C 28.902344 -0.0195312 28.5 0.0585938 28 0.109375 C 27.5 0.160156 26.875 0.1875 26.125 0.1875 C 25.355469 0.1875 24.71875 0.160156 24.21875 0.109375 C 23.71875 0.0585938 23.316406 -0.0195312 23.015625 -0.125 C 22.714844 -0.230469 22.5 -0.359375 22.375 -0.515625 C 22.25 -0.671875 22.1875 -0.855469 22.1875 -1.0625 L 22.1875 -17.59375 C 22.1875 -18.53125 22.097656 -19.386719 21.921875 -20.15625 C 21.746094 -20.925781 21.480469 -21.589844 21.125 -22.140625 C 20.769531 -22.691406 20.3125 -23.121094 19.75 -23.421875 C 19.1875 -23.722656 18.53125 -23.875 17.78125 -23.875 C 16.824219 -23.875 15.863281 -23.511719 14.90625 -22.78125 C 13.949219 -22.050781 12.917969 -20.988281 11.8125 -19.59375 L 11.8125 -1.0625 C 11.8125 -0.855469 11.75 -0.671875 11.625 -0.515625 C 11.5 -0.359375 11.285156 -0.230469 10.984375 -0.125 C 10.683594 -0.0195312 10.28125 0.0585938 9.78125 0.109375 C 9.28125 0.160156 8.644531 0.1875 7.875 0.1875 C 7.105469 0.1875 6.46875 0.160156 5.96875 0.109375 C 5.46875 0.0585938 5.066406 -0.0195312 4.765625 -0.125 C 4.464844 -0.230469 4.25 -0.359375 4.125 -0.515625 C 4 -0.671875 3.9375 -0.855469 3.9375 -1.0625 L 3.9375 -28.9375 C 3.9375 -29.144531 3.988281 -29.328125 4.09375 -29.484375 C 4.199219 -29.640625 4.386719 -29.769531 4.65625 -29.875 C 4.925781 -29.980469 5.277344 -30.058594 5.703125 -30.109375 C 6.128906 -30.160156 6.667969 -30.1875 7.3125 -30.1875 C 7.980469 -30.1875 8.53125 -30.160156 8.96875 -30.109375 C 9.40625 -30.058594 9.746094 -29.980469 9.984375 -29.875 C 10.222656 -29.769531 10.394531 -29.640625 10.5 -29.484375 C 10.605469 -29.328125 10.65625 -29.144531 10.65625 -28.9375 L 10.65625 -25.71875 C 12.199219 -27.386719 13.734375 -28.636719 15.265625 -29.46875 C 16.796875 -30.300781 18.394531 -30.71875 20.0625 -30.71875 C 21.207031 -30.71875 22.238281 -30.597656 23.15625 -30.359375 C 24.074219 -30.121094 24.890625 -29.777344 25.609375 -29.328125 C 26.328125 -28.878906 26.949219 -28.34375 27.46875 -27.71875 C 27.988281 -27.09375 28.425781 -26.394531 28.78125 -25.625 C 29.613281 -26.519531 30.433594 -27.292969 31.234375 -27.9375 C 32.035156 -28.582031 32.828125 -29.109375 33.609375 -29.515625 C 34.390625 -29.921875 35.171875 -30.222656 35.953125 -30.421875 C 36.734375 -30.621094 37.53125 -30.71875 38.34375 -30.71875 C 40.199219 -30.71875 41.761719 -30.40625 43.03125 -29.78125 C 44.300781 -29.15625 45.328125 -28.308594 46.109375 -27.234375 C 46.890625 -26.160156 47.449219 -24.90625 47.78125 -23.46875 C 48.113281 -22.03125 48.28125 -20.511719 48.28125 -18.90625 Z "/>
</g>
</g>
</defs>
<g fill="rgb(100%, 100%, 0%)" fill-opacity="1">
<use xlink:href="#glyph-0-0" x="30" y="68"/>
<use xlink:href="#glyph-0-1" x="72" y="68"/>
<use xlink:href="#glyph-0-2" x="104" y="68"/>
<use xlink:href="#glyph-0-3" x="130" y="68"/>
<use xlink:href="#glyph-0-4" x="164" y="68"/>
<use xlink:href="#glyph-0-5" x="178" y="68"/>
<use xlink:href="#glyph-0-6" x="208" y="68"/>
<use xlink:href="#glyph-0-7" x="242" y="68"/>
<use xlink:href="#glyph-0-8" x="276" y="68"/>
<use xlink:href="#glyph-0-9" x="292" y="68"/>
<use xlink:href="#glyph-0-8" x="308" y="68"/>
<use xlink:href="#glyph-0-10" x="324" y="68"/>
<use xlink:href="#glyph-0-11" x="358" y="68"/>
<use xlink:href="#glyph-0-8" x="381" y="68"/>
<use xlink:href="#glyph-0-7" x="397" y="68"/>
<use xlink:href="#glyph-0-12" x="431" y="68"/>
</g>
</svg>
