<?xml version="1.0" encoding="UTF-8"?>
<svg xmlns="http://www.w3.org/2000/svg" xmlns:xlink="http://www.w3.org/1999/xlink" width="1920" height="1080" viewBox="0 0 1920 1080">
<defs>
<g>
<g id="glyph-0-0">
<path d="M 16.933594 -7.089844 C 16.933594 -5.90625 16.714844 -4.851562 16.28125 -3.925781 C 15.84375 -3 15.238281 -2.21875 14.460938 -1.570312 C 13.6875 -0.929688 12.777344 -0.441406 11.726562 -0.117188 C 10.679688 0.207031 9.550781 0.371094 8.339844 0.371094 C 7.492188 0.371094 6.710938 0.300781 5.984375 0.15625 C 5.265625 0.0117188 4.617188 -0.164062 4.054688 -0.371094 C 3.484375 -0.578125 3.011719 -0.792969 2.625 -1.015625 C 2.242188 -1.238281 1.976562 -1.425781 1.828125 -1.582031 C 1.675781 -1.738281 1.566406 -1.9375 1.492188 -2.179688 C 1.421875 -2.417969 1.386719 -2.742188 1.386719 -3.144531 C 1.386719 -3.429688 1.398438 -3.667969 1.425781 -3.859375 C 1.453125 -4.046875 1.492188 -4.199219 1.542969 -4.316406 C 1.59375 -4.433594 1.660156 -4.515625 1.738281 -4.5625 C 1.816406 -4.605469 1.90625 -4.628906 2.011719 -4.628906 C 2.195312 -4.628906 2.449219 -4.519531 2.78125 -4.296875 C 3.117188 -4.074219 3.542969 -3.835938 4.0625 -3.574219 C 4.582031 -3.3125 5.210938 -3.070312 5.945312 -2.84375 C 6.683594 -2.613281 7.53125 -2.5 8.496094 -2.5 C 9.226562 -2.5 9.890625 -2.597656 10.5 -2.792969 C 11.101562 -2.988281 11.625 -3.265625 12.0625 -3.625 C 12.496094 -3.980469 12.832031 -4.421875 13.066406 -4.941406 C 13.300781 -5.460938 13.417969 -6.054688 13.417969 -6.71875 C 13.417969 -7.433594 13.253906 -8.046875 12.929688 -8.554688 C 12.605469 -9.0625 12.175781 -9.507812 11.640625 -9.890625 C 11.105469 -10.277344 10.5 -10.628906 9.8125 -10.945312 C 9.128906 -11.265625 8.429688 -11.59375 7.714844 -11.921875 C 7 -12.257812 6.300781 -12.625 5.625 -13.027344 C 4.949219 -13.429688 4.34375 -13.90625 3.808594 -14.453125 C 3.273438 -15 2.84375 -15.640625 2.507812 -16.375 C 2.179688 -17.113281 2.011719 -17.996094 2.011719 -19.023438 C 2.011719 -20.078125 2.203125 -21.019531 2.585938 -21.84375 C 2.972656 -22.671875 3.507812 -23.367188 4.1875 -23.925781 C 4.871094 -24.484375 5.6875 -24.914062 6.632812 -25.203125 C 7.574219 -25.5 8.59375 -25.644531 9.6875 -25.644531 C 10.246094 -25.644531 10.8125 -25.59375 11.375 -25.5 C 11.945312 -25.398438 12.476562 -25.269531 12.976562 -25.109375 C 13.480469 -24.945312 13.925781 -24.761719 14.316406 -24.5625 C 14.707031 -24.359375 14.964844 -24.195312 15.085938 -24.070312 C 15.210938 -23.949219 15.292969 -23.851562 15.332031 -23.78125 C 15.371094 -23.707031 15.402344 -23.617188 15.429688 -23.507812 C 15.457031 -23.394531 15.476562 -23.261719 15.488281 -23.105469 C 15.5 -22.949219 15.507812 -22.746094 15.507812 -22.5 C 15.507812 -22.265625 15.5 -22.058594 15.476562 -21.875 C 15.460938 -21.691406 15.429688 -21.539062 15.390625 -21.414062 C 15.351562 -21.292969 15.296875 -21.203125 15.226562 -21.140625 C 15.152344 -21.085938 15.070312 -21.054688 14.980469 -21.054688 C 14.835938 -21.054688 14.613281 -21.144531 14.304688 -21.328125 C 14 -21.511719 13.625 -21.714844 13.183594 -21.945312 C 12.742188 -22.171875 12.21875 -22.378906 11.609375 -22.570312 C 11.007812 -22.757812 10.324219 -22.851562 9.570312 -22.851562 C 8.867188 -22.851562 8.253906 -22.757812 7.734375 -22.570312 C 7.214844 -22.378906 6.785156 -22.128906 6.445312 -21.816406 C 6.105469 -21.503906 5.851562 -21.132812 5.683594 -20.703125 C 5.515625 -20.273438 5.429688 -19.816406 5.429688 -19.335938 C 5.429688 -18.632812 5.59375 -18.027344 5.917969 -17.519531 C 6.242188 -17.011719 6.675781 -16.5625 7.21875 -16.171875 C 7.757812 -15.78125 8.371094 -15.421875 9.0625 -15.097656 C 9.753906 -14.773438 10.457031 -14.445312 11.171875 -14.109375 C 11.886719 -13.78125 12.589844 -13.414062 13.28125 -13.015625 C 13.972656 -12.621094 14.585938 -12.152344 15.125 -11.609375 C 15.667969 -11.070312 16.101562 -10.433594 16.4375 -9.695312 C 16.765625 -8.960938 16.933594 -8.09375 16.933594 -7.089844 Z "/>
</g>
<g id="glyph-0-1">
<path d="M 6.210938 -0.488281 C 6.210938 -0.382812 6.183594 -0.296875 6.132812 -0.226562 C 6.082031 -0.152344 5.996094 -0.0898438 5.878906 -0.0390625 C 5.761719 0.0117188 5.597656 0.0507812 5.390625 0.078125 C 5.183594 0.105469 4.914062 0.117188 4.589844 0.117188 C 4.277344 0.117188 4.015625 0.105469 3.808594 0.078125 C 3.601562 0.0507812 3.433594 0.0117188 3.3125 -0.0390625 C 3.1875 -0.0898438 3.101562 -0.152344 3.054688 -0.226562 C 3.011719 -0.296875 2.988281 -0.382812 2.988281 -0.488281 L 2.988281 -18.066406 C 2.988281 -18.15625 3.011719 -18.242188 3.054688 -18.320312 C 3.101562 -18.398438 3.1875 -18.464844 3.3125 -18.515625 C 3.433594 -18.566406 3.601562 -18.605469 3.808594 -18.632812 C 4.015625 -18.660156 4.277344 -18.671875 4.589844 -18.671875 C 4.914062 -18.671875 5.183594 -18.660156 5.390625 -18.632812 C 5.597656 -18.605469 5.761719 -18.566406 5.878906 -18.515625 C 5.996094 -18.464844 6.082031 -18.398438 6.132812 -18.320312 C 6.183594 -18.242188 6.210938 -18.15625 6.210938 -18.066406 L 6.210938 -0.488281 M 6.582031 -24.003906 C 6.582031 -23.25 6.4375 -22.734375 6.152344 -22.460938 C 5.867188 -22.1875 5.339844 -22.050781 4.570312 -22.050781 C 3.816406 -22.050781 3.296875 -22.183594 3.015625 -22.453125 C 2.738281 -22.71875 2.597656 -23.222656 2.597656 -23.964844 C 2.597656 -24.71875 2.742188 -25.234375 3.027344 -25.507812 C 3.3125 -25.78125 3.839844 -25.917969 4.609375 -25.917969 C 5.363281 -25.917969 5.882812 -25.785156 6.164062 -25.515625 C 6.441406 -25.25 6.582031 -24.746094 6.582031 -24.003906 Z "/>
</g>
<g id="glyph-0-2">
<path d="M 29.0625 -0.488281 C 29.0625 -0.382812 29.035156 -0.296875 28.984375 -0.226562 C 28.933594 -0.152344 28.847656 -0.0898438 28.730469 -0.0390625 C 28.613281 0.0117188 28.449219 0.0507812 28.242188 0.078125 C 28.035156 0.105469 27.773438 0.117188 27.460938 0.117188 C 27.136719 0.117188 26.867188 0.105469 26.660156 0.078125 C 26.453125 0.0507812 26.285156 0.0117188 26.164062 -0.0390625 C 26.039062 -0.0898438 25.949219 -0.152344 25.898438 -0.226562 C 25.847656 -0.296875 25.820312 -0.382812 25.820312 -0.488281 L 25.820312 -11.171875 C 25.820312 -11.914062 25.753906 -12.589844 25.625 -13.203125 C 25.496094 -13.816406 25.285156 -14.34375 25 -14.785156 C 24.714844 -15.226562 24.347656 -15.566406 23.90625 -15.800781 C 23.464844 -16.035156 22.941406 -16.152344 22.34375 -16.152344 C 21.601562 -16.152344 20.855469 -15.867188 20.109375 -15.292969 C 19.359375 -14.71875 18.535156 -13.878906 17.636719 -12.773438 L 17.636719 -0.488281 C 17.636719 -0.382812 17.609375 -0.296875 17.558594 -0.226562 C 17.507812 -0.152344 17.417969 -0.0898438 17.296875 -0.0390625 C 17.171875 0.0117188 17.003906 0.0507812 16.796875 0.078125 C 16.589844 0.105469 16.328125 0.117188 16.015625 0.117188 C 15.714844 0.117188 15.460938 0.105469 15.242188 0.078125 C 15.03125 0.0507812 14.859375 0.0117188 14.734375 -0.0390625 C 14.613281 -0.0898438 14.527344 -0.152344 14.484375 -0.226562 C 14.4375 -0.296875 14.414062 -0.382812 14.414062 -0.488281 L 14.414062 -11.171875 C 14.414062 -11.914062 14.34375 -12.589844 14.199219 -13.203125 C 14.054688 -13.816406 13.839844 -14.34375 13.554688 -14.785156 C 13.269531 -15.226562 12.90625 -15.566406 12.46875 -15.800781 C 12.035156 -16.035156 11.515625 -16.152344 10.917969 -16.152344 C 10.175781 -16.152344 9.425781 -15.867188 8.671875 -15.292969 C 7.917969 -14.71875 7.097656 -13.878906 6.210938 -12.773438 L 6.210938 -0.488281 C 6.210938 -0.382812 6.183594 -0.296875 6.132812 -0.226562 C 6.082031 -0.152344 5.996094 -0.0898438 5.878906 -0.0390625 C 5.761719 0.0117188 5.597656 0.0507812 5.390625 0.078125 C 5.183594 0.105469 4.914062 0.117188 4.589844 0.117188 C 4.277344 0.117188 4.015625 0.105469 3.808594 0.078125 C 3.601562 0.0507812 3.433594 0.0117188 3.3125 -0.0390625 C 3.1875 -0.0898438 3.101562 -0.152344 3.054688 -0.226562 C 3.011719 -0.296875 2.988281 -0.382812 2.988281 -0.488281 L 2.988281 -18.066406 C 2.988281 -18.171875 3.007812 -18.257812 3.046875 -18.328125 C 3.085938 -18.402344 3.164062 -18.46875 3.28125 -18.523438 C 3.398438 -18.585938 3.546875 -18.625 3.730469 -18.640625 C 3.914062 -18.664062 4.152344 -18.671875 4.453125 -18.671875 C 4.738281 -18.671875 4.976562 -18.664062 5.164062 -18.640625 C 5.355469 -18.625 5.5 -18.585938 5.605469 -18.523438 C 5.710938 -18.46875 5.785156 -18.402344 5.828125 -18.328125 C 5.875 -18.257812 5.898438 -18.171875 5.898438 -18.066406 L 5.898438 -15.742188 C 6.886719 -16.847656 7.847656 -17.660156 8.78125 -18.171875 C 9.710938 -18.6875 10.652344 -18.945312 11.601562 -18.945312 C 12.332031 -18.945312 12.984375 -18.859375 13.5625 -18.691406 C 14.144531 -18.523438 14.65625 -18.285156 15.097656 -17.976562 C 15.539062 -17.671875 15.917969 -17.308594 16.230469 -16.882812 C 16.542969 -16.460938 16.804688 -15.988281 17.011719 -15.46875 C 17.597656 -16.105469 18.15625 -16.648438 18.679688 -17.089844 C 19.210938 -17.53125 19.71875 -17.890625 20.203125 -18.164062 C 20.695312 -18.4375 21.167969 -18.636719 21.632812 -18.757812 C 22.09375 -18.882812 22.558594 -18.945312 23.027344 -18.945312 C 24.160156 -18.945312 25.109375 -18.746094 25.878906 -18.351562 C 26.648438 -17.953125 27.269531 -17.421875 27.742188 -16.757812 C 28.21875 -16.09375 28.558594 -15.316406 28.757812 -14.421875 C 28.960938 -13.53125 29.0625 -12.589844 29.0625 -11.601562 Z "/>
</g>
<g id="glyph-0-3">
<path d="M 18.046875 -0.488281 C 18.046875 -0.382812 18.023438 -0.296875 17.976562 -0.226562 C 17.933594 -0.152344 17.851562 -0.0898438 17.734375 -0.0390625 C 17.617188 0.0117188 17.464844 0.0507812 17.273438 0.078125 C 17.085938 0.105469 16.855469 0.117188 16.582031 0.117188 C 16.28125 0.117188 16.039062 0.105469 15.851562 0.078125 C 15.660156 0.0507812 15.511719 0.0117188 15.398438 -0.0390625 C 15.289062 -0.0898438 15.214844 -0.152344 15.175781 -0.226562 C 15.136719 -0.296875 15.117188 -0.382812 15.117188 -0.488281 L 15.117188 -2.8125 C 14.113281 -1.707031 13.125 -0.898438 12.148438 -0.390625 C 11.171875 0.117188 10.183594 0.371094 9.179688 0.371094 C 8.007812 0.371094 7.023438 0.175781 6.21875 -0.214844 C 5.421875 -0.605469 4.773438 -1.136719 4.277344 -1.804688 C 3.78125 -2.476562 3.429688 -3.257812 3.210938 -4.148438 C 3 -5.042969 2.890625 -6.125 2.890625 -7.402344 L 2.890625 -18.066406 C 2.890625 -18.171875 2.914062 -18.257812 2.960938 -18.328125 C 3.003906 -18.402344 3.09375 -18.46875 3.222656 -18.523438 C 3.351562 -18.585938 3.523438 -18.625 3.730469 -18.640625 C 3.9375 -18.664062 4.199219 -18.671875 4.511719 -18.671875 C 4.824219 -18.671875 5.085938 -18.664062 5.292969 -18.640625 C 5.5 -18.625 5.667969 -18.585938 5.789062 -18.523438 C 5.914062 -18.46875 6.003906 -18.402344 6.054688 -18.328125 C 6.105469 -18.257812 6.132812 -18.171875 6.132812 -18.066406 L 6.132812 -7.832031 C 6.132812 -6.804688 6.207031 -5.980469 6.359375 -5.359375 C 6.507812 -4.742188 6.734375 -4.214844 7.039062 -3.78125 C 7.347656 -3.34375 7.734375 -3.003906 8.203125 -2.765625 C 8.671875 -2.523438 9.21875 -2.402344 9.84375 -2.402344 C 10.652344 -2.402344 11.453125 -2.6875 12.257812 -3.261719 C 13.054688 -3.835938 13.90625 -4.675781 14.804688 -5.78125 L 14.804688 -18.066406 C 14.804688 -18.171875 14.828125 -18.257812 14.875 -18.328125 C 14.917969 -18.402344 15.007812 -18.46875 15.136719 -18.523438 C 15.265625 -18.585938 15.433594 -18.625 15.632812 -18.640625 C 15.835938 -18.664062 16.101562 -18.671875 16.425781 -18.671875 C 16.738281 -18.671875 17 -18.664062 17.207031 -18.640625 C 17.414062 -18.625 17.578125 -18.585938 17.695312 -18.523438 C 17.8125 -18.46875 17.898438 -18.402344 17.960938 -18.328125 C 18.015625 -18.257812 18.046875 -18.171875 18.046875 -18.066406 Z "/>
</g>
<g id="glyph-0-4">
<path d="M 6.210938 -0.488281 C 6.210938 -0.382812 6.183594 -0.296875 6.132812 -0.226562 C 6.082031 -0.152344 5.996094 -0.0898438 5.878906 -0.0390625 C 5.761719 0.0117188 5.597656 0.0507812 5.390625 0.078125 C 5.183594 0.105469 4.914062 0.117188 4.589844 0.117188 C 4.277344 0.117188 4.015625 0.105469 3.808594 0.078125 C 3.601562 0.0507812 3.433594 0.0117188 3.3125 -0.0390625 C 3.1875 -0.0898438 3.101562 -0.152344 3.054688 -0.226562 C 3.011719 -0.296875 2.988281 -0.382812 2.988281 -0.488281 L 2.988281 -26.582031 C 2.988281 -26.6875 3.011719 -26.777344 3.054688 -26.855469 C 3.101562 -26.933594 3.1875 -27 3.3125 -27.050781 C 3.433594 -27.101562 3.601562 -27.140625 3.808594 -27.167969 C 4.015625 -27.195312 4.277344 -27.207031 4.589844 -27.207031 C 4.914062 -27.207031 5.183594 -27.195312 5.390625 -27.167969 C 5.597656 -27.140625 5.761719 -27.101562 5.878906 -27.050781 C 5.996094 -27 6.082031 -26.933594 6.132812 -26.855469 C 6.183594 -26.777344 6.210938 -26.6875 6.210938 -26.582031 Z "/>
</g>
<g id="glyph-0-5">
<path d="M 12.128906 -1.777344 C 12.128906 -1.398438 12.101562 -1.101562 12.050781 -0.878906 C 12 -0.65625 11.921875 -0.496094 11.816406 -0.390625 C 11.710938 -0.285156 11.554688 -0.1875 11.347656 -0.0976562 C 11.140625 -0.0078125 10.902344 0.0703125 10.632812 0.125 C 10.367188 0.1875 10.085938 0.234375 9.785156 0.273438 C 9.484375 0.3125 9.1875 0.332031 8.886719 0.332031 C 7.976562 0.332031 7.195312 0.210938 6.542969 -0.03125 C 5.890625 -0.269531 5.359375 -0.632812 4.941406 -1.125 C 4.523438 -1.609375 4.222656 -2.230469 4.03125 -2.976562 C 3.84375 -3.726562 3.75 -4.609375 3.75 -5.625 L 3.75 -15.898438 L 1.289062 -15.898438 C 1.09375 -15.898438 0.9375 -16.003906 0.820312 -16.210938 C 0.703125 -16.417969 0.644531 -16.757812 0.644531 -17.226562 C 0.644531 -17.472656 0.660156 -17.683594 0.695312 -17.851562 C 0.726562 -18.019531 0.769531 -18.160156 0.820312 -18.273438 C 0.871094 -18.382812 0.941406 -18.460938 1.023438 -18.507812 C 1.109375 -18.550781 1.203125 -18.574219 1.308594 -18.574219 L 3.75 -18.574219 L 3.75 -22.753906 C 3.75 -22.84375 3.773438 -22.929688 3.820312 -23.007812 C 3.863281 -23.085938 3.949219 -23.15625 4.070312 -23.210938 C 4.195312 -23.273438 4.363281 -23.3125 4.570312 -23.339844 C 4.777344 -23.367188 5.039062 -23.378906 5.351562 -23.378906 C 5.675781 -23.378906 5.945312 -23.367188 6.152344 -23.339844 C 6.359375 -23.3125 6.523438 -23.273438 6.640625 -23.210938 C 6.757812 -23.15625 6.84375 -23.085938 6.894531 -23.007812 C 6.945312 -22.929688 6.972656 -22.84375 6.972656 -22.753906 L 6.972656 -18.574219 L 11.484375 -18.574219 C 11.589844 -18.574219 11.679688 -18.550781 11.757812 -18.507812 C 11.835938 -18.460938 11.90625 -18.382812 11.960938 -18.273438 C 12.023438 -18.160156 12.0625 -18.019531 12.089844 -17.851562 C 12.117188 -17.683594 12.128906 -17.472656 12.128906 -17.226562 C 12.128906 -16.757812 12.070312 -16.417969 11.953125 -16.210938 C 11.835938 -16.003906 11.679688 -15.898438 11.484375 -15.898438 L 6.972656 -15.898438 L 6.972656 -6.09375 C 6.972656 -4.882812 7.152344 -3.96875 7.507812 -3.351562 C 7.867188 -2.730469 8.507812 -2.421875 9.433594 -2.421875 C 9.734375 -2.421875 10 -2.453125 10.234375 -2.507812 C 10.46875 -2.570312 10.675781 -2.628906 10.859375 -2.695312 C 11.042969 -2.761719 11.199219 -2.820312 11.328125 -2.882812 C 11.457031 -2.9375 11.574219 -2.96875 11.679688 -2.96875 C 11.746094 -2.96875 11.804688 -2.953125 11.867188 -2.921875 C 11.921875 -2.886719 11.96875 -2.824219 12 -2.734375 C 12.035156 -2.644531 12.0625 -2.519531 12.089844 -2.363281 C 12.117188 -2.207031 12.128906 -2.011719 12.128906 -1.777344 Z "/>
</g>
<g id="glyph-0-6">
<path d="M 16.230469 -0.46875 C 16.230469 -0.3125 16.179688 -0.195312 16.074219 -0.117188 C 15.96875 -0.0390625 15.828125 0.0195312 15.644531 0.0585938 C 15.460938 0.0976562 15.195312 0.117188 14.84375 0.117188 C 14.503906 0.117188 14.234375 0.0976562 14.03125 0.0585938 C 13.832031 0.0195312 13.683594 -0.0390625 13.59375 -0.117188 C 13.503906 -0.195312 13.457031 -0.3125 13.457031 -0.46875 L 13.457031 -2.226562 C 12.6875 -1.40625 11.832031 -0.769531 10.890625 -0.3125 C 9.945312 0.144531 8.945312 0.371094 7.890625 0.371094 C 6.964844 0.371094 6.128906 0.25 5.382812 0.0078125 C 4.632812 -0.230469 3.992188 -0.578125 3.46875 -1.035156 C 2.9375 -1.492188 2.53125 -2.050781 2.234375 -2.714844 C 1.945312 -3.378906 1.796875 -4.132812 1.796875 -4.980469 C 1.796875 -5.96875 2 -6.828125 2.402344 -7.558594 C 2.804688 -8.289062 3.386719 -8.894531 4.140625 -9.375 C 4.894531 -9.855469 5.820312 -10.21875 6.914062 -10.460938 C 8.007812 -10.699219 9.238281 -10.820312 10.605469 -10.820312 L 13.027344 -10.820312 L 13.027344 -12.1875 C 13.027344 -12.863281 12.957031 -13.464844 12.8125 -13.984375 C 12.667969 -14.503906 12.4375 -14.9375 12.117188 -15.28125 C 11.800781 -15.628906 11.386719 -15.890625 10.878906 -16.0625 C 10.371094 -16.242188 9.746094 -16.328125 9.003906 -16.328125 C 8.210938 -16.328125 7.496094 -16.234375 6.867188 -16.046875 C 6.234375 -15.855469 5.679688 -15.648438 5.203125 -15.421875 C 4.730469 -15.191406 4.332031 -14.984375 4.015625 -14.796875 C 3.695312 -14.605469 3.457031 -14.511719 3.300781 -14.511719 C 3.195312 -14.511719 3.105469 -14.539062 3.027344 -14.589844 C 2.949219 -14.640625 2.882812 -14.71875 2.820312 -14.824219 C 2.765625 -14.929688 2.722656 -15.0625 2.695312 -15.226562 C 2.667969 -15.386719 2.65625 -15.566406 2.65625 -15.761719 C 2.65625 -16.085938 2.679688 -16.34375 2.726562 -16.53125 C 2.769531 -16.722656 2.882812 -16.902344 3.054688 -17.070312 C 3.234375 -17.238281 3.535156 -17.4375 3.964844 -17.664062 C 4.394531 -17.894531 4.890625 -18.101562 5.449219 -18.289062 C 6.007812 -18.480469 6.621094 -18.636719 7.285156 -18.757812 C 7.949219 -18.882812 8.621094 -18.945312 9.296875 -18.945312 C 10.558594 -18.945312 11.632812 -18.800781 12.519531 -18.515625 C 13.40625 -18.230469 14.121094 -17.808594 14.667969 -17.257812 C 15.214844 -16.703125 15.613281 -16.015625 15.859375 -15.195312 C 16.105469 -14.375 16.230469 -13.417969 16.230469 -12.324219 L 16.230469 -0.46875 M 13.027344 -8.496094 L 10.273438 -8.496094 C 9.386719 -8.496094 8.621094 -8.421875 7.96875 -8.273438 C 7.316406 -8.121094 6.777344 -7.898438 6.347656 -7.609375 C 5.917969 -7.3125 5.601562 -6.960938 5.398438 -6.554688 C 5.199219 -6.140625 5.097656 -5.671875 5.097656 -5.136719 C 5.097656 -4.226562 5.386719 -3.5 5.96875 -2.960938 C 6.546875 -2.417969 7.355469 -2.148438 8.398438 -2.148438 C 9.246094 -2.148438 10.03125 -2.363281 10.75 -2.792969 C 11.476562 -3.222656 12.234375 -3.878906 13.027344 -4.765625 Z "/>
</g>
<g id="glyph-0-7">
<path d="M 18.125 -0.488281 C 18.125 -0.382812 18.097656 -0.296875 18.046875 -0.226562 C 17.996094 -0.152344 17.910156 -0.0898438 17.792969 -0.0390625 C 17.675781 0.0117188 17.511719 0.0507812 17.304688 0.078125 C 17.097656 0.105469 16.835938 0.117188 16.523438 0.117188 C 16.199219 0.117188 15.929688 0.105469 15.722656 0.078125 C 15.515625 0.0507812 15.351562 0.0117188 15.234375 -0.0390625 C 15.117188 -0.0898438 15.03125 -0.152344 14.980469 -0.226562 C 14.929688 -0.296875 14.902344 -0.382812 14.902344 -0.488281 L 14.902344 -10.78125 C 14.902344 -11.785156 14.824219 -12.589844 14.667969 -13.203125 C 14.511719 -13.816406 14.285156 -14.34375 13.984375 -14.785156 C 13.683594 -15.226562 13.296875 -15.566406 12.820312 -15.800781 C 12.347656 -16.035156 11.796875 -16.152344 11.171875 -16.152344 C 10.363281 -16.152344 9.558594 -15.867188 8.75 -15.292969 C 7.941406 -14.71875 7.097656 -13.878906 6.210938 -12.773438 L 6.210938 -0.488281 C 6.210938 -0.382812 6.183594 -0.296875 6.132812 -0.226562 C 6.082031 -0.152344 5.996094 -0.0898438 5.878906 -0.0390625 C 5.761719 0.0117188 5.597656 0.0507812 5.390625 0.078125 C 5.183594 0.105469 4.914062 0.117188 4.589844 0.117188 C 4.277344 0.117188 4.015625 0.105469 3.808594 0.078125 C 3.601562 0.0507812 3.433594 0.0117188 3.3125 -0.0390625 C 3.1875 -0.0898438 3.101562 -0.152344 3.054688 -0.226562 C 3.011719 -0.296875 2.988281 -0.382812 2.988281 -0.488281 L 2.988281 -18.066406 C 2.988281 -18.171875 3.007812 -18.257812 3.046875 -18.328125 C 3.085938 -18.402344 3.164062 -18.46875 3.28125 -18.523438 C 3.398438 -18.585938 3.546875 -18.625 3.730469 -18.640625 C 3.914062 -18.664062 4.152344 -18.671875 4.453125 -18.671875 C 4.738281 -18.671875 4.976562 -18.664062 5.164062 -18.640625 C 5.355469 -18.625 5.5 -18.585938 5.605469 -18.523438 C 5.710938 -18.46875 5.785156 -18.402344 5.828125 -18.328125 C 5.875 -18.257812 5.898438 -18.171875 5.898438 -18.066406 L 5.898438 -15.742188 C 6.886719 -16.847656 7.875 -17.660156 8.859375 -18.171875 C 9.839844 -18.6875 10.832031 -18.945312 11.835938 -18.945312 C 13.007812 -18.945312 13.992188 -18.746094 14.796875 -18.351562 C 15.59375 -17.953125 16.242188 -17.421875 16.738281 -16.757812 C 17.234375 -16.09375 17.585938 -15.316406 17.804688 -14.421875 C 18.015625 -13.53125 18.125 -12.460938 18.125 -11.210938 Z "/>
</g>
<g id="glyph-0-8">
<path d="M 17.988281 -10.039062 C 17.988281 -9.53125 17.859375 -9.171875 17.605469 -8.953125 C 17.351562 -8.742188 17.058594 -8.632812 16.734375 -8.632812 L 5.15625 -8.632812 C 5.15625 -7.65625 5.253906 -6.777344 5.449219 -5.996094 C 5.648438 -5.214844 5.972656 -4.542969 6.433594 -3.984375 C 6.890625 -3.425781 7.484375 -2.996094 8.21875 -2.695312 C 8.949219 -2.394531 9.847656 -2.246094 10.90625 -2.246094 C 11.742188 -2.246094 12.488281 -2.3125 13.144531 -2.453125 C 13.796875 -2.585938 14.363281 -2.742188 14.839844 -2.910156 C 15.320312 -3.078125 15.710938 -3.234375 16.019531 -3.367188 C 16.328125 -3.507812 16.558594 -3.574219 16.714844 -3.574219 C 16.808594 -3.574219 16.890625 -3.550781 16.960938 -3.507812 C 17.035156 -3.460938 17.089844 -3.390625 17.128906 -3.300781 C 17.167969 -3.210938 17.195312 -3.082031 17.214844 -2.921875 C 17.234375 -2.757812 17.246094 -2.558594 17.246094 -2.324219 C 17.246094 -2.15625 17.238281 -2.007812 17.226562 -1.882812 C 17.214844 -1.761719 17.195312 -1.648438 17.179688 -1.554688 C 17.15625 -1.453125 17.125 -1.367188 17.078125 -1.289062 C 17.035156 -1.210938 16.976562 -1.136719 16.90625 -1.0625 C 16.832031 -0.992188 16.621094 -0.875 16.269531 -0.710938 C 15.917969 -0.550781 15.460938 -0.390625 14.902344 -0.234375 C 14.34375 -0.078125 13.695312 0.0625 12.960938 0.1875 C 12.222656 0.308594 11.4375 0.371094 10.605469 0.371094 C 9.160156 0.371094 7.894531 0.167969 6.804688 -0.234375 C 5.71875 -0.636719 4.804688 -1.238281 4.0625 -2.03125 C 3.320312 -2.824219 2.761719 -3.820312 2.382812 -5.019531 C 2.003906 -6.21875 1.816406 -7.609375 1.816406 -9.199219 C 1.816406 -10.710938 2.011719 -12.066406 2.402344 -13.273438 C 2.792969 -14.476562 3.355469 -15.5 4.09375 -16.335938 C 4.828125 -17.179688 5.714844 -17.820312 6.757812 -18.273438 C 7.800781 -18.71875 8.964844 -18.945312 10.253906 -18.945312 C 11.632812 -18.945312 12.808594 -18.722656 13.78125 -18.28125 C 14.75 -17.839844 15.546875 -17.242188 16.171875 -16.492188 C 16.796875 -15.746094 17.253906 -14.867188 17.546875 -13.859375 C 17.839844 -12.847656 17.988281 -11.769531 17.988281 -10.625 L 17.988281 -10.039062 M 14.746094 -10.996094 C 14.785156 -12.6875 14.410156 -14.015625 13.617188 -14.980469 C 12.824219 -15.945312 11.648438 -16.425781 10.089844 -16.425781 C 9.289062 -16.425781 8.589844 -16.277344 7.984375 -15.976562 C 7.382812 -15.675781 6.878906 -15.28125 6.472656 -14.785156 C 6.066406 -14.289062 5.753906 -13.714844 5.53125 -13.054688 C 5.308594 -12.398438 5.183594 -11.710938 5.15625 -10.996094 Z "/>
</g>
<g id="glyph-0-9">
<path d="M 19.335938 -9.472656 C 19.335938 -8.039062 19.148438 -6.722656 18.769531 -5.515625 C 18.390625 -4.3125 17.828125 -3.273438 17.078125 -2.402344 C 16.332031 -1.53125 15.394531 -0.851562 14.265625 -0.359375 C 13.140625 0.125 11.835938 0.371094 10.351562 0.371094 C 8.90625 0.371094 7.648438 0.15625 6.570312 -0.273438 C 5.5 -0.703125 4.601562 -1.328125 3.886719 -2.148438 C 3.171875 -2.96875 2.636719 -3.964844 2.285156 -5.136719 C 1.933594 -6.308594 1.757812 -7.636719 1.757812 -9.121094 C 1.757812 -10.554688 1.945312 -11.871094 2.3125 -13.078125 C 2.6875 -14.28125 3.246094 -15.320312 3.992188 -16.191406 C 4.742188 -17.0625 5.675781 -17.742188 6.796875 -18.222656 C 7.917969 -18.703125 9.226562 -18.945312 10.722656 -18.945312 C 12.167969 -18.945312 13.429688 -18.730469 14.5 -18.300781 C 15.574219 -17.871094 16.472656 -17.246094 17.1875 -16.425781 C 17.902344 -15.605469 18.441406 -14.609375 18.796875 -13.4375 C 19.15625 -12.265625 19.335938 -10.945312 19.335938 -9.472656 M 15.996094 -9.257812 C 15.996094 -10.207031 15.90625 -11.105469 15.730469 -11.953125 C 15.550781 -12.800781 15.261719 -13.542969 14.851562 -14.179688 C 14.445312 -14.816406 13.894531 -15.320312 13.199219 -15.695312 C 12.5 -16.0625 11.632812 -16.25 10.597656 -16.25 C 9.636719 -16.25 8.8125 -16.082031 8.121094 -15.742188 C 7.433594 -15.402344 6.863281 -14.925781 6.417969 -14.304688 C 5.972656 -13.6875 5.640625 -12.957031 5.421875 -12.109375 C 5.207031 -11.261719 5.097656 -10.339844 5.097656 -9.335938 C 5.097656 -8.371094 5.1875 -7.46875 5.363281 -6.621094 C 5.542969 -5.773438 5.835938 -5.035156 6.25 -4.40625 C 6.664062 -3.773438 7.21875 -3.273438 7.914062 -2.898438 C 8.613281 -2.53125 9.480469 -2.34375 10.515625 -2.34375 C 11.464844 -2.34375 12.285156 -2.511719 12.980469 -2.851562 C 13.675781 -3.191406 14.25 -3.664062 14.695312 -4.277344 C 15.140625 -4.890625 15.46875 -5.617188 15.679688 -6.464844 C 15.890625 -7.3125 15.996094 -8.242188 15.996094 -9.257812 Z "/>
</g>
<g id="glyph-0-10">
<path d="M 14.023438 -5.273438 C 14.023438 -4.375 13.859375 -3.574219 13.523438 -2.871094 C 13.195312 -2.167969 12.722656 -1.574219 12.109375 -1.09375 C 11.496094 -0.613281 10.769531 -0.246094 9.921875 0 C 9.074219 0.246094 8.144531 0.371094 7.128906 0.371094 C 6.503906 0.371094 5.90625 0.320312 5.34375 0.226562 C 4.773438 0.125 4.265625 0.00390625 3.820312 -0.148438 C 3.367188 -0.296875 2.988281 -0.453125 2.675781 -0.617188 C 2.363281 -0.777344 2.136719 -0.925781 1.992188 -1.054688 C 1.847656 -1.183594 1.746094 -1.367188 1.679688 -1.601562 C 1.613281 -1.835938 1.582031 -2.15625 1.582031 -2.558594 C 1.582031 -2.804688 1.59375 -3.015625 1.621094 -3.183594 C 1.648438 -3.351562 1.679688 -3.488281 1.71875 -3.59375 C 1.757812 -3.699219 1.8125 -3.773438 1.882812 -3.820312 C 1.957031 -3.863281 2.039062 -3.886719 2.128906 -3.886719 C 2.273438 -3.886719 2.484375 -3.796875 2.765625 -3.625 C 3.042969 -3.445312 3.390625 -3.253906 3.796875 -3.046875 C 4.210938 -2.839844 4.695312 -2.648438 5.253906 -2.46875 C 5.8125 -2.296875 6.457031 -2.207031 7.1875 -2.207031 C 7.734375 -2.207031 8.230469 -2.265625 8.671875 -2.382812 C 9.113281 -2.5 9.5 -2.671875 9.824219 -2.898438 C 10.148438 -3.128906 10.398438 -3.417969 10.578125 -3.769531 C 10.75 -4.121094 10.839844 -4.539062 10.839844 -5.019531 C 10.839844 -5.515625 10.710938 -5.929688 10.460938 -6.269531 C 10.203125 -6.609375 9.871094 -6.90625 9.453125 -7.167969 C 9.035156 -7.429688 8.566406 -7.660156 8.046875 -7.859375 C 7.527344 -8.0625 6.988281 -8.273438 6.4375 -8.496094 C 5.882812 -8.71875 5.34375 -8.96875 4.8125 -9.25 C 4.289062 -9.527344 3.816406 -9.871094 3.398438 -10.273438 C 2.980469 -10.675781 2.648438 -11.160156 2.390625 -11.71875 C 2.140625 -12.277344 2.011719 -12.949219 2.011719 -13.730469 C 2.011719 -14.421875 2.144531 -15.082031 2.414062 -15.710938 C 2.679688 -16.34375 3.078125 -16.898438 3.613281 -17.375 C 4.148438 -17.847656 4.8125 -18.230469 5.617188 -18.515625 C 6.414062 -18.800781 7.351562 -18.945312 8.417969 -18.945312 C 8.886719 -18.945312 9.355469 -18.90625 9.824219 -18.828125 C 10.292969 -18.75 10.714844 -18.652344 11.09375 -18.535156 C 11.472656 -18.417969 11.792969 -18.289062 12.0625 -18.15625 C 12.328125 -18.015625 12.53125 -17.898438 12.664062 -17.792969 C 12.804688 -17.6875 12.894531 -17.597656 12.9375 -17.519531 C 12.984375 -17.441406 13.015625 -17.351562 13.039062 -17.257812 C 13.054688 -17.15625 13.078125 -17.039062 13.09375 -16.894531 C 13.117188 -16.75 13.125 -16.574219 13.125 -16.367188 C 13.125 -16.144531 13.117188 -15.953125 13.09375 -15.789062 C 13.078125 -15.628906 13.042969 -15.496094 13 -15.390625 C 12.953125 -15.285156 12.898438 -15.210938 12.832031 -15.164062 C 12.765625 -15.121094 12.695312 -15.097656 12.617188 -15.097656 C 12.5 -15.097656 12.332031 -15.167969 12.109375 -15.3125 C 11.886719 -15.457031 11.601562 -15.609375 11.25 -15.773438 C 10.898438 -15.933594 10.484375 -16.085938 10.007812 -16.230469 C 9.535156 -16.375 8.992188 -16.445312 8.378906 -16.445312 C 7.832031 -16.445312 7.351562 -16.382812 6.933594 -16.257812 C 6.515625 -16.136719 6.175781 -15.960938 5.90625 -15.734375 C 5.640625 -15.503906 5.4375 -15.234375 5.304688 -14.921875 C 5.164062 -14.609375 5.097656 -14.269531 5.097656 -13.90625 C 5.097656 -13.398438 5.226562 -12.972656 5.488281 -12.625 C 5.75 -12.28125 6.085938 -11.980469 6.503906 -11.71875 C 6.921875 -11.457031 7.394531 -11.222656 7.929688 -11.015625 C 8.464844 -10.808594 9.007812 -10.59375 9.5625 -10.371094 C 10.113281 -10.148438 10.660156 -9.902344 11.203125 -9.628906 C 11.742188 -9.355469 12.21875 -9.023438 12.636719 -8.632812 C 13.054688 -8.242188 13.390625 -7.773438 13.640625 -7.226562 C 13.898438 -6.679688 14.023438 -6.027344 14.023438 -5.273438 Z "/>
</g>
<g id="glyph-0-11">
</g>
<g id="glyph-0-12">
<path d="M 15.625 -3.164062 C 15.625 -2.941406 15.617188 -2.75 15.605469 -2.585938 C 15.59375 -2.425781 15.570312 -2.289062 15.539062 -2.179688 C 15.503906 -2.066406 15.464844 -1.96875 15.421875 -1.882812 C 15.375 -1.800781 15.269531 -1.675781 15.109375 -1.515625 C 14.945312 -1.351562 14.667969 -1.148438 14.277344 -0.90625 C 13.886719 -0.667969 13.445312 -0.453125 12.960938 -0.265625 C 12.46875 -0.0742188 11.941406 0.078125 11.367188 0.195312 C 10.792969 0.3125 10.203125 0.371094 9.589844 0.371094 C 8.328125 0.371094 7.207031 0.164062 6.230469 -0.253906 C 5.253906 -0.671875 4.4375 -1.28125 3.78125 -2.078125 C 3.121094 -2.882812 2.621094 -3.863281 2.273438 -5.03125 C 1.929688 -6.195312 1.757812 -7.539062 1.757812 -9.0625 C 1.757812 -10.792969 1.96875 -12.28125 2.390625 -13.523438 C 2.816406 -14.769531 3.394531 -15.789062 4.132812 -16.582031 C 4.867188 -17.375 5.734375 -17.964844 6.726562 -18.351562 C 7.726562 -18.734375 8.800781 -18.925781 9.960938 -18.925781 C 10.519531 -18.925781 11.0625 -18.875 11.59375 -18.769531 C 12.117188 -18.664062 12.605469 -18.527344 13.046875 -18.359375 C 13.488281 -18.191406 13.882812 -17.996094 14.226562 -17.773438 C 14.574219 -17.550781 14.824219 -17.363281 14.980469 -17.207031 C 15.136719 -17.050781 15.242188 -16.925781 15.304688 -16.835938 C 15.359375 -16.746094 15.410156 -16.636719 15.449219 -16.515625 C 15.488281 -16.390625 15.515625 -16.25 15.527344 -16.09375 C 15.539062 -15.9375 15.546875 -15.742188 15.546875 -15.507812 C 15.546875 -15 15.488281 -14.644531 15.371094 -14.445312 C 15.253906 -14.242188 15.109375 -14.140625 14.941406 -14.140625 C 14.746094 -14.140625 14.523438 -14.25 14.265625 -14.460938 C 14.015625 -14.679688 13.691406 -14.914062 13.300781 -15.175781 C 12.910156 -15.4375 12.4375 -15.671875 11.882812 -15.890625 C 11.332031 -16.101562 10.675781 -16.210938 9.921875 -16.210938 C 8.371094 -16.210938 7.183594 -15.617188 6.359375 -14.421875 C 5.53125 -13.234375 5.117188 -11.503906 5.117188 -9.238281 C 5.117188 -8.105469 5.226562 -7.113281 5.4375 -6.257812 C 5.65625 -5.40625 5.96875 -4.695312 6.386719 -4.121094 C 6.804688 -3.546875 7.3125 -3.121094 7.921875 -2.84375 C 8.523438 -2.5625 9.21875 -2.421875 10 -2.421875 C 10.742188 -2.421875 11.394531 -2.539062 11.953125 -2.773438 C 12.511719 -3.007812 13 -3.265625 13.40625 -3.546875 C 13.820312 -3.824219 14.164062 -4.078125 14.445312 -4.304688 C 14.722656 -4.535156 14.941406 -4.648438 15.097656 -4.648438 C 15.1875 -4.648438 15.265625 -4.621094 15.332031 -4.570312 C 15.398438 -4.519531 15.453125 -4.429688 15.5 -4.304688 C 15.542969 -4.183594 15.578125 -4.027344 15.59375 -3.835938 C 15.617188 -3.648438 15.625 -3.425781 15.625 -3.164062 Z "/>
</g>
<g id="glyph-0-13">
<path d="M 18.125 -0.488281 C 18.125 -0.382812 18.097656 -0.296875 18.046875 -0.226562 C 17.996094 -0.152344 17.910156 -0.0898438 17.792969 -0.0390625 C 17.675781 0.0117188 17.511719 0.0507812 17.304688 0.078125 C 17.097656 0.105469 16.835938 0.117188 16.523438 0.117188 C 16.199219 0.117188 15.929688 0.105469 15.722656 0.078125 C 15.515625 0.0507812 15.351562 0.0117188 15.234375 -0.0390625 C 15.117188 -0.0898438 15.03125 -0.152344 14.980469 -0.226562 C 14.929688 -0.296875 14.902344 -0.382812 14.902344 -0.488281 L 14.902344 -10.78125 C 14.902344 -11.785156 14.824219 -12.589844 14.667969 -13.203125 C 14.511719 -13.816406 14.285156 -14.34375 13.984375 -14.785156 C 13.683594 -15.226562 13.296875 -15.566406 12.820312 -15.800781 C 12.347656 -16.035156 11.796875 -16.152344 11.171875 -16.152344 C 10.363281 -16.152344 9.558594 -15.867188 8.75 -15.292969 C 7.941406 -14.71875 7.097656 -13.878906 6.210938 -12.773438 L 6.210938 -0.488281 C 6.210938 -0.382812 6.183594 -0.296875 6.132812 -0.226562 C 6.082031 -0.152344 5.996094 -0.0898438 5.878906 -0.0390625 C 5.761719 0.0117188 5.597656 0.0507812 5.390625 0.078125 C 5.183594 0.105469 4.914062 0.117188 4.589844 0.117188 C 4.277344 0.117188 4.015625 0.105469 3.808594 0.078125 C 3.601562 0.0507812 3.433594 0.0117188 3.3125 -0.0390625 C 3.1875 -0.0898438 3.101562 -0.152344 3.054688 -0.226562 C 3.011719 -0.296875 2.988281 -0.382812 2.988281 -0.488281 L 2.988281 -26.582031 C 2.988281 -26.6875 3.011719 -26.777344 3.054688 -26.855469 C 3.101562 -26.933594 3.1875 -27 3.3125 -27.050781 C 3.433594 -27.101562 3.601562 -27.140625 3.808594 -27.167969 C 4.015625 -27.195312 4.277344 -27.207031 4.589844 -27.207031 C 4.914062 -27.207031 5.183594 -27.195312 5.390625 -27.167969 C 5.597656 -27.140625 5.761719 -27.101562 5.878906 -27.050781 C 5.996094 -27 6.082031 -26.933594 6.132812 -26.855469 C 6.183594 -26.777344 6.210938 -26.6875 6.210938 -26.582031 L 6.210938 -16.054688 C 7.136719 -17.03125 8.066406 -17.757812 9.003906 -18.234375 C 9.941406 -18.707031 10.886719 -18.945312 11.835938 -18.945312 C 13.007812 -18.945312 13.992188 -18.746094 14.796875 -18.351562 C 15.59375 -17.953125 16.242188 -17.421875 16.738281 -16.757812 C 17.234375 -16.09375 17.585938 -15.316406 17.804688 -14.421875 C 18.015625 -13.53125 18.125 -12.453125 18.125 -11.191406 Z "/>
</g>
</g>
</defs>
<g fill="rgb(100%, 100%, 100%)" fill-opacity="1">
<use xlink:href="#glyph-0-0" x="30" y="50"/>
<use xlink:href="#glyph-0-1" x="48" y="50"/>
<use xlink:href="#glyph-0-2" x="57" y="50"/>
<use xlink:href="#glyph-0-3" x="89" y="50"/>
<use xlink:href="#glyph-0-4" x="110" y="50"/>
<use xlink:href="#glyph-0-5" x="119" y="50"/>
<use xlink:href="#glyph-0-6" x="132" y="50"/>
<use xlink:href="#glyph-0-7" x="151" y="50"/>
<use xlink:href="#glyph-0-8" x="172" y="50"/>
<use xlink:href="#glyph-0-9" x="192" y="50"/>
<use xlink:href="#glyph-0-3" x="213" y="50"/>
<use xlink:href="#glyph-0-10" x="234" y="50"/>
<use xlink:href="#glyph-0-11" x="250" y="50"/>
<use xlink:href="#glyph-0-12" x="259" y="50"/>
<use xlink:href="#glyph-0-13" x="276" y="50"/>
<use xlink:href="#glyph-0-9" x="297" y="50"/>
<use xlink:href="#glyph-0-1" x="318" y="50"/>
<use xlink:href="#glyph-0-12" x="327" y="50"/>
<use xlink:href="#glyph-0-8" x="344" y="50"/>
<use xlink:href="#glyph-0-10" x="364" y="50"/>
</g>
</svg>
