<?xml version="1.0" encoding="UTF-8"?>
<svg xmlns="http://www.w3.org/2000/svg" xmlns:xlink="http://www.w3.org/1999/xlink" width="1920" height="1080" viewBox="0 0 1920 1080">
<defs>
<g>
<g id="glyph-0-0">
<path d="M 31.710938 -29.503906 C 31.710938 -28.378906 31.554688 -27.3125 31.238281 -26.3125 C 30.921875 -25.308594 30.464844 -24.390625 29.863281 -23.5625 C 29.261719 -22.730469 28.535156 -21.996094 27.6875 -21.355469 C 26.835938 -20.714844 25.886719 -20.203125 24.835938 -19.824219 C 25.675781 -19.671875 26.449219 -19.402344 27.15625 -19.019531 C 27.863281 -18.640625 28.46875 -18.152344 28.976562 -17.558594 C 29.480469 -16.96875 29.871094 -16.265625 30.148438 -15.453125 C 30.425781 -14.644531 30.566406 -13.730469 30.566406 -12.71875 C 30.566406 -11.800781 30.441406 -10.851562 30.191406 -9.867188 C 29.945312 -8.886719 29.554688 -7.925781 29.019531 -6.988281 C 28.484375 -6.054688 27.785156 -5.160156 26.925781 -4.3125 C 26.066406 -3.460938 25.03125 -2.714844 23.820312 -2.078125 C 22.605469 -1.4375 21.207031 -0.929688 19.621094 -0.558594 C 18.039062 -0.1875 16.195312 0 14.09375 0 L 3.808594 0 C 3.027344 0 2.457031 -0.191406 2.105469 -0.574219 C 1.753906 -0.953125 1.660156 -1.554688 1.832031 -2.378906 L 8.308594 -34.691406 C 8.460938 -35.53125 8.800781 -36.136719 9.324219 -36.507812 C 9.847656 -36.882812 10.457031 -37.066406 11.144531 -37.066406 L 20.050781 -37.066406 C 22.019531 -37.066406 23.71875 -36.914062 25.152344 -36.609375 C 26.582031 -36.304688 27.785156 -35.839844 28.761719 -35.21875 C 29.734375 -34.597656 30.46875 -33.816406 30.964844 -32.871094 C 31.460938 -31.925781 31.710938 -30.804688 31.710938 -29.503906 M 23.949219 -28.101562 C 23.949219 -28.636719 23.851562 -29.105469 23.660156 -29.503906 C 23.46875 -29.90625 23.183594 -30.25 22.800781 -30.535156 C 22.421875 -30.824219 21.9375 -31.042969 21.355469 -31.195312 C 20.773438 -31.347656 20.03125 -31.425781 19.136719 -31.425781 L 15.039062 -31.425781 L 13.089844 -21.800781 L 17.332031 -21.800781 C 18.570312 -21.800781 19.601562 -21.996094 20.425781 -22.386719 C 21.246094 -22.777344 21.917969 -23.285156 22.445312 -23.90625 C 22.96875 -24.527344 23.351562 -25.207031 23.589844 -25.953125 C 23.828125 -26.699219 23.949219 -27.414062 23.949219 -28.101562 M 22.6875 -12.347656 C 22.6875 -13.570312 22.234375 -14.53125 21.328125 -15.238281 C 20.417969 -15.945312 18.972656 -16.300781 16.988281 -16.300781 L 11.972656 -16.300781 L 9.882812 -5.757812 L 15.210938 -5.757812 C 16.566406 -5.757812 17.707031 -5.949219 18.632812 -6.332031 C 19.558594 -6.710938 20.324219 -7.210938 20.925781 -7.820312 C 21.527344 -8.429688 21.972656 -9.132812 22.257812 -9.925781 C 22.542969 -10.71875 22.6875 -11.523438 22.6875 -12.347656 Z "/>
</g>
<g id="glyph-0-1">
<path d="M 29.332031 -17.933594 C 29.332031 -16.558594 29.203125 -15.144531 28.945312 -13.691406 C 28.6875 -12.242188 28.28125 -10.824219 27.730469 -9.4375 C 27.175781 -8.054688 26.464844 -6.753906 25.59375 -5.542969 C 24.726562 -4.332031 23.683594 -3.261719 22.472656 -2.335938 C 21.261719 -1.410156 19.871094 -0.679688 18.304688 -0.144531 C 16.738281 0.390625 14.972656 0.660156 13.003906 0.660156 C 11.078125 0.660156 9.410156 0.433594 8.007812 -0.015625 C 6.601562 -0.464844 5.433594 -1.121094 4.496094 -1.992188 C 3.5625 -2.859375 2.863281 -3.929688 2.40625 -5.199219 C 1.949219 -6.46875 1.71875 -7.925781 1.71875 -9.566406 C 1.71875 -10.941406 1.847656 -12.355469 2.105469 -13.808594 C 2.363281 -15.257812 2.769531 -16.671875 3.324219 -18.046875 C 3.875 -19.421875 4.589844 -20.726562 5.457031 -21.957031 C 6.324219 -23.1875 7.367188 -24.261719 8.578125 -25.179688 C 9.792969 -26.097656 11.179688 -26.820312 12.746094 -27.355469 C 14.3125 -27.890625 16.078125 -28.160156 18.046875 -28.160156 C 19.976562 -28.160156 21.640625 -27.933594 23.046875 -27.484375 C 24.449219 -27.035156 25.617188 -26.378906 26.554688 -25.507812 C 27.492188 -24.640625 28.1875 -23.570312 28.644531 -22.300781 C 29.105469 -21.03125 29.332031 -19.574219 29.332031 -17.933594 M 21.886719 -17.445312 C 21.886719 -18.246094 21.804688 -18.957031 21.640625 -19.578125 C 21.480469 -20.199219 21.210938 -20.726562 20.839844 -21.15625 C 20.46875 -21.585938 19.988281 -21.914062 19.40625 -22.144531 C 18.824219 -22.371094 18.113281 -22.488281 17.273438 -22.488281 C 16.320312 -22.488281 15.460938 -22.300781 14.695312 -21.929688 C 13.929688 -21.554688 13.25 -21.054688 12.648438 -20.425781 C 12.046875 -19.792969 11.523438 -19.0625 11.085938 -18.234375 C 10.648438 -17.402344 10.285156 -16.527344 9.996094 -15.613281 C 9.710938 -14.695312 9.5 -13.765625 9.367188 -12.820312 C 9.234375 -11.875 9.167969 -10.972656 9.167969 -10.113281 C 9.167969 -9.308594 9.246094 -8.59375 9.410156 -7.964844 C 9.574219 -7.332031 9.839844 -6.804688 10.210938 -6.375 C 10.585938 -5.945312 11.0625 -5.613281 11.644531 -5.386719 C 12.226562 -5.15625 12.9375 -5.042969 13.777344 -5.042969 C 14.734375 -5.042969 15.59375 -5.226562 16.355469 -5.601562 C 17.121094 -5.972656 17.804688 -6.480469 18.40625 -7.117188 C 19.007812 -7.757812 19.527344 -8.492188 19.964844 -9.324219 C 20.40625 -10.15625 20.769531 -11.035156 21.054688 -11.960938 C 21.339844 -12.886719 21.550781 -13.816406 21.683594 -14.753906 C 21.820312 -15.6875 21.886719 -16.585938 21.886719 -17.445312 Z "/>
</g>
<g id="glyph-0-2">
<path d="M 29.332031 -18.417969 C 29.332031 -17.160156 29.21875 -15.8125 28.988281 -14.378906 C 28.761719 -12.949219 28.40625 -11.523438 27.929688 -10.113281 C 27.453125 -8.699219 26.839844 -7.34375 26.097656 -6.042969 C 25.351562 -4.746094 24.453125 -3.601562 23.402344 -2.605469 C 22.351562 -1.613281 21.15625 -0.820312 19.808594 -0.230469 C 18.460938 0.363281 16.957031 0.660156 15.296875 0.660156 C 13.691406 0.660156 12.273438 0.34375 11.042969 -0.285156 C 9.8125 -0.917969 8.746094 -1.871094 7.847656 -3.152344 L 7.417969 -0.972656 C 7.34375 -0.574219 7.042969 -0.28125 6.515625 -0.101562 C 5.992188 0.0820312 5.148438 0.171875 3.980469 0.171875 C 2.835938 0.171875 2.058594 0.078125 1.648438 -0.113281 C 1.238281 -0.304688 1.070312 -0.59375 1.144531 -0.972656 L 8.679688 -38.644531 C 8.71875 -38.835938 8.804688 -39.007812 8.9375 -39.160156 C 9.070312 -39.3125 9.289062 -39.441406 9.597656 -39.546875 C 9.902344 -39.652344 10.289062 -39.730469 10.757812 -39.789062 C 11.222656 -39.847656 11.8125 -39.875 12.519531 -39.875 C 13.226562 -39.875 13.796875 -39.847656 14.238281 -39.789062 C 14.675781 -39.730469 15.023438 -39.652344 15.28125 -39.546875 C 15.539062 -39.441406 15.707031 -39.3125 15.785156 -39.160156 C 15.859375 -39.007812 15.878906 -38.835938 15.839844 -38.644531 L 13.808594 -28.386719 C 13.710938 -27.949219 13.605469 -27.484375 13.492188 -27 C 13.378906 -26.511719 13.25 -26.03125 13.105469 -25.550781 C 12.960938 -25.074219 12.820312 -24.613281 12.675781 -24.164062 C 12.53125 -23.714844 12.394531 -23.316406 12.261719 -22.972656 C 12.605469 -23.585938 13.097656 -24.199219 13.734375 -24.820312 C 14.375 -25.441406 15.105469 -26 15.925781 -26.496094 C 16.75 -26.992188 17.632812 -27.394531 18.578125 -27.699219 C 19.523438 -28.007812 20.472656 -28.160156 21.425781 -28.160156 C 22.515625 -28.160156 23.460938 -28.019531 24.261719 -27.742188 C 25.066406 -27.464844 25.761719 -27.089844 26.355469 -26.613281 C 26.945312 -26.132812 27.433594 -25.570312 27.816406 -24.921875 C 28.195312 -24.273438 28.503906 -23.589844 28.730469 -22.875 C 28.960938 -22.15625 29.117188 -21.417969 29.203125 -20.652344 C 29.289062 -19.890625 29.332031 -19.144531 29.332031 -18.417969 M 21.914062 -17.703125 C 21.914062 -18.179688 21.878906 -18.675781 21.8125 -19.191406 C 21.746094 -19.707031 21.605469 -20.175781 21.382812 -20.597656 C 21.164062 -21.015625 20.863281 -21.359375 20.480469 -21.628906 C 20.101562 -21.894531 19.59375 -22.027344 18.964844 -22.027344 C 18.105469 -22.027344 17.238281 -21.777344 16.371094 -21.269531 C 15.503906 -20.761719 14.6875 -20.070312 13.921875 -19.191406 C 13.15625 -18.3125 12.480469 -17.292969 11.886719 -16.128906 C 11.296875 -14.960938 10.875 -13.722656 10.628906 -12.402344 L 9.824219 -8.535156 C 10.492188 -7.484375 11.234375 -6.707031 12.046875 -6.203125 C 12.855469 -5.695312 13.796875 -5.441406 14.867188 -5.441406 C 15.632812 -5.441406 16.335938 -5.628906 16.988281 -6 C 17.636719 -6.375 18.222656 -6.867188 18.75 -7.476562 C 19.273438 -8.085938 19.730469 -8.804688 20.125 -9.625 C 20.515625 -10.445312 20.84375 -11.308594 21.113281 -12.21875 C 21.378906 -13.125 21.578125 -14.046875 21.714844 -14.980469 C 21.847656 -15.917969 21.914062 -16.824219 21.914062 -17.703125 Z "/>
</g>
</g>
</defs>
<g fill="rgb(34.509804%, 76.862745%, 86.666667%)" fill-opacity="1">
<use xlink:href="#glyph-0-0" x="30" y="64"/>
<use xlink:href="#glyph-0-1" x="63" y="64"/>
<use xlink:href="#glyph-0-2" x="94" y="64"/>
</g>
</svg>
