<?xml version="1.0" encoding="UTF-8"?>
<svg xmlns="http://www.w3.org/2000/svg" xmlns:xlink="http://www.w3.org/1999/xlink" width="1920" height="1080" viewBox="0 0 1920 1080">
<defs>
<g>
<g id="glyph-0-0">
<path d="M 22.285156 -1.191406 C 22.390625 -0.90625 22.445312 -0.671875 22.453125 -0.5 C 22.457031 -0.320312 22.410156 -0.1875 22.304688 -0.0976562 C 22.199219 -0.0078125 22.027344 0.0507812 21.789062 0.078125 C 21.546875 0.105469 21.222656 0.117188 20.820312 0.117188 C 20.417969 0.117188 20.09375 0.109375 19.851562 0.0859375 C 19.613281 0.0703125 19.429688 0.0351562 19.304688 -0.0078125 C 19.183594 -0.0546875 19.09375 -0.117188 19.03125 -0.195312 C 18.976562 -0.273438 18.917969 -0.371094 18.867188 -0.488281 L 16.699219 -6.640625 L 6.191406 -6.640625 L 4.121094 -0.566406 C 4.082031 -0.449219 4.03125 -0.347656 3.964844 -0.265625 C 3.898438 -0.179688 3.804688 -0.109375 3.679688 -0.046875 C 3.558594 0.0078125 3.382812 0.0507812 3.15625 0.078125 C 2.925781 0.105469 2.628906 0.117188 2.265625 0.117188 C 1.886719 0.117188 1.578125 0.101562 1.335938 0.0703125 C 1.097656 0.0351562 0.929688 -0.0273438 0.828125 -0.117188 C 0.734375 -0.207031 0.6875 -0.34375 0.695312 -0.515625 C 0.699219 -0.695312 0.753906 -0.925781 0.859375 -1.210938 L 9.335938 -24.6875 C 9.386719 -24.832031 9.457031 -24.949219 9.539062 -25.039062 C 9.625 -25.128906 9.75 -25.203125 9.914062 -25.253906 C 10.074219 -25.304688 10.28125 -25.34375 10.539062 -25.359375 C 10.789062 -25.382812 11.113281 -25.390625 11.503906 -25.390625 C 11.921875 -25.390625 12.265625 -25.382812 12.539062 -25.359375 C 12.8125 -25.34375 13.035156 -25.304688 13.203125 -25.253906 C 13.371094 -25.203125 13.503906 -25.125 13.59375 -25.03125 C 13.683594 -24.929688 13.757812 -24.8125 13.808594 -24.667969 L 22.285156 -1.191406 M 11.40625 -21.914062 L 11.386719 -21.914062 L 7.03125 -9.316406 L 15.820312 -9.316406 Z "/>
</g>
<g id="glyph-0-1">
<path d="M 6.210938 -0.488281 C 6.210938 -0.382812 6.183594 -0.296875 6.132812 -0.226562 C 6.082031 -0.152344 5.996094 -0.0898438 5.878906 -0.0390625 C 5.761719 0.0117188 5.597656 0.0507812 5.390625 0.078125 C 5.183594 0.105469 4.914062 0.117188 4.589844 0.117188 C 4.277344 0.117188 4.015625 0.105469 3.808594 0.078125 C 3.601562 0.0507812 3.433594 0.0117188 3.3125 -0.0390625 C 3.1875 -0.0898438 3.101562 -0.152344 3.054688 -0.226562 C 3.011719 -0.296875 2.988281 -0.382812 2.988281 -0.488281 L 2.988281 -26.582031 C 2.988281 -26.6875 3.011719 -26.777344 3.054688 -26.855469 C 3.101562 -26.933594 3.1875 -27 3.3125 -27.050781 C 3.433594 -27.101562 3.601562 -27.140625 3.808594 -27.167969 C 4.015625 -27.195312 4.277344 -27.207031 4.589844 -27.207031 C 4.914062 -27.207031 5.183594 -27.195312 5.390625 -27.167969 C 5.597656 -27.140625 5.761719 -27.101562 5.878906 -27.050781 C 5.996094 -27 6.082031 -26.933594 6.132812 -26.855469 C 6.183594 -26.777344 6.210938 -26.6875 6.210938 -26.582031 Z "/>
</g>
<g id="glyph-0-2">
<path d="M 6.210938 -0.488281 C 6.210938 -0.382812 6.183594 -0.296875 6.132812 -0.226562 C 6.082031 -0.152344 5.996094 -0.0898438 5.878906 -0.0390625 C 5.761719 0.0117188 5.597656 0.0507812 5.390625 0.078125 C 5.183594 0.105469 4.914062 0.117188 4.589844 0.117188 C 4.277344 0.117188 4.015625 0.105469 3.808594 0.078125 C 3.601562 0.0507812 3.433594 0.0117188 3.3125 -0.0390625 C 3.1875 -0.0898438 3.101562 -0.152344 3.054688 -0.226562 C 3.011719 -0.296875 2.988281 -0.382812 2.988281 -0.488281 L 2.988281 -18.066406 C 2.988281 -18.15625 3.011719 -18.242188 3.054688 -18.320312 C 3.101562 -18.398438 3.1875 -18.464844 3.3125 -18.515625 C 3.433594 -18.566406 3.601562 -18.605469 3.808594 -18.632812 C 4.015625 -18.660156 4.277344 -18.671875 4.589844 -18.671875 C 4.914062 -18.671875 5.183594 -18.660156 5.390625 -18.632812 C 5.597656 -18.605469 5.761719 -18.566406 5.878906 -18.515625 C 5.996094 -18.464844 6.082031 -18.398438 6.132812 -18.320312 C 6.183594 -18.242188 6.210938 -18.15625 6.210938 -18.066406 L 6.210938 -0.488281 M 6.582031 -24.003906 C 6.582031 -23.25 6.4375 -22.734375 6.152344 -22.460938 C 5.867188 -22.1875 5.339844 -22.050781 4.570312 -22.050781 C 3.816406 -22.050781 3.296875 -22.183594 3.015625 -22.453125 C 2.738281 -22.71875 2.597656 -23.222656 2.597656 -23.964844 C 2.597656 -24.71875 2.742188 -25.234375 3.027344 -25.507812 C 3.3125 -25.78125 3.839844 -25.917969 4.609375 -25.917969 C 5.363281 -25.917969 5.882812 -25.785156 6.164062 -25.515625 C 6.441406 -25.25 6.582031 -24.746094 6.582031 -24.003906 Z "/>
</g>
<g id="glyph-0-3">
<path d="M 15.625 -3.164062 C 15.625 -2.941406 15.617188 -2.75 15.605469 -2.585938 C 15.59375 -2.425781 15.570312 -2.289062 15.539062 -2.179688 C 15.503906 -2.066406 15.464844 -1.96875 15.421875 -1.882812 C 15.375 -1.800781 15.269531 -1.675781 15.109375 -1.515625 C 14.945312 -1.351562 14.667969 -1.148438 14.277344 -0.90625 C 13.886719 -0.667969 13.445312 -0.453125 12.960938 -0.265625 C 12.46875 -0.0742188 11.941406 0.078125 11.367188 0.195312 C 10.792969 0.3125 10.203125 0.371094 9.589844 0.371094 C 8.328125 0.371094 7.207031 0.164062 6.230469 -0.253906 C 5.253906 -0.671875 4.4375 -1.28125 3.78125 -2.078125 C 3.121094 -2.882812 2.621094 -3.863281 2.273438 -5.03125 C 1.929688 -6.195312 1.757812 -7.539062 1.757812 -9.0625 C 1.757812 -10.792969 1.96875 -12.28125 2.390625 -13.523438 C 2.816406 -14.769531 3.394531 -15.789062 4.132812 -16.582031 C 4.867188 -17.375 5.734375 -17.964844 6.726562 -18.351562 C 7.726562 -18.734375 8.800781 -18.925781 9.960938 -18.925781 C 10.519531 -18.925781 11.0625 -18.875 11.59375 -18.769531 C 12.117188 -18.664062 12.605469 -18.527344 13.046875 -18.359375 C 13.488281 -18.191406 13.882812 -17.996094 14.226562 -17.773438 C 14.574219 -17.550781 14.824219 -17.363281 14.980469 -17.207031 C 15.136719 -17.050781 15.242188 -16.925781 15.304688 -16.835938 C 15.359375 -16.746094 15.410156 -16.636719 15.449219 -16.515625 C 15.488281 -16.390625 15.515625 -16.25 15.527344 -16.09375 C 15.539062 -15.9375 15.546875 -15.742188 15.546875 -15.507812 C 15.546875 -15 15.488281 -14.644531 15.371094 -14.445312 C 15.253906 -14.242188 15.109375 -14.140625 14.941406 -14.140625 C 14.746094 -14.140625 14.523438 -14.25 14.265625 -14.460938 C 14.015625 -14.679688 13.691406 -14.914062 13.300781 -15.175781 C 12.910156 -15.4375 12.4375 -15.671875 11.882812 -15.890625 C 11.332031 -16.101562 10.675781 -16.210938 9.921875 -16.210938 C 8.371094 -16.210938 7.183594 -15.617188 6.359375 -14.421875 C 5.53125 -13.234375 5.117188 -11.503906 5.117188 -9.238281 C 5.117188 -8.105469 5.226562 -7.113281 5.4375 -6.257812 C 5.65625 -5.40625 5.96875 -4.695312 6.386719 -4.121094 C 6.804688 -3.546875 7.3125 -3.121094 7.921875 -2.84375 C 8.523438 -2.5625 9.21875 -2.421875 10 -2.421875 C 10.742188 -2.421875 11.394531 -2.539062 11.953125 -2.773438 C 12.511719 -3.007812 13 -3.265625 13.40625 -3.546875 C 13.820312 -3.824219 14.164062 -4.078125 14.445312 -4.304688 C 14.722656 -4.535156 14.941406 -4.648438 15.097656 -4.648438 C 15.1875 -4.648438 15.265625 -4.621094 15.332031 -4.570312 C 15.398438 -4.519531 15.453125 -4.429688 15.5 -4.304688 C 15.542969 -4.183594 15.578125 -4.027344 15.59375 -3.835938 C 15.617188 -3.648438 15.625 -3.425781 15.625 -3.164062 Z "/>
</g>
<g id="glyph-0-4">
<path d="M 17.988281 -10.039062 C 17.988281 -9.53125 17.859375 -9.171875 17.605469 -8.953125 C 17.351562 -8.742188 17.058594 -8.632812 16.734375 -8.632812 L 5.15625 -8.632812 C 5.15625 -7.65625 5.253906 -6.777344 5.449219 -5.996094 C 5.648438 -5.214844 5.972656 -4.542969 6.433594 -3.984375 C 6.890625 -3.425781 7.484375 -2.996094 8.21875 -2.695312 C 8.949219 -2.394531 9.847656 -2.246094 10.90625 -2.246094 C 11.742188 -2.246094 12.488281 -2.3125 13.144531 -2.453125 C 13.796875 -2.585938 14.363281 -2.742188 14.839844 -2.910156 C 15.320312 -3.078125 15.710938 -3.234375 16.019531 -3.367188 C 16.328125 -3.507812 16.558594 -3.574219 16.714844 -3.574219 C 16.808594 -3.574219 16.890625 -3.550781 16.960938 -3.507812 C 17.035156 -3.460938 17.089844 -3.390625 17.128906 -3.300781 C 17.167969 -3.210938 17.195312 -3.082031 17.214844 -2.921875 C 17.234375 -2.757812 17.246094 -2.558594 17.246094 -2.324219 C 17.246094 -2.15625 17.238281 -2.007812 17.226562 -1.882812 C 17.214844 -1.761719 17.195312 -1.648438 17.179688 -1.554688 C 17.15625 -1.453125 17.125 -1.367188 17.078125 -1.289062 C 17.035156 -1.210938 16.976562 -1.136719 16.90625 -1.0625 C 16.832031 -0.992188 16.621094 -0.875 16.269531 -0.710938 C 15.917969 -0.550781 15.460938 -0.390625 14.902344 -0.234375 C 14.34375 -0.078125 13.695312 0.0625 12.960938 0.1875 C 12.222656 0.308594 11.4375 0.371094 10.605469 0.371094 C 9.160156 0.371094 7.894531 0.167969 6.804688 -0.234375 C 5.71875 -0.636719 4.804688 -1.238281 4.0625 -2.03125 C 3.320312 -2.824219 2.761719 -3.820312 2.382812 -5.019531 C 2.003906 -6.21875 1.816406 -7.609375 1.816406 -9.199219 C 1.816406 -10.710938 2.011719 -12.066406 2.402344 -13.273438 C 2.792969 -14.476562 3.355469 -15.5 4.09375 -16.335938 C 4.828125 -17.179688 5.714844 -17.820312 6.757812 -18.273438 C 7.800781 -18.71875 8.964844 -18.945312 10.253906 -18.945312 C 11.632812 -18.945312 12.808594 -18.722656 13.78125 -18.28125 C 14.75 -17.839844 15.546875 -17.242188 16.171875 -16.492188 C 16.796875 -15.746094 17.253906 -14.867188 17.546875 -13.859375 C 17.839844 -12.847656 17.988281 -11.769531 17.988281 -10.625 L 17.988281 -10.039062 M 14.746094 -10.996094 C 14.785156 -12.6875 14.410156 -14.015625 13.617188 -14.980469 C 12.824219 -15.945312 11.648438 -16.425781 10.089844 -16.425781 C 9.289062 -16.425781 8.589844 -16.277344 7.984375 -15.976562 C 7.382812 -15.675781 6.878906 -15.28125 6.472656 -14.785156 C 6.066406 -14.289062 5.753906 -13.714844 5.53125 -13.054688 C 5.308594 -12.398438 5.183594 -11.710938 5.15625 -10.996094 Z "/>
</g>
<g id="glyph-0-5">
<path d="M 7.753906 -15.625 C 7.753906 -15.207031 7.726562 -14.855469 7.664062 -14.570312 C 7.609375 -14.285156 7.496094 -14.054688 7.335938 -13.875 C 7.171875 -13.703125 6.960938 -13.578125 6.699219 -13.507812 C 6.4375 -13.433594 6.105469 -13.398438 5.703125 -13.398438 C 5.285156 -13.398438 4.949219 -13.433594 4.6875 -13.507812 C 4.425781 -13.578125 4.21875 -13.703125 4.0625 -13.875 C 3.90625 -14.054688 3.796875 -14.285156 3.742188 -14.570312 C 3.679688 -14.855469 3.652344 -15.207031 3.652344 -15.625 C 3.652344 -16.066406 3.679688 -16.433594 3.742188 -16.726562 C 3.796875 -17.019531 3.90625 -17.253906 4.0625 -17.429688 C 4.21875 -17.605469 4.425781 -17.730469 4.6875 -17.804688 C 4.949219 -17.875 5.285156 -17.910156 5.703125 -17.910156 C 6.105469 -17.910156 6.4375 -17.875 6.699219 -17.804688 C 6.960938 -17.730469 7.171875 -17.605469 7.335938 -17.429688 C 7.496094 -17.253906 7.609375 -17.019531 7.664062 -16.726562 C 7.726562 -16.433594 7.753906 -16.066406 7.753906 -15.625 M 7.753906 -2.070312 C 7.753906 -1.640625 7.726562 -1.28125 7.664062 -0.996094 C 7.609375 -0.710938 7.496094 -0.476562 7.335938 -0.304688 C 7.171875 -0.125 6.960938 -0.00390625 6.699219 0.0703125 C 6.4375 0.140625 6.105469 0.175781 5.703125 0.175781 C 5.285156 0.175781 4.949219 0.140625 4.6875 0.0703125 C 4.425781 -0.00390625 4.21875 -0.125 4.0625 -0.304688 C 3.90625 -0.476562 3.796875 -0.710938 3.742188 -0.996094 C 3.679688 -1.28125 3.652344 -1.640625 3.652344 -2.070312 C 3.652344 -2.5 3.679688 -2.859375 3.742188 -3.15625 C 3.796875 -3.445312 3.90625 -3.679688 4.0625 -3.847656 C 4.21875 -4.015625 4.425781 -4.140625 4.6875 -4.21875 C 4.949219 -4.296875 5.285156 -4.335938 5.703125 -4.335938 C 6.105469 -4.335938 6.4375 -4.296875 6.699219 -4.21875 C 6.960938 -4.140625 7.171875 -4.015625 7.335938 -3.847656 C 7.496094 -3.679688 7.609375 -3.445312 7.664062 -3.15625 C 7.726562 -2.859375 7.753906 -2.5 7.753906 -2.070312 Z "/>
</g>
</g>
</defs>
<g fill="rgb(98.823529%, 38.431373%, 33.333333%)" fill-opacity="1">
<use xlink:href="#glyph-0-0" x="30" y="50"/>
<use xlink:href="#glyph-0-1" x="53" y="50"/>
<use xlink:href="#glyph-0-2" x="62" y="50"/>
<use xlink:href="#glyph-0-3" x="71" y="50"/>
<use xlink:href="#glyph-0-4" x="88" y="50"/>
<use xlink:href="#glyph-0-5" x="108" y="50"/>
</g>
</svg>
