<?xml version="1.0" encoding="UTF-8"?>
<svg xmlns="http://www.w3.org/2000/svg" xmlns:xlink="http://www.w3.org/1999/xlink" width="1920" height="1080" viewBox="0 0 1920 1080">
<defs>
<g>
<g id="glyph-0-0">
<path d="M 12.078125 -4.65625 C 12.078125 -3.980469 12.042969 -3.363281 11.980469 -2.800781 C 11.914062 -2.234375 11.804688 -1.703125 11.652344 -1.203125 C 11.5 -0.707031 11.300781 -0.210938 11.050781 0.277344 C 10.800781 0.765625 10.492188 1.28125 10.125 1.824219 L 5.664062 8.527344 C 5.554688 8.679688 5.429688 8.8125 5.289062 8.917969 C 5.148438 9.027344 4.976562 9.125 4.769531 9.210938 C 4.5625 9.300781 4.324219 9.359375 4.050781 9.390625 C 3.78125 9.421875 3.441406 9.441406 3.027344 9.441406 C 2.660156 9.441406 2.347656 9.421875 2.097656 9.390625 C 1.851562 9.359375 1.671875 9.304688 1.5625 9.226562 C 1.453125 9.152344 1.394531 9.050781 1.382812 8.917969 C 1.371094 8.789062 1.410156 8.636719 1.496094 8.464844 L 5.828125 -0.488281 L 5.828125 -4.65625 C 5.828125 -5.242188 5.886719 -5.707031 6.003906 -6.054688 C 6.125 -6.402344 6.316406 -6.664062 6.574219 -6.835938 C 6.835938 -7.007812 7.160156 -7.128906 7.550781 -7.195312 C 7.941406 -7.257812 8.421875 -7.292969 8.984375 -7.292969 C 9.527344 -7.292969 9.992188 -7.257812 10.382812 -7.195312 C 10.773438 -7.128906 11.09375 -7.007812 11.34375 -6.835938 C 11.59375 -6.664062 11.777344 -6.402344 11.898438 -6.054688 C 12.015625 -5.707031 12.078125 -5.242188 12.078125 -4.65625 Z "/>
</g>
</g>
</defs>
<g fill="rgb(100%, 100%, 100%)" fill-opacity="1">
<use xlink:href="#glyph-0-0" x="30" y="70"/>
</g>
</svg>
