<?xml version="1.0" encoding="UTF-8"?>
<svg xmlns="http://www.w3.org/2000/svg" xmlns:xlink="http://www.w3.org/1999/xlink" width="1920" height="1080" viewBox="0 0 1920 1080">
<defs>
<g>
<g id="glyph-0-0">
<path d="M 21.054688 -7.578125 C 21.054688 -6.679688 20.929688 -5.867188 20.683594 -5.136719 C 20.4375 -4.40625 20.09375 -3.761719 19.65625 -3.203125 C 19.222656 -2.644531 18.703125 -2.160156 18.09375 -1.757812 C 17.492188 -1.355469 16.824219 -1.023438 16.09375 -0.761719 C 15.363281 -0.5 14.585938 -0.308594 13.757812 -0.1875 C 12.933594 -0.0625 12.011719 0 10.996094 0 L 4.277344 0 C 3.847656 0 3.484375 -0.125 3.195312 -0.382812 C 2.898438 -0.632812 2.753906 -1.046875 2.753906 -1.621094 L 2.753906 -23.652344 C 2.753906 -24.226562 2.898438 -24.640625 3.195312 -24.890625 C 3.484375 -25.148438 3.847656 -25.273438 4.277344 -25.273438 L 10.625 -25.273438 C 12.175781 -25.273438 13.484375 -25.144531 14.5625 -24.882812 C 15.632812 -24.621094 16.539062 -24.226562 17.273438 -23.703125 C 18.011719 -23.171875 18.574219 -22.507812 18.964844 -21.699219 C 19.355469 -20.890625 19.550781 -19.941406 19.550781 -18.847656 C 19.550781 -18.234375 19.472656 -17.660156 19.316406 -17.117188 C 19.160156 -16.578125 18.933594 -16.085938 18.632812 -15.644531 C 18.332031 -15.203125 17.964844 -14.8125 17.53125 -14.472656 C 17.09375 -14.132812 16.59375 -13.859375 16.035156 -13.652344 C 16.75 -13.523438 17.410156 -13.292969 18.015625 -12.96875 C 18.621094 -12.644531 19.148438 -12.222656 19.601562 -11.710938 C 20.046875 -11.195312 20.402344 -10.59375 20.664062 -9.902344 C 20.925781 -9.210938 21.054688 -8.4375 21.054688 -7.578125 M 14.414062 -18.222656 C 14.414062 -18.730469 14.335938 -19.1875 14.179688 -19.589844 C 14.023438 -19.992188 13.789062 -20.328125 13.476562 -20.59375 C 13.164062 -20.863281 12.769531 -21.066406 12.296875 -21.210938 C 11.820312 -21.355469 11.183594 -21.425781 10.390625 -21.425781 L 7.792969 -21.425781 L 7.792969 -14.863281 L 10.664062 -14.863281 C 11.40625 -14.863281 12 -14.953125 12.441406 -15.125 C 12.882812 -15.304688 13.25 -15.542969 13.546875 -15.851562 C 13.835938 -16.15625 14.054688 -16.515625 14.199219 -16.921875 C 14.34375 -17.335938 14.414062 -17.765625 14.414062 -18.222656 M 15.722656 -7.402344 C 15.722656 -7.988281 15.625 -8.511719 15.429688 -8.976562 C 15.234375 -9.4375 14.949219 -9.824219 14.570312 -10.136719 C 14.191406 -10.449219 13.710938 -10.691406 13.125 -10.859375 C 12.539062 -11.027344 11.777344 -11.113281 10.839844 -11.113281 L 7.792969 -11.113281 L 7.792969 -3.925781 L 11.503906 -3.925781 C 12.21875 -3.925781 12.820312 -4 13.3125 -4.148438 C 13.796875 -4.300781 14.222656 -4.523438 14.578125 -4.8125 C 14.9375 -5.109375 15.21875 -5.472656 15.421875 -5.90625 C 15.621094 -6.34375 15.722656 -6.84375 15.722656 -7.402344 Z "/>
</g>
<g id="glyph-0-1">
<path d="M 17.304688 -0.605469 C 17.304688 -0.421875 17.238281 -0.28125 17.109375 -0.175781 C 16.980469 -0.0703125 16.773438 0.00390625 16.492188 0.046875 C 16.214844 0.09375 15.800781 0.117188 15.253906 0.117188 C 14.667969 0.117188 14.242188 0.09375 13.976562 0.046875 C 13.707031 0.00390625 13.519531 -0.0703125 13.40625 -0.175781 C 13.296875 -0.28125 13.242188 -0.421875 13.242188 -0.605469 L 13.242188 -1.992188 C 12.527344 -1.222656 11.710938 -0.625 10.789062 -0.195312 C 9.875 0.234375 8.855469 0.449219 7.734375 0.449219 C 6.808594 0.449219 5.960938 0.328125 5.1875 0.0859375 C 4.410156 -0.152344 3.742188 -0.511719 3.171875 -0.984375 C 2.609375 -1.460938 2.167969 -2.050781 1.855469 -2.753906 C 1.542969 -3.457031 1.386719 -4.277344 1.386719 -5.214844 C 1.386719 -6.230469 1.585938 -7.113281 1.984375 -7.859375 C 2.378906 -8.609375 2.972656 -9.226562 3.757812 -9.71875 C 4.546875 -10.203125 5.527344 -10.566406 6.699219 -10.800781 C 7.871094 -11.035156 9.230469 -11.152344 10.78125 -11.152344 L 12.480469 -11.152344 L 12.480469 -12.207031 C 12.480469 -12.753906 12.425781 -13.234375 12.3125 -13.640625 C 12.203125 -14.054688 12.023438 -14.394531 11.765625 -14.667969 C 11.515625 -14.941406 11.175781 -15.144531 10.75 -15.273438 C 10.328125 -15.402344 9.804688 -15.46875 9.179688 -15.46875 C 8.359375 -15.46875 7.625 -15.378906 6.984375 -15.195312 C 6.335938 -15.011719 5.769531 -14.8125 5.273438 -14.589844 C 4.777344 -14.367188 4.367188 -14.167969 4.03125 -13.984375 C 3.703125 -13.800781 3.429688 -13.710938 3.222656 -13.710938 C 3.078125 -13.710938 2.953125 -13.757812 2.84375 -13.847656 C 2.730469 -13.9375 2.640625 -14.070312 2.570312 -14.238281 C 2.496094 -14.40625 2.441406 -14.617188 2.402344 -14.863281 C 2.363281 -15.109375 2.34375 -15.382812 2.34375 -15.683594 C 2.34375 -16.085938 2.375 -16.40625 2.441406 -16.640625 C 2.507812 -16.875 2.628906 -17.085938 2.8125 -17.273438 C 2.996094 -17.464844 3.3125 -17.671875 3.769531 -17.898438 C 4.226562 -18.128906 4.757812 -18.339844 5.371094 -18.535156 C 5.984375 -18.730469 6.648438 -18.890625 7.375 -19.015625 C 8.09375 -19.136719 8.839844 -19.199219 9.609375 -19.199219 C 10.976562 -19.199219 12.144531 -19.066406 13.117188 -18.796875 C 14.085938 -18.53125 14.882812 -18.121094 15.507812 -17.570312 C 16.132812 -17.015625 16.589844 -16.300781 16.875 -15.429688 C 17.160156 -14.558594 17.304688 -13.523438 17.304688 -12.324219 L 17.304688 -0.605469 M 12.480469 -8.066406 L 10.605469 -8.066406 C 9.8125 -8.066406 9.132812 -8.007812 8.574219 -7.890625 C 8.015625 -7.773438 7.558594 -7.597656 7.207031 -7.363281 C 6.855469 -7.128906 6.597656 -6.84375 6.4375 -6.515625 C 6.273438 -6.179688 6.191406 -5.800781 6.191406 -5.371094 C 6.191406 -4.640625 6.421875 -4.070312 6.882812 -3.652344 C 7.347656 -3.234375 7.988281 -3.027344 8.808594 -3.027344 C 9.5 -3.027344 10.132812 -3.203125 10.710938 -3.554688 C 11.292969 -3.90625 11.882812 -4.421875 12.480469 -5.097656 Z "/>
</g>
<g id="glyph-0-2">
<path d="M 15.644531 -3.4375 C 15.644531 -3.097656 15.632812 -2.816406 15.617188 -2.585938 C 15.59375 -2.359375 15.570312 -2.167969 15.539062 -2.011719 C 15.503906 -1.855469 15.464844 -1.726562 15.421875 -1.632812 C 15.375 -1.53125 15.273438 -1.410156 15.117188 -1.257812 C 14.960938 -1.109375 14.695312 -0.929688 14.316406 -0.710938 C 13.9375 -0.5 13.507812 -0.304688 13.027344 -0.136719 C 12.546875 0.03125 12.023438 0.167969 11.453125 0.273438 C 10.890625 0.378906 10.304688 0.429688 9.707031 0.429688 C 8.367188 0.429688 7.179688 0.222656 6.140625 -0.195312 C 5.109375 -0.613281 4.238281 -1.226562 3.535156 -2.039062 C 2.832031 -2.855469 2.300781 -3.847656 1.945312 -5.019531 C 1.585938 -6.191406 1.40625 -7.53125 1.40625 -9.042969 C 1.40625 -10.789062 1.625 -12.296875 2.0625 -13.5625 C 2.496094 -14.832031 3.105469 -15.886719 3.886719 -16.71875 C 4.667969 -17.550781 5.59375 -18.171875 6.660156 -18.574219 C 7.726562 -18.976562 8.898438 -19.179688 10.175781 -19.179688 C 10.695312 -19.179688 11.207031 -19.132812 11.710938 -19.042969 C 12.210938 -18.953125 12.679688 -18.828125 13.117188 -18.671875 C 13.550781 -18.515625 13.941406 -18.339844 14.289062 -18.144531 C 14.632812 -17.949219 14.875 -17.78125 15.019531 -17.636719 C 15.164062 -17.492188 15.261719 -17.375 15.320312 -17.273438 C 15.378906 -17.179688 15.425781 -17.050781 15.460938 -16.894531 C 15.492188 -16.738281 15.515625 -16.546875 15.539062 -16.320312 C 15.554688 -16.089844 15.566406 -15.8125 15.566406 -15.488281 C 15.566406 -14.734375 15.5 -14.203125 15.371094 -13.898438 C 15.242188 -13.589844 15.070312 -13.4375 14.863281 -13.4375 C 14.640625 -13.4375 14.40625 -13.527344 14.160156 -13.710938 C 13.914062 -13.894531 13.621094 -14.09375 13.28125 -14.316406 C 12.941406 -14.539062 12.539062 -14.738281 12.070312 -14.921875 C 11.601562 -15.105469 11.042969 -15.195312 10.390625 -15.195312 C 9.113281 -15.195312 8.136719 -14.703125 7.460938 -13.71875 C 6.785156 -12.738281 6.445312 -11.296875 6.445312 -9.394531 C 6.445312 -8.457031 6.53125 -7.628906 6.699219 -6.914062 C 6.867188 -6.199219 7.117188 -5.597656 7.453125 -5.117188 C 7.78125 -4.636719 8.199219 -4.273438 8.703125 -4.03125 C 9.203125 -3.792969 9.785156 -3.671875 10.449219 -3.671875 C 11.125 -3.671875 11.710938 -3.773438 12.195312 -3.976562 C 12.6875 -4.175781 13.113281 -4.402344 13.476562 -4.648438 C 13.839844 -4.894531 14.148438 -5.121094 14.394531 -5.320312 C 14.640625 -5.523438 14.851562 -5.625 15.019531 -5.625 C 15.136719 -5.625 15.234375 -5.59375 15.3125 -5.527344 C 15.390625 -5.460938 15.453125 -5.34375 15.5 -5.164062 C 15.542969 -4.992188 15.578125 -4.765625 15.605469 -4.492188 C 15.632812 -4.21875 15.644531 -3.867188 15.644531 -3.4375 Z "/>
</g>
<g id="glyph-0-3">
<path d="M 19.101562 -0.664062 C 19.101562 -0.535156 19.0625 -0.421875 18.984375 -0.320312 C 18.90625 -0.226562 18.777344 -0.144531 18.59375 -0.078125 C 18.410156 -0.0117188 18.160156 0.0351562 17.84375 0.0703125 C 17.523438 0.101562 17.128906 0.117188 16.660156 0.117188 C 16.179688 0.117188 15.777344 0.101562 15.460938 0.0703125 C 15.140625 0.0351562 14.890625 -0.0117188 14.707031 -0.078125 C 14.523438 -0.144531 14.394531 -0.226562 14.316406 -0.320312 C 14.238281 -0.421875 14.199219 -0.535156 14.199219 -0.664062 L 14.199219 -10.605469 C 14.199219 -11.453125 14.136719 -12.117188 14.015625 -12.597656 C 13.890625 -13.078125 13.710938 -13.492188 13.476562 -13.835938 C 13.242188 -14.183594 12.9375 -14.449219 12.570312 -14.640625 C 12.195312 -14.828125 11.765625 -14.921875 11.269531 -14.921875 C 10.644531 -14.921875 10.011719 -14.695312 9.375 -14.238281 C 8.738281 -13.78125 8.074219 -13.117188 7.382812 -12.246094 L 7.382812 -0.664062 C 7.382812 -0.535156 7.34375 -0.421875 7.265625 -0.320312 C 7.1875 -0.226562 7.054688 -0.144531 6.867188 -0.078125 C 6.675781 -0.0117188 6.425781 0.0351562 6.113281 0.0703125 C 5.800781 0.101562 5.402344 0.117188 4.921875 0.117188 C 4.441406 0.117188 4.042969 0.101562 3.730469 0.0703125 C 3.417969 0.0351562 3.167969 -0.0117188 2.976562 -0.078125 C 2.789062 -0.144531 2.65625 -0.226562 2.578125 -0.320312 C 2.5 -0.421875 2.460938 -0.535156 2.460938 -0.664062 L 2.460938 -26.347656 C 2.460938 -26.476562 2.5 -26.59375 2.578125 -26.699219 C 2.65625 -26.804688 2.789062 -26.890625 2.976562 -26.960938 C 3.167969 -27.035156 3.417969 -27.089844 3.730469 -27.128906 C 4.042969 -27.167969 4.441406 -27.1875 4.921875 -27.1875 C 5.402344 -27.1875 5.800781 -27.167969 6.113281 -27.128906 C 6.425781 -27.089844 6.675781 -27.035156 6.867188 -26.960938 C 7.054688 -26.890625 7.1875 -26.804688 7.265625 -26.699219 C 7.34375 -26.59375 7.382812 -26.476562 7.382812 -26.347656 L 7.382812 -16.71875 C 8.230469 -17.550781 9.09375 -18.171875 9.96875 -18.585938 C 10.851562 -18.992188 11.765625 -19.199219 12.714844 -19.199219 C 13.898438 -19.199219 14.898438 -19.003906 15.710938 -18.613281 C 16.527344 -18.222656 17.183594 -17.6875 17.6875 -17.011719 C 18.1875 -16.335938 18.546875 -15.542969 18.769531 -14.640625 C 18.992188 -13.734375 19.101562 -12.636719 19.101562 -11.347656 Z "/>
</g>
</g>
</defs>
<g fill="rgb(100%, 100%, 100%)" fill-opacity="1">
<use xlink:href="#glyph-0-0" x="30" y="50"/>
<use xlink:href="#glyph-0-1" x="52" y="50"/>
<use xlink:href="#glyph-0-2" x="72" y="50"/>
<use xlink:href="#glyph-0-3" x="89" y="50"/>
</g>
</svg>
