<?xml version="1.0" encoding="UTF-8" standalone="no"?>
<svg
   version="1.1"
   width="1550.9969"
   height="1741.2889"
   id="svg18"
   sodipodi:docname="alice-bob-final1.svg"
   inkscape:version="1.4.4 (dcaf3e7, 2026-05-05)"
   xmlns:inkscape="http://www.inkscape.org/namespaces/inkscape"
   xmlns:sodipodi="http://sodipodi.sourceforge.net/DTD/sodipodi-0.dtd"
   xmlns="http://www.w3.org/2000/svg"
   xmlns:svg="http://www.w3.org/2000/svg">
  <defs
     id="defs18" />
  <sodipodi:namedview
     id="namedview18"
     pagecolor="#ffffff"
     bordercolor="#666666"
     borderopacity="1.0"
     inkscape:showpageshadow="2"
     inkscape:pageopacity="0.0"
     inkscape:pagecheckerboard="0"
     inkscape:deskcolor="#d1d1d1"
     inkscape:zoom="0.27863046"
     inkscape:cx="2185.6907"
     inkscape:cy="1078.4894"
     inkscape:window-width="1920"
     inkscape:window-height="1009"
     inkscape:window-x="1912"
     inkscape:window-y="-8"
     inkscape:window-maximized="1"
     inkscape:current-layer="fills">
    <inkscape:page
       x="0"
       y="0"
       width="1550.9969"
       height="1741.2889"
       id="page2"
       margin="0"
       bleed="0" />
  </sodipodi:namedview>
  <g
     id="ViewLayer_LineSet"
     inkscape:label="ViewLayer_LineSet"
     transform="translate(-342.14099,-210.537)">
    <g
       inkscape:groupmode="layer"
       inkscape:label="fills"
       id="fills">
      <path
         fill_rule="evenodd"
         stroke="none"
         fill-opacity="1"
         fill="#ff0a08"
         d="m 358.421,987.996 0.228,3.17 11.514,88.524 16.103,85.414 20.213,80.341 23.846,73.302 26.999,64.299 31.756,64.494 34.562,65.679 37.796,65.57 41.457,64.165 45.545,61.465 50.061,57.472 55.005,52.182 60.376,45.598 66.173,37.719 72.4,28.546 79.052,18.077 86.132,6.313 86.133,-6.313 79.052,-18.077 72.4,-28.546 66.173,-37.719 60.376,-45.598 55.005,-52.182 50.061,-57.472 45.545,-61.465 41.457,-64.165 37.796,-65.57 34.562,-65.679 31.756,-64.494 26.999,-64.299 23.846,-73.302 20.213,-80.341 16.103,-85.414 11.514,-88.524 0.271,-3.77 -719.6656,-578.3197 z"
         id="path4"
         sodipodi:nodetypes="ccccccccccccccccccccccccccccccccccccccc"
         style="fill:#ce3f37;fill-opacity:1"
         inkscape:export-filename="path4.svg"
         inkscape:export-xdpi="96"
         inkscape:export-ydpi="96" />
      <path
         fill_rule="evenodd"
         stroke="none"
         fill-opacity="1.0"
         fill="rgb(72, 4, 3)"
         d="m 1082.326,460.662 77.11,84.243 -39.33,66.047 -51.294,60.484 -61.2,55.007 -69.044,49.616 -74.827,44.31 -78.552,39.092 -80.215,33.958 -79.818,28.911 -77.361,23.95 -72.843,19.074 -66.265,14.285 -50.266,8.357 -7.362,1.224 -6.51,-90.567 -0.908,-89.739 5.178,-86.928 11.747,-82.134 18.8,-75.354 26.335,-66.592 34.355,-55.845 39.79,-46.503 42.212,-39.919 44.818,-33.82 47.607,-28.204 50.577,-23.074 53.731,-18.426 57.068,-14.263 60.587,-10.584 64.289,-7.39 68.173,-4.679 1.707,9.602 12.283,69.111 39.194,82.454 z"
         id="path2"
         style="fill:#962620;fill-opacity:1" />
      <path
         fill_rule="evenodd"
         stroke="none"
         fill-opacity="1.0"
         fill="rgb(72, 4, 3)"
         d="m 1884.22,989.22 -7.319,-1.824 -54.908,-13.683 -78.66,-30.739 -90.93,-44.075 -99.036,-55.512 -102.978,-65.053 -102.758,-72.696 -98.372,-78.442 -89.823,-82.291 -77.11,-84.243 -60.234,-84.296 -39.194,-82.454 -12.283,-69.111 -1.707,-9.602 72.241,-2.452 76.49,-0.71 76.491,0.71 72.241,2.452 68.173,4.679 64.289,7.39 60.587,10.584 57.068,14.263 53.731,18.426 50.577,23.074 47.607,28.204 44.818,33.82 42.212,39.919 39.789,46.503 34.356,55.845 26.335,66.592 18.8,75.354 11.747,82.134 5.178,86.928 -0.908,89.739 z"
         id="path3"
         style="fill:#962620;fill-opacity:1" />
      <path
         fill_rule="evenodd"
         stroke="none"
         fill-opacity="1.0"
         fill="rgb(11, 11, 11)"
         d="m 874.412,1172.377 -8.234,-4.979 -8.563,-1.681 -8.563,1.681 -8.234,4.979 -7.589,8.085 -6.651,10.881 -5.459,13.258 -4.056,15.126 -2.498,16.413 -0.843,17.069 0.843,17.069 2.498,16.413 4.056,15.126 5.459,13.259 6.651,10.881 7.589,8.085 8.234,4.979 8.563,1.681 8.563,-1.681 8.234,-4.979 7.589,-8.085 6.651,-10.881 5.459,-13.259 4.056,-15.126 2.497,-16.413 0.844,-17.069 -0.844,-17.069 -2.497,-16.413 -4.056,-15.126 -5.459,-13.258 -6.651,-10.881 z"
         id="path8"
         style="fill:#434343;fill-opacity:1" />
      <path
         fill_rule="evenodd"
         stroke="none"
         fill-opacity="1"
         fill="#0b0b0b"
         d="m 1377.664,1165.717 -8.563,1.681 -8.234,4.979 -7.589,8.085 -6.651,10.881 -5.459,13.258 -4.056,15.126 -2.498,16.413 -0.843,17.069 0.843,17.069 2.498,16.413 4.056,15.126 5.459,13.259 6.651,10.881 7.589,8.085 8.234,4.979 8.563,1.681 8.563,-1.681 8.234,-4.979 7.589,-8.085 6.651,-10.881 5.459,-13.259 4.056,-15.126 2.498,-16.413 0.843,-17.069 -0.843,-17.069 -2.498,-16.413 -4.056,-15.126 -5.459,-13.258 -6.651,-10.881 -7.589,-8.085 -8.234,-4.979 z"
         id="path9" />
    </g>
    <g
       inkscape:groupmode="layer"
       id="strokes"
       inkscape:label="strokes">
      <path
         fill="none"
         stroke-width="3"
         stroke-linecap="butt"
         stroke-opacity="1"
         stroke="#000000"
         stroke-linejoin="round"
         d="m 358.421,987.996 0.228,3.17 1.29,9.916 1.289,9.917 1.29,9.916 1.29,9.917 1.29,9.916 1.289,9.916 1.29,9.917 1.29,9.916 1.196,9.193 1.852,9.827 1.853,9.827 1.852,9.826 1.853,9.827 1.853,9.827 1.852,9.827 1.853,9.827 1.853,9.827 1.282,6.799 2.44,9.698 2.44,9.698 2.439,9.698 2.44,9.697 2.44,9.698 2.44,9.698 2.44,9.698 2.44,9.697 0.694,2.759 3.094,9.509 3.093,9.51 3.094,9.509 3.093,9.509 3.094,9.51 3.093,9.509 3.094,9.51 2.191,6.736 3.872,9.22 3.871,9.22 3.872,9.22 3.871,9.22 3.872,9.22 3.871,9.221 3.77,8.978 4.418,8.971 4.417,8.972 4.417,8.971 4.418,8.972 4.417,8.971 4.418,8.972 4.417,8.971 0.834,1.694 4.657,8.85 4.657,8.849 4.657,8.85 4.656,8.849 4.657,8.85 4.657,8.849 4.657,8.85 1.964,3.732 4.994,8.664 4.994,8.664 4.994,8.663 4.994,8.664 4.994,8.664 4.994,8.664 4.994,8.663 2.838,4.924 5.427,8.399 5.426,8.399 5.427,8.4 5.427,8.399 5.427,8.4 5.427,8.399 5.427,8.399 3.469,5.37 5.953,8.034 5.954,8.035 5.953,8.035 5.954,8.034 5.953,8.035 5.954,8.034 5.954,8.035 3.87,5.223 6.568,7.541 6.568,7.54 6.569,7.541 6.568,7.54 6.568,7.541 6.568,7.54 6.569,7.54 4.083,4.689 7.255,6.882 7.255,6.883 7.255,6.882 7.254,6.883 7.255,6.882 7.255,6.883 7.255,6.882 4.221,4.005 7.98,6.027 7.98,6.026 7.98,6.027 7.98,6.027 7.979,6.027 7.98,6.026 7.98,6.027 4.517,3.411 8.687,4.952 8.688,4.952 8.688,4.952 8.688,4.952 8.687,4.952 8.688,4.952 8.688,4.952 5.359,3.055 9.303,3.668 9.303,3.668 9.303,3.668 9.303,3.668 9.303,3.668 9.303,3.668 9.303,3.668 7.279,2.87 9.748,2.229 9.748,2.229 9.749,2.229 9.748,2.229 9.748,2.23 9.749,2.229 9.748,2.229 9.749,2.229 1.065,0.244 9.973,0.731 9.973,0.731 9.974,0.731 9.973,0.731 9.973,0.731 9.973,0.731 9.973,0.731 9.974,0.731 6.346,0.465 9.974,-0.731 9.973,-0.731 9.973,-0.731 9.973,-0.731 9.974,-0.731 9.973,-0.731 9.973,-0.731 9.973,-0.731 6.347,-0.465 9.749,-2.229 9.748,-2.23 9.748,-2.229 9.749,-2.229 9.748,-2.229 9.748,-2.229 9.749,-2.229 9.748,-2.23 1.065,-0.243 9.303,-3.668 9.303,-3.668 9.303,-3.668 9.303,-3.668 9.303,-3.668 9.303,-3.668 9.303,-3.668 7.279,-2.87 8.687,-4.952 8.688,-4.952 8.688,-4.952 8.688,-4.952 8.687,-4.952 8.688,-4.952 8.688,-4.952 5.359,-3.055 7.98,-6.027 7.98,-6.026 7.98,-6.027 7.98,-6.027 7.98,-6.027 7.98,-6.026 7.979,-6.027 4.517,-3.411 7.255,-6.883 7.254,-6.882 7.255,-6.883 7.255,-6.882 7.255,-6.883 7.254,-6.882 7.255,-6.883 4.222,-4.004 6.568,-7.541 6.568,-7.54 6.568,-7.541 6.569,-7.54 6.568,-7.541 6.568,-7.54 6.568,-7.54 4.084,-4.689 5.953,-8.034 5.954,-8.035 5.954,-8.035 5.953,-8.034 5.954,-8.035 5.953,-8.034 5.954,-8.035 3.87,-5.223 5.427,-8.4 5.427,-8.399 5.427,-8.399 5.427,-8.4 5.426,-8.399 5.427,-8.4 5.427,-8.399 3.469,-5.369 4.994,-8.664 4.994,-8.664 4.994,-8.663 4.994,-8.664 4.994,-8.664 4.994,-8.664 4.994,-8.663 2.838,-4.924 4.657,-8.849 4.657,-8.85 4.656,-8.849 4.657,-8.85 4.657,-8.849 4.657,-8.85 4.657,-8.849 1.964,-3.733 4.417,-8.971 4.418,-8.972 4.417,-8.971 4.417,-8.972 4.418,-8.971 4.417,-8.972 4.417,-8.971 0.835,-1.694 3.871,-9.22 3.872,-9.22 3.871,-9.221 3.872,-9.22 3.871,-9.22 3.872,-9.22 3.77,-8.978 3.093,-9.51 3.094,-9.509 3.093,-9.51 3.094,-9.509 3.093,-9.51 3.094,-9.509 3.093,-9.51 2.192,-6.735 2.44,-9.698 2.439,-9.698 2.441,-9.698 2.439,-9.697 2.44,-9.698 2.44,-9.698 2.44,-9.698 2.44,-9.697 0.694,-2.759 1.853,-9.827 1.853,-9.826 1.852,-9.827 1.853,-9.827 1.853,-9.827 1.852,-9.827 1.853,-9.827 1.852,-9.827 1.282,-6.799 1.29,-9.917 1.29,-9.916 1.29,-9.917 1.289,-9.916 1.29,-9.917 1.29,-9.916 1.29,-9.917 1.289,-9.916 1.196,-9.192 0.271,-3.77"
         id="path10" />
      <path
         fill="none"
         stroke-width="3"
         stroke-linecap="butt"
         stroke-opacity="1"
         stroke="#000000"
         stroke-linejoin="round"
         d="m 1884.22,989.22 -7.319,-1.824 -9.703,-2.418 -9.703,-2.418 -9.704,-2.418 -9.703,-2.418 -9.703,-2.418 -6.392,-1.593 -9.314,-3.64 -9.314,-3.64 -9.314,-3.639 -9.314,-3.64 -9.314,-3.64 -9.314,-3.64 -9.314,-3.64 -9.314,-3.639 -4.148,-1.621 -8.998,-4.362 -8.999,-4.362 -8.999,-4.361 -8.998,-4.362 -8.999,-4.362 -8.998,-4.361 -8.999,-4.362 -8.999,-4.362 -8.998,-4.362 -8.999,-4.361 -0.944,-0.458 -8.723,-4.889 -8.723,-4.89 -8.723,-4.889 -8.723,-4.89 -8.723,-4.889 -8.723,-4.89 -8.723,-4.889 -8.723,-4.89 -8.724,-4.889 -8.723,-4.89 -8.723,-4.889 -3.082,-1.728 -8.454,-5.341 -8.455,-5.34 -8.454,-5.341 -8.454,-5.341 -8.455,-5.341 -8.454,-5.34 -8.454,-5.341 -8.455,-5.341 -8.454,-5.341 -8.455,-5.34 -8.454,-5.341 -8.454,-5.341 -1.526,-0.964 -8.164,-5.775 -8.164,-5.776 -8.163,-5.775 -8.164,-5.775 -8.164,-5.776 -8.163,-5.775 -8.164,-5.776 -8.163,-5.775 -8.164,-5.776 -8.164,-5.775 -8.163,-5.775 -8.164,-5.776 -4.794,-3.391 -7.818,-6.235 -7.819,-6.234 -7.818,-6.235 -7.819,-6.234 -7.819,-6.235 -7.818,-6.234 -7.819,-6.235 -7.818,-6.235 -7.819,-6.234 -7.818,-6.235 -7.819,-6.234 -7.819,-6.235 -4.549,-3.627 -7.373,-6.755 -7.374,-6.756 -7.373,-6.755 -7.373,-6.755 -7.374,-6.755 -7.373,-6.755 -7.374,-6.755 -7.373,-6.755 -7.374,-6.756 -7.373,-6.755 -7.374,-6.755 -7.373,-6.755 -1.342,-1.229 -6.752,-7.377 -6.752,-7.376 -6.752,-7.376 -6.752,-7.377 -6.751,-7.376 -6.752,-7.377 -6.752,-7.376 -6.752,-7.376 -6.752,-7.377 -6.752,-7.376 -6.752,-7.377 -2.839,-3.102 -5.814,-8.136 -5.814,-8.136 -5.814,-8.136 -5.813,-8.137 -5.814,-8.136 -5.814,-8.137 -5.814,-8.136 -5.814,-8.136 -5.813,-8.136 -5.814,-8.137 -2.096,-2.933 -4.293,-9.032 -4.293,-9.031 -4.293,-9.032 -4.294,-9.031 -4.293,-9.032 -4.293,-9.031 -4.293,-9.032 -4.293,-9.032 -4.293,-9.031 -0.556,-1.17 -1.75,-9.845 -1.75,-9.846 -1.75,-9.846 -1.75,-9.845 -1.749,-9.846 -1.75,-9.846 -1.784,-10.037 -1.707,-9.602 9.994,-0.339 9.995,-0.339 9.994,-0.34 9.994,-0.339 9.994,-0.339 9.995,-0.339 9.994,-0.34 2.281,-0.077 9.999,-0.093 10,-0.093 10,-0.093 9.999,-0.092 10,-0.093 9.999,-0.093 10,-0.093 6.493,-0.06 10,0.093 10,0.093 9.999,0.092 10,0.093 9.999,0.093 10,0.093 9.999,0.093 6.494,0.06 9.994,0.339 9.995,0.339 9.994,0.34 9.994,0.339 9.994,0.339 9.994,0.339 9.995,0.34 2.281,0.077 9.976,0.685 9.977,0.685 9.976,0.684 9.977,0.685 9.976,0.685 9.977,0.684 8.314,0.571 9.935,1.142 9.934,1.142 9.935,1.142 9.934,1.142 9.935,1.142 9.935,1.141 4.681,0.539 9.851,1.721 9.851,1.72 9.85,1.721 9.851,1.721 9.851,1.721 9.851,1.721 1.482,0.259 9.701,2.425 9.702,2.424 9.702,2.425 9.701,2.425 9.702,2.425 8.56,2.139 9.459,3.244 9.459,3.244 9.459,3.244 9.46,3.244 9.459,3.243 6.435,2.207 9.098,4.151 9.098,4.15 9.098,4.151 9.098,4.15 9.098,4.151 5.087,2.321 8.604,5.097 8.603,5.097 8.604,5.097 8.603,5.097 8.604,5.097 4.589,2.719 7.982,6.023 7.982,6.024 7.983,6.023 7.982,6.024 7.982,6.023 4.907,3.703 7.265,6.871 7.266,6.871 7.266,6.871 7.265,6.871 7.266,6.871 5.884,5.564 6.501,7.598 6.502,7.598 6.501,7.599 6.501,7.598 6.502,7.598 6.501,7.598 0.781,0.914 5.24,8.517 5.24,8.517 5.24,8.518 5.239,8.517 5.24,8.517 5.24,8.518 2.917,4.741 3.677,9.299 3.678,9.299 3.678,9.299 3.677,9.3 3.678,9.299 3.678,9.299 3.677,9.299 0.592,1.498 2.421,9.702 2.421,9.703 2.42,9.702 2.421,9.703 2.42,9.703 2.421,9.702 2.421,9.703 1.855,7.436 1.416,9.899 1.416,9.9 1.415,9.899 1.416,9.899 1.416,9.9 1.416,9.899 1.416,9.899 1.416,9.899 0.42,2.94 0.594,9.982 0.595,9.982 0.595,9.983 0.594,9.982 0.595,9.982 0.594,9.983 0.595,9.982 0.595,9.982 0.421,7.07 -0.101,10 -0.102,9.999 -0.101,10 -0.101,9.999 -0.101,10 -0.101,9.999 -0.101,10 -0.102,9.999 -0.098,9.743 -0.717,9.975 -0.717,9.974 -0.717,9.974 -0.717,9.975 -0.717,9.974 -0.717,9.974 -0.717,9.974 -0.717,9.975 -0.774,10.772"
         id="path11" />
      <path
         fill="none"
         stroke-width="3"
         stroke-linecap="butt"
         stroke-opacity="1"
         stroke="#000000"
         stroke-linejoin="round"
         d="m 1377.664,1165.717 -8.563,1.681 -8.234,4.979 -6.844,7.291 -0.745,0.794 -5.215,8.532 -1.436,2.349 -3.807,9.247 -1.652,4.011 -2.59,9.659 -1.466,5.467 -1.504,9.887 -0.994,6.526 -0.493,9.988 -0.35,7.081 0.494,9.988 0.349,7.081 1.505,9.886 0.993,6.527 2.59,9.659 1.466,5.467 3.807,9.247 1.652,4.012 5.216,8.532 1.435,2.349 6.844,7.291 0.745,0.794 8.234,4.979 8.563,1.681 8.563,-1.681 8.234,-4.979 6.844,-7.292 0.745,-0.793 5.215,-8.533 1.436,-2.348 3.807,-9.247 1.652,-4.012 2.59,-9.658 1.466,-5.468 1.504,-9.886 0.994,-6.527 0.493,-9.988 0.35,-7.081 -0.494,-9.988 -0.349,-7.081 -1.505,-9.886 -0.993,-6.527 -2.59,-9.658 -1.466,-5.468 -3.807,-9.247 -1.652,-4.011 -5.216,-8.532 -1.435,-2.349 -6.844,-7.291 -0.745,-0.794 -8.234,-4.979 -8.563,-1.681"
         id="path12"
         style="fill:#434343;fill-opacity:1" />
      <path
         fill="none"
         stroke-width="3"
         stroke-linecap="butt"
         stroke-opacity="1"
         stroke="#000000"
         stroke-linejoin="round"
         d="m 874.412,1172.377 -8.234,-4.979 -8.563,-1.681 -8.563,1.681 -8.234,4.979 -6.844,7.291 -0.745,0.794 -5.215,8.532 -1.436,2.349 -3.807,9.247 -1.652,4.011 -2.59,9.659 -1.466,5.467 -1.504,9.887 -0.994,6.526 -0.493,9.988 -0.35,7.081 0.493,9.988 0.35,7.081 1.505,9.886 0.993,6.527 2.59,9.659 1.466,5.467 3.807,9.247 1.652,4.012 5.216,8.532 1.435,2.349 6.844,7.291 0.745,0.794 8.234,4.979 8.563,1.681 8.563,-1.681 8.234,-4.979 6.844,-7.292 0.745,-0.793 5.215,-8.533 1.436,-2.348 3.807,-9.247 1.652,-4.012 2.59,-9.658 1.466,-5.468 1.504,-9.886 0.993,-6.527 0.494,-9.988 0.35,-7.081 -0.494,-9.988 -0.35,-7.081 -1.504,-9.886 -0.993,-6.527 -2.59,-9.658 -1.466,-5.468 -3.808,-9.247 -1.651,-4.011 -5.216,-8.532 -1.435,-2.349 -6.844,-7.291 -0.745,-0.794"
         id="path13" />
      <path
         fill="none"
         stroke-width="3"
         stroke-linecap="butt"
         stroke-opacity="1"
         stroke="#000000"
         stroke-linejoin="round"
         d="m 1082.326,460.662 6.752,7.377 6.752,7.376 6.752,7.377 6.751,7.376 6.752,7.377 6.752,7.376 6.752,7.376 6.752,7.377 6.752,7.376 6.752,7.377 6.752,7.376 2.839,3.102 -5.116,8.592 -5.117,8.592 -5.116,8.592 -5.116,8.592 -5.117,8.592 -5.116,8.592 -5.116,8.592 -3.516,5.903 -6.468,7.626 -6.467,7.627 -6.468,7.627 -6.468,7.626 -6.468,7.627 -6.468,7.627 -6.468,7.626 -6.019,7.098 -7.438,6.685 -7.437,6.684 -7.437,6.685 -7.438,6.685 -7.437,6.685 -7.437,6.685 -7.438,6.684 -7.437,6.685 -1.701,1.529 -8.12,5.836 -8.121,5.835 -8.121,5.836 -8.121,5.835 -8.12,5.836 -8.121,5.836 -8.121,5.835 -8.12,5.836 -4.079,2.931 -8.604,5.095 -8.605,5.095 -8.604,5.096 -8.605,5.095 -8.604,5.095 -8.605,5.096 -8.604,5.095 -8.605,5.095 -5.991,3.548 -8.953,4.456 -8.953,4.455 -8.952,4.455 -8.953,4.456 -8.953,4.455 -8.952,4.455 -8.953,4.456 -8.953,4.455 -6.93,3.449 -9.209,3.898 -9.208,3.899 -9.209,3.898 -9.209,3.899 -9.209,3.898 -9.209,3.899 -9.208,3.898 -9.209,3.899 -6.545,2.77 -9.402,3.406 -9.402,3.405 -9.402,3.406 -9.403,3.406 -9.402,3.405 -9.402,3.406 -9.402,3.405 -9.403,3.406 -4.6,1.666 -9.552,2.957 -9.553,2.958 -9.553,2.957 -9.553,2.958 -9.552,2.957 -9.553,2.957 -9.553,2.957 -9.552,2.958 -0.94,0.291 -9.673,2.533 -9.674,2.533 -9.674,2.533 -9.674,2.533 -9.674,2.533 -9.674,2.533 -9.674,2.533 -5.126,1.343 -9.775,2.107 -9.776,2.107 -9.775,2.108 -9.776,2.107 -9.775,2.107 -9.776,2.108 -7.612,1.641 -9.865,1.64 -9.865,1.64 -9.864,1.64 -9.865,1.64 -9.864,1.64 -0.943,0.157 -7.362,1.224 -0.717,-9.974 -0.717,-9.975 -0.717,-9.974 -0.717,-9.974 -0.717,-9.974 -0.717,-9.975 -0.717,-9.974 -0.717,-9.974 -0.774,-10.773 -0.101,-9.999 -0.101,-9.999 -0.101,-10 -0.102,-9.999 -0.101,-10 -0.101,-9.999 -0.101,-10 -0.101,-9.999 -0.099,-9.744 0.595,-9.982 0.594,-9.982 0.595,-9.983 0.595,-9.982 0.594,-9.982 0.595,-9.983 0.594,-9.982 0.595,-9.982 0.421,-7.07 1.416,-9.9 1.416,-9.899 1.415,-9.899 1.416,-9.899 1.416,-9.9 1.416,-9.899 1.416,-9.899 1.416,-9.899 0.42,-2.94 2.421,-9.702 2.42,-9.703 2.421,-9.703 2.42,-9.702 2.421,-9.703 2.421,-9.702 2.42,-9.703 1.856,-7.436 3.677,-9.3 3.678,-9.299 3.677,-9.299 3.678,-9.299 3.678,-9.299 3.677,-9.3 3.678,-9.299 0.592,-1.497 5.24,-8.518 5.24,-8.517 5.24,-8.517 5.239,-8.518 5.24,-8.517 5.24,-8.517 2.916,-4.741 6.502,-7.599 6.501,-7.598 6.501,-7.598 6.502,-7.598 6.501,-7.599 6.501,-7.598 0.782,-0.913 7.266,-6.871 7.265,-6.871 7.266,-6.871 7.266,-6.871 7.265,-6.871 5.884,-5.564 7.982,-6.024 7.983,-6.023 7.982,-6.024 7.982,-6.023 7.983,-6.024 4.906,-3.702 8.604,-5.097 8.603,-5.097 8.604,-5.097 8.603,-5.098 8.603,-5.097 4.59,-2.718 9.098,-4.151 9.098,-4.151 9.098,-4.15 9.098,-4.15 9.098,-4.151 5.087,-2.321 9.459,-3.244 9.459,-3.244 9.46,-3.243 9.459,-3.244 9.459,-3.244 6.435,-2.207 9.702,-2.425 9.702,-2.424 9.701,-2.425 9.702,-2.425 9.701,-2.425 8.56,-2.139 9.851,-1.721 9.851,-1.721 9.851,-1.721 9.85,-1.721 9.851,-1.721 9.851,-1.721 1.482,-0.258 9.935,-1.142 9.934,-1.142 9.935,-1.142 9.934,-1.142 9.935,-1.142 9.935,-1.142 4.681,-0.538 9.976,-0.685 9.977,-0.684 9.976,-0.685 9.977,-0.685 9.977,-0.685 9.976,-0.684 8.314,-0.571 1.707,9.602 1.75,9.845 1.75,9.846 1.749,9.846 1.75,9.845 1.75,9.846 1.75,9.846 1.784,10.037 4.293,9.032 4.293,9.032 4.293,9.031 4.293,9.032 4.294,9.031 4.293,9.032 4.293,9.031 4.293,9.032 4.293,9.032 0.556,1.169 5.814,8.136 5.813,8.137 5.814,8.136 5.814,8.136 5.814,8.136 5.814,8.137 5.813,8.136 5.814,8.137 5.814,8.136 5.814,8.136 2.096,2.933"
         id="path14" />
    </g>
  </g>
</svg>