<?xml version="1.0" encoding="UTF-8" standalone="no"?>
<svg
   version="1.1"
   width="1550.9958"
   height="1741.2889"
   id="svg18"
   sodipodi:docname="alice-bob-final1.svg"
   inkscape:version="1.4.4 (dcaf3e7, 2026-05-05)"
   xmlns:inkscape="http://www.inkscape.org/namespaces/inkscape"
   xmlns:sodipodi="http://sodipodi.sourceforge.net/DTD/sodipodi-0.dtd"
   xmlns="http://www.w3.org/2000/svg"
   xmlns:svg="http://www.w3.org/2000/svg">
  <defs
     id="defs18" />
  <sodipodi:namedview
     id="namedview18"
     pagecolor="#ffffff"
     bordercolor="#666666"
     borderopacity="1.0"
     inkscape:showpageshadow="2"
     inkscape:pageopacity="0.0"
     inkscape:pagecheckerboard="0"
     inkscape:deskcolor="#d1d1d1"
     inkscape:zoom="0.27863046"
     inkscape:cx="2185.6907"
     inkscape:cy="1078.4894"
     inkscape:window-width="1920"
     inkscape:window-height="1009"
     inkscape:window-x="1912"
     inkscape:window-y="-8"
     inkscape:window-maximized="1"
     inkscape:current-layer="fills">
    <inkscape:page
       x="0"
       y="0"
       width="1550.9958"
       height="1741.2889"
       id="page2"
       margin="0"
       bleed="0" />
  </sodipodi:namedview>
  <g
     id="ViewLayer_LineSet"
     inkscape:label="ViewLayer_LineSet"
     transform="translate(-2310.3401,-210.537)">
    <g
       inkscape:groupmode="layer"
       inkscape:label="fills"
       id="fills">
      <path
         fill_rule="evenodd"
         stroke="none"
         fill-opacity="1"
         fill="#0d1aff"
         d="m 2320.385,899.815 0.017,1.681 6.445,89.67 11.514,88.524 16.103,85.414 20.214,80.341 23.846,73.302 26.999,64.299 31.756,64.494 34.562,65.679 37.795,65.57 41.457,64.165 45.546,61.465 50.061,57.472 55.005,52.182 60.375,45.598 66.174,37.719 72.399,28.546 79.052,18.077 86.133,6.313 86.133,-6.313 79.052,-18.077 72.399,-28.546 66.174,-37.719 60.375,-45.598 55.005,-52.182 50.062,-57.472 45.545,-61.465 41.457,-64.165 37.795,-65.57 34.562,-65.679 31.756,-64.494 26.999,-64.299 23.846,-73.302 20.214,-80.341 16.103,-85.414 11.514,-88.524 6.445,-89.67 v -0.207 L 2999.6737,507.17202 Z"
         id="path1"
         sodipodi:nodetypes="ccccccccccccccccccccccccccccccccccccccccc"
         style="fill:#4665cd;fill-opacity:1" />
      <path
         fill_rule="evenodd"
         stroke="none"
         fill-opacity="1.0"
         fill="rgb(8, 9, 52)"
         d="m 3834.615,906.536 12.005,-3.643 4.656,-1.604 7.652,-2.636 0.908,-89.739 -5.178,-86.928 -11.746,-82.134 -18.8,-75.354 -26.336,-66.592 -34.355,-55.845 -39.789,-46.503 -42.213,-39.919 -44.817,-33.82 -47.607,-28.204 -50.578,-23.074 -53.731,-18.426 -57.068,-14.263 -60.587,-10.584 -64.288,-7.39 -68.174,-4.679 -72.24,-2.452 -76.491,-0.71 -76.491,0.71 -72.24,2.452 -68.174,4.679 -64.288,7.39 -60.587,10.584 -57.068,14.263 -53.731,18.426 -50.578,23.074 -47.606,28.204 -44.818,33.82 -42.213,39.919 -39.789,46.503 -34.355,55.845 -26.336,66.592 -18.8,75.354 -11.746,82.134 -5.178,86.928 0.908,89.739 7.637,1.162 15.438,2.348 22.393,2.151 21.737,0.866 21.106,-0.35 20.503,-1.494 19.926,-2.568 19.375,-3.57 18.852,-4.501 18.355,-5.362 17.885,-6.152 17.441,-6.87 17.024,-7.517 16.633,-8.094 16.269,-8.599 15.932,-9.034 15.621,-9.398 15.337,-9.69 15.08,-9.912 14.849,-10.062 14.644,-10.142 14.467,-10.151 14.315,-10.088 14.191,-9.955 14.093,-9.75 14.023,-9.476 13.977,-9.129 13.959,-8.712 13.968,-8.223 14.003,-7.665 14.065,-7.034 14.168,-6.278 14.309,-5.457 14.473,-4.653 14.657,-3.868 14.862,-3.101 15.091,-2.353 15.338,-1.623 15.61,-0.91 15.901,-0.217 16.215,0.458 16.55,1.115 16.906,1.754 17.283,2.374 17.683,2.976 18.105,3.56 18.546,4.125 19.01,4.672 19.496,5.201 20.002,5.712 20.531,6.203 21.081,6.677 21.651,7.133 22.245,7.57 22.859,7.989 23.495,8.389 24.152,8.771 24.831,9.136 25.531,9.481 26.254,9.808 26.996,10.117 26.708,10.072 25.411,9.68 24.172,9.281 22.99,8.874 21.865,8.46 20.796,8.04 19.786,7.611 18.833,7.176 17.936,6.733 17.096,6.283 16.314,5.826 15.589,5.361 14.921,4.89 14.311,4.411 13.757,3.924 13.26,3.431 12.821,2.93 12.438,2.422 12.114,1.907 11.845,1.385 11.635,0.855 11.481,0.317 11.384,-0.226 11.346,-0.778 11.362,-1.337 11.438,-1.902 11.57,-2.476 z"
         id="path5"
         style="fill:#373c86;fill-opacity:1" />
      <path
         fill_rule="evenodd"
         stroke="none"
         fill-opacity="1"
         fill="#0b0b0b"
         d="m 2842.611,1172.377 -8.235,-4.979 -8.563,-1.681 -8.563,1.681 -8.234,4.979 -7.588,8.085 -6.652,10.881 -5.458,13.258 -4.057,15.126 -2.497,16.413 -0.844,17.069 0.844,17.069 2.497,16.413 4.057,15.126 5.458,13.259 6.652,10.881 7.588,8.085 8.234,4.979 8.563,1.681 8.563,-1.681 8.235,-4.979 7.588,-8.085 6.652,-10.881 5.458,-13.259 4.056,-15.126 2.498,-16.413 0.844,-17.069 -0.844,-17.069 -2.498,-16.413 -4.056,-15.126 -5.458,-13.258 -6.652,-10.881 z"
         id="path6" />
      <path
         fill_rule="evenodd"
         stroke="none"
         fill-opacity="1.0"
         fill="rgb(11, 11, 11)"
         d="m 3345.863,1165.717 -8.563,1.681 -8.235,4.979 -7.588,8.085 -6.651,10.881 -5.459,13.258 -4.056,15.126 -2.498,16.413 -0.844,17.069 0.844,17.069 2.498,16.413 4.056,15.126 5.459,13.259 6.651,10.881 7.588,8.085 8.235,4.979 8.563,1.681 8.563,-1.681 8.234,-4.979 7.588,-8.085 6.652,-10.881 5.458,-13.259 4.056,-15.126 2.498,-16.413 0.844,-17.069 -0.844,-17.069 -2.498,-16.413 -4.056,-15.126 -5.458,-13.258 -6.652,-10.881 -7.588,-8.085 -8.234,-4.979 z"
         id="path7"
         style="fill:#434343;fill-opacity:1" />
    </g>
    <g
       inkscape:groupmode="layer"
       id="strokes"
       inkscape:label="strokes">
      <path
         fill="none"
         stroke-width="3"
         stroke-linecap="butt"
         stroke-opacity="1"
         stroke="#000000"
         stroke-linejoin="round"
         d="m 2320.385,899.815 0.017,1.681 0.717,9.974 0.717,9.974 0.717,9.975 0.717,9.974 0.717,9.974 0.717,9.975 0.717,9.974 0.717,9.974 0.709,9.876 1.29,9.916 1.29,9.917 1.29,9.916 1.29,9.917 1.289,9.916 1.29,9.916 1.29,9.917 1.29,9.916 1.195,9.193 1.853,9.827 1.852,9.827 1.853,9.826 1.853,9.827 1.852,9.827 1.853,9.827 1.853,9.827 1.852,9.827 1.282,6.799 2.44,9.698 2.44,9.698 2.44,9.698 2.44,9.697 2.44,9.698 2.44,9.698 2.44,9.698 2.44,9.697 0.694,2.759 3.093,9.509 3.094,9.51 3.093,9.509 3.094,9.51 3.094,9.509 3.093,9.509 3.094,9.51 2.191,6.736 3.871,9.22 3.872,9.22 3.871,9.22 3.872,9.22 3.871,9.22 3.872,9.221 3.77,8.978 4.417,8.971 4.418,8.972 4.417,8.971 4.417,8.972 4.418,8.971 4.417,8.972 4.418,8.971 0.834,1.694 4.656,8.85 4.657,8.849 4.657,8.85 4.657,8.849 4.657,8.85 4.656,8.849 4.657,8.85 1.965,3.732 4.993,8.664 4.995,8.664 4.994,8.663 4.993,8.664 4.995,8.664 4.993,8.664 4.994,8.663 2.838,4.924 5.427,8.399 5.427,8.399 5.427,8.4 5.427,8.399 5.427,8.4 5.426,8.399 5.427,8.399 3.469,5.37 5.954,8.034 5.953,8.035 5.954,8.035 5.953,8.034 5.954,8.035 5.953,8.034 5.954,8.035 3.871,5.223 6.568,7.541 6.568,7.54 6.568,7.541 6.568,7.54 6.569,7.541 6.568,7.54 6.568,7.54 4.084,4.689 7.255,6.882 7.254,6.883 7.255,6.882 7.255,6.883 7.255,6.882 7.255,6.883 7.254,6.882 4.222,4.005 7.98,6.027 7.979,6.026 7.98,6.027 7.98,6.027 7.98,6.027 7.98,6.026 7.98,6.027 4.516,3.411 8.688,4.952 8.688,4.952 8.687,4.952 8.688,4.952 8.688,4.952 8.688,4.952 8.688,4.952 5.359,3.055 9.303,3.668 9.303,3.668 9.303,3.668 9.303,3.668 9.303,3.668 9.303,3.668 9.303,3.668 7.278,2.87 9.748,2.229 9.749,2.229 9.748,2.229 9.748,2.229 9.749,2.23 9.748,2.229 9.749,2.229 9.748,2.229 1.065,0.244 9.973,0.731 9.974,0.731 9.973,0.731 9.973,0.731 9.974,0.731 9.973,0.731 9.973,0.731 9.973,0.731 6.347,0.465 9.973,-0.731 9.973,-0.731 9.974,-0.731 9.973,-0.731 9.973,-0.731 9.973,-0.731 9.974,-0.731 9.973,-0.731 6.347,-0.465 9.748,-2.229 9.749,-2.23 9.748,-2.229 9.748,-2.229 9.749,-2.229 9.748,-2.229 9.748,-2.229 9.749,-2.23 1.065,-0.243 9.303,-3.668 9.303,-3.668 9.303,-3.668 9.303,-3.668 9.303,-3.668 9.303,-3.668 9.303,-3.668 7.278,-2.87 8.688,-4.952 8.688,-4.952 8.688,-4.952 8.687,-4.952 8.688,-4.952 8.688,-4.952 8.688,-4.952 5.359,-3.055 7.98,-6.027 7.98,-6.026 7.98,-6.027 7.979,-6.027 7.98,-6.027 7.98,-6.026 7.98,-6.027 4.516,-3.411 7.255,-6.883 7.255,-6.882 7.255,-6.883 7.254,-6.882 7.255,-6.883 7.255,-6.882 7.255,-6.883 4.221,-4.004 6.568,-7.541 6.569,-7.54 6.568,-7.541 6.568,-7.54 6.568,-7.541 6.568,-7.54 6.569,-7.54 4.084,-4.689 5.953,-8.034 5.954,-8.035 5.953,-8.035 5.954,-8.034 5.953,-8.035 5.954,-8.034 5.953,-8.035 3.871,-5.223 5.427,-8.4 5.427,-8.399 5.426,-8.399 5.427,-8.4 5.427,-8.399 5.427,-8.4 5.427,-8.399 3.469,-5.369 4.994,-8.664 4.994,-8.664 4.994,-8.663 4.994,-8.664 4.994,-8.664 4.994,-8.664 4.994,-8.663 2.837,-4.924 4.657,-8.849 4.657,-8.85 4.657,-8.849 4.657,-8.85 4.657,-8.849 4.656,-8.85 4.657,-8.849 1.964,-3.733 4.418,-8.971 4.417,-8.972 4.418,-8.971 4.417,-8.972 4.417,-8.971 4.418,-8.972 4.417,-8.971 0.834,-1.694 3.872,-9.22 3.871,-9.22 3.872,-9.221 3.871,-9.22 3.872,-9.22 3.871,-9.22 3.77,-8.978 3.094,-9.51 3.093,-9.509 3.094,-9.51 3.093,-9.509 3.094,-9.51 3.093,-9.509 3.094,-9.51 2.191,-6.735 2.44,-9.698 2.44,-9.698 2.44,-9.698 2.44,-9.697 2.44,-9.698 2.44,-9.698 2.44,-9.698 2.44,-9.697 0.694,-2.759 1.852,-9.827 1.853,-9.826 1.853,-9.827 1.853,-9.827 1.852,-9.827 1.853,-9.827 1.852,-9.827 1.853,-9.827 1.282,-6.799 1.29,-9.917 1.29,-9.916 1.289,-9.917 1.29,-9.916 1.29,-9.917 1.289,-9.916 1.29,-9.916 1.29,-9.917 1.196,-9.192 0.717,-9.975 0.716,-9.974 0.717,-9.974 0.718,-9.974 0.716,-9.975 0.717,-9.974 0.717,-9.974 0.717,-9.975 0.71,-9.875 v -0.207"
         id="path15" />
      <path
         fill="none"
         stroke-width="3"
         stroke-linecap="butt"
         stroke-opacity="1"
         stroke="#000000"
         stroke-linejoin="round"
         d="m 3345.863,1165.717 -8.563,1.681 -8.235,4.979 -6.843,7.291 -0.745,0.794 -5.216,8.532 -1.435,2.349 -3.808,9.247 -1.651,4.011 -2.59,9.659 -1.466,5.467 -1.505,9.887 -0.993,6.526 -0.493,9.988 -0.351,7.081 0.494,9.988 0.35,7.081 1.505,9.886 0.993,6.527 2.59,9.659 1.466,5.467 3.807,9.247 1.652,4.012 5.215,8.532 1.436,2.349 6.844,7.291 0.744,0.794 8.235,4.979 8.563,1.681 8.563,-1.681 8.234,-4.979 6.843,-7.292 0.745,-0.793 5.216,-8.533 1.436,-2.348 3.807,-9.247 1.651,-4.012 2.59,-9.658 1.466,-5.468 1.505,-9.886 0.993,-6.527 0.494,-9.988 0.35,-7.081 -0.494,-9.988 -0.35,-7.081 -1.504,-9.886 -0.994,-6.527 -2.59,-9.658 -1.466,-5.468 -3.807,-9.247 -1.651,-4.011 -5.216,-8.532 -1.436,-2.349 -6.843,-7.291 -0.745,-0.794 -8.234,-4.979 -8.563,-1.681"
         id="path16" />
      <path
         fill="none"
         stroke-width="3"
         stroke-linecap="butt"
         stroke-opacity="1"
         stroke="#000000"
         stroke-linejoin="round"
         d="m 2842.611,1172.377 -8.235,-4.979 -8.563,-1.681 -8.563,1.681 -8.234,4.979 -6.843,7.291 -0.745,0.794 -5.216,8.532 -1.436,2.349 -3.807,9.247 -1.651,4.011 -2.59,9.659 -1.467,5.467 -1.504,9.887 -0.993,6.526 -0.494,9.988 -0.35,7.081 0.494,9.988 0.35,7.081 1.504,9.886 0.993,6.527 2.591,9.659 1.466,5.467 3.807,9.247 1.651,4.012 5.216,8.532 1.436,2.349 6.843,7.291 0.745,0.794 8.234,4.979 8.563,1.681 8.563,-1.681 8.235,-4.979 6.843,-7.292 0.745,-0.793 5.216,-8.533 1.436,-2.348 3.807,-9.247 1.651,-4.012 2.59,-9.658 1.466,-5.468 1.505,-9.886 0.993,-6.527 0.493,-9.988 0.351,-7.081 -0.494,-9.988 -0.35,-7.081 -1.504,-9.886 -0.994,-6.527 -2.59,-9.658 -1.466,-5.468 -3.807,-9.247 -1.651,-4.011 -5.216,-8.532 -1.436,-2.349 -6.844,-7.291 -0.744,-0.794"
         id="path17"
         style="fill:#434343;fill-opacity:1" />
      <path
         fill="none"
         stroke-width="3"
         stroke-linecap="butt"
         stroke-opacity="1"
         stroke="#000000"
         stroke-linejoin="round"
         d="m 3834.615,906.536 9.569,-2.904 2.436,-0.739 4.656,-1.604 7.652,-2.636 0.102,-9.999 0.101,-9.999 0.101,-10 0.101,-9.999 0.101,-10 0.101,-9.999 0.102,-10 0.101,-9.999 0.098,-9.744 -0.594,-9.982 -0.595,-9.982 -0.595,-9.983 -0.594,-9.982 -0.595,-9.982 -0.594,-9.983 -0.595,-9.982 -0.594,-9.982 -0.422,-7.07 -1.415,-9.9 -1.416,-9.899 -1.416,-9.899 -1.416,-9.899 -1.416,-9.9 -1.415,-9.899 -1.416,-9.899 -1.416,-9.899 -0.42,-2.94 -2.421,-9.702 -2.421,-9.703 -2.42,-9.703 -2.421,-9.702 -2.421,-9.703 -2.42,-9.702 -2.421,-9.703 -1.855,-7.436 -3.678,-9.3 -3.677,-9.299 -3.678,-9.299 -3.678,-9.299 -3.677,-9.299 -3.678,-9.3 -3.678,-9.299 -0.592,-1.497 -5.24,-8.518 -5.239,-8.517 -5.24,-8.517 -5.24,-8.518 -5.24,-8.517 -5.239,-8.517 -2.917,-4.741 -6.502,-7.599 -6.501,-7.598 -6.501,-7.598 -6.501,-7.598 -6.502,-7.599 -6.501,-7.598 -0.781,-0.913 -7.266,-6.871 -7.266,-6.871 -7.265,-6.871 -7.266,-6.871 -7.266,-6.871 -5.884,-5.564 -7.982,-6.024 -7.982,-6.023 -7.983,-6.024 -7.982,-6.023 -7.982,-6.024 -4.906,-3.702 -8.604,-5.097 -8.603,-5.097 -8.604,-5.097 -8.603,-5.098 -8.604,-5.097 -4.589,-2.718 -9.098,-4.151 -9.098,-4.151 -9.098,-4.15 -9.098,-4.15 -9.098,-4.151 -5.088,-2.321 -9.459,-3.244 -9.459,-3.244 -9.459,-3.243 -9.459,-3.244 -9.46,-3.244 -6.435,-2.207 -9.701,-2.425 -9.702,-2.424 -9.702,-2.425 -9.701,-2.425 -9.702,-2.425 -8.56,-2.139 -9.85,-1.721 -9.851,-1.721 -9.851,-1.721 -9.851,-1.721 -9.851,-1.721 -9.851,-1.721 -1.482,-0.258 -9.934,-1.142 -9.935,-1.142 -9.934,-1.142 -9.935,-1.142 -9.935,-1.142 -9.934,-1.142 -4.681,-0.538 -9.977,-0.685 -9.976,-0.684 -9.977,-0.685 -9.977,-0.685 -9.976,-0.685 -9.977,-0.684 -8.314,-0.571 -9.994,-0.339 -9.994,-0.339 -9.995,-0.34 -9.994,-0.339 -9.994,-0.339 -9.994,-0.339 -9.994,-0.34 -2.281,-0.077 -10,-0.093 -10,-0.093 -9.999,-0.093 -10,-0.092 -9.999,-0.093 -10,-0.093 -9.999,-0.093 -6.494,-0.06 -10,0.093 -9.999,0.093 -10,0.092 -9.999,0.093 -10,0.093 -9.999,0.093 -10,0.093 -6.494,0.06 -9.994,0.339 -9.994,0.339 -9.994,0.34 -9.994,0.339 -9.995,0.339 -9.994,0.339 -9.994,0.34 -2.281,0.077 -9.977,0.685 -9.976,0.685 -9.977,0.684 -9.976,0.685 -9.977,0.685 -9.976,0.684 -8.315,0.571 -9.934,1.142 -9.935,1.142 -9.934,1.142 -9.935,1.142 -9.935,1.142 -9.934,1.141 -4.681,0.539 -9.851,1.721 -9.851,1.72 -9.851,1.721 -9.851,1.721 -9.85,1.721 -9.851,1.721 -1.482,0.259 -9.702,2.425 -9.701,2.424 -9.702,2.425 -9.702,2.425 -9.701,2.425 -8.56,2.139 -9.459,3.244 -9.459,3.244 -9.46,3.244 -9.459,3.244 -9.459,3.243 -6.435,2.207 -9.098,4.151 -9.099,4.15 -9.097,4.151 -9.099,4.15 -9.097,4.151 -5.088,2.321 -8.603,5.097 -8.604,5.097 -8.603,5.097 -8.604,5.097 -8.603,5.097 -4.589,2.719 -7.983,6.023 -7.982,6.024 -7.982,6.023 -7.983,6.024 -7.982,6.023 -4.906,3.703 -7.266,6.871 -7.266,6.871 -7.265,6.871 -7.266,6.871 -7.266,6.871 -5.884,5.564 -6.501,7.598 -6.501,7.598 -6.501,7.599 -6.502,7.598 -6.501,7.598 -6.501,7.598 -0.782,0.914 -5.24,8.517 -5.239,8.517 -5.24,8.518 -5.24,8.517 -5.24,8.517 -5.24,8.518 -2.916,4.741 -3.678,9.299 -3.678,9.299 -3.677,9.299 -3.678,9.3 -3.677,9.299 -3.678,9.299 -3.678,9.299 -0.592,1.498 -2.42,9.702 -2.421,9.703 -2.421,9.702 -2.42,9.703 -2.421,9.703 -2.421,9.702 -2.42,9.703 -1.856,7.436 -1.415,9.899 -1.416,9.9 -1.416,9.899 -1.416,9.899 -1.415,9.9 -1.416,9.899 -1.416,9.899 -1.416,9.899 -0.42,2.94 -0.595,9.982 -0.595,9.982 -0.594,9.983 -0.595,9.982 -0.594,9.982 -0.595,9.983 -0.595,9.982 -0.594,9.982 -0.421,7.07 0.101,10 0.101,9.999 0.101,10 0.101,9.999 0.101,10 0.102,9.999 0.101,10 0.101,9.999 0.099,9.743 7.637,1.162 9.886,1.503 5.552,0.845 9.955,0.956 9.954,0.957 2.484,0.238 9.992,0.398 9.992,0.398 1.753,0.07 9.998,-0.166 9.999,-0.166 1.109,-0.018 9.973,-0.727 9.974,-0.727 0.556,-0.04 9.917,-1.278 10.009,-1.29 9.834,-1.812 9.541,-1.758 9.727,-2.323 9.125,-2.178 9.599,-2.805 8.756,-2.557 9.457,-3.253 8.428,-2.899 9.304,-3.665 8.137,-3.205 9.148,-4.039 7.876,-3.478 8.992,-4.376 7.641,-3.718 8.841,-4.673 7.428,-3.926 8.699,-4.933 7.233,-4.101 8.569,-5.155 7.052,-4.243 8.454,-5.341 6.883,-4.349 8.357,-5.493 6.723,-4.419 8.278,-5.61 6.571,-4.452 8.221,-5.694 6.423,-4.448 8.186,-5.744 6.281,-4.407 8.174,-5.76 6.141,-4.328 8.187,-5.743 6.004,-4.212 8.224,-5.689 5.869,-4.061 8.286,-5.599 5.737,-3.877 8.372,-5.468 5.605,-3.661 8.483,-5.294 5.476,-3.418 8.617,-5.073 5.351,-3.15 8.772,-4.802 5.231,-2.863 8.944,-4.473 5.121,-2.561 9.142,-4.051 5.026,-2.227 9.343,-3.563 4.966,-1.894 9.52,-3.061 4.953,-1.592 9.669,-2.552 4.988,-1.316 9.789,-2.043 5.073,-1.058 9.881,-1.541 5.21,-0.812 9.944,-1.052 5.394,-0.571 9.984,-0.582 5.626,-0.328 9.999,-0.137 5.902,-0.08 9.996,0.282 6.219,0.176 9.977,0.672 6.573,0.443 9.946,1.032 6.96,0.722 9.907,1.361 7.376,1.013 9.862,1.66 7.821,1.316 9.813,1.93 8.292,1.63 9.761,2.171 8.785,1.954 9.711,2.387 9.299,2.285 9.662,2.578 9.834,2.623 9.615,2.746 9.616,2.746 0.771,0.22 9.573,2.892 9.572,2.892 1.386,0.419 9.533,3.02 9.533,3.019 2.015,0.638 9.497,3.129 9.498,3.129 2.656,0.875 9.467,3.222 9.467,3.221 3.311,1.127 9.44,3.299 9.44,3.299 3.979,1.391 9.418,3.363 9.417,3.362 4.66,1.664 9.399,3.414 9.4,3.413 5.353,1.944 9.385,3.453 9.385,3.453 6.061,2.23 9.375,3.481 9.374,3.481 6.782,2.519 9.368,3.499 9.368,3.5 7.518,2.809 9.364,3.509 9.364,3.509 8.268,3.099 9.357,3.529 9.356,3.528 7.995,3.015 9.344,3.56 9.345,3.56 6.722,2.56 9.336,3.584 9.335,3.585 5.501,2.112 9.329,3.601 9.329,3.601 4.332,1.672 9.326,3.609 9.326,3.608 3.213,1.243 9.327,3.606 9.327,3.606 2.142,0.828 9.334,3.59 9.333,3.591 1.119,0.43 9.345,3.561 9.488,3.615 9.362,3.514 8.574,3.219 9.386,3.449 7.71,2.834 9.418,3.363 6.896,2.463 9.457,3.252 6.132,2.109 9.503,3.114 5.418,1.776 9.557,2.945 4.754,1.466 9.616,2.743 4.141,1.181 9.681,2.505 3.579,0.926 9.748,2.228 3.073,0.702 9.815,1.911 2.623,0.511 9.879,1.555 2.235,0.352 9.932,1.161 1.913,0.224 9.973,0.732 1.662,0.123 9.996,0.276 1.485,0.041 9.998,-0.199 1.386,-0.027 9.977,-0.684 1.369,-0.094 9.931,-1.168 1.431,-0.169 9.865,-1.641 1.573,-0.261 9.779,-2.093 1.791,-0.383 9.678,-2.516 2.081,-0.541"
         id="path18" />
    </g>
  </g>
</svg>
